solid CATIA STL
  facet normal -1.000000e+000  -0.000000e+000  0.000000e+000
    outer loop
      vertex -1.100000e+000  3.000000e-001  2.800000e+000
      vertex -1.100000e+000  5.000000e-001  2.800000e+000
      vertex -1.100000e+000  3.000000e-001  1.599510e+000
    endloop
  endfacet
  facet normal -1.000000e+000  0.000000e+000  0.000000e+000
    outer loop
      vertex -1.100000e+000  3.000000e-001  1.599510e+000
      vertex -1.100000e+000  5.000000e-001  2.800000e+000
      vertex -1.100000e+000  5.000000e-001  1.599510e+000
    endloop
  endfacet
  facet normal  0.000000e+000  0.000000e+000  1.000000e+000
    outer loop
      vertex -1.900000e+000  3.000000e-001  1.599510e+000
      vertex -1.100000e+000  3.000000e-001  1.599510e+000
      vertex -1.900000e+000  5.000000e-001  1.599510e+000
    endloop
  endfacet
  facet normal  -0.000000e+000  0.000000e+000  1.000000e+000
    outer loop
      vertex -1.900000e+000  5.000000e-001  1.599510e+000
      vertex -1.100000e+000  3.000000e-001  1.599510e+000
      vertex -1.100000e+000  5.000000e-001  1.599510e+000
    endloop
  endfacet
  facet normal  1.000000e+000  0.000000e+000  0.000000e+000
    outer loop
      vertex -1.900000e+000  3.000000e-001  1.599510e+000
      vertex -1.900000e+000  5.000000e-001  1.599510e+000
      vertex -1.900000e+000  3.000000e-001  2.800000e+000
    endloop
  endfacet
  facet normal  1.000000e+000  -0.000000e+000  0.000000e+000
    outer loop
      vertex -1.900000e+000  3.000000e-001  2.800000e+000
      vertex -1.900000e+000  5.000000e-001  1.599510e+000
      vertex -1.900000e+000  5.000000e-001  2.800000e+000
    endloop
  endfacet
  facet normal  0.000000e+000  0.000000e+000 -1.000000e+000
    outer loop
      vertex -1.100000e+000  3.000000e-001  2.800000e+000
      vertex -1.900000e+000  3.000000e-001  2.800000e+000
      vertex -1.100000e+000  5.000000e-001  2.800000e+000
    endloop
  endfacet
  facet normal  -0.000000e+000  0.000000e+000 -1.000000e+000
    outer loop
      vertex -1.100000e+000  5.000000e-001  2.800000e+000
      vertex -1.900000e+000  3.000000e-001  2.800000e+000
      vertex -1.900000e+000  5.000000e-001  2.800000e+000
    endloop
  endfacet
  facet normal  0.000000e+000  9.999999e-001  -0.000000e+000
    outer loop
      vertex -1.100000e+000  5.000000e-001  1.599510e+000
      vertex -1.193934e+000  5.000000e-001  1.405576e+000
      vertex -1.300000e+000  5.000000e-001  1.449510e+000
    endloop
  endfacet
  facet normal  0.000000e+000  1.000000e+000  -0.000000e+000
    outer loop
      vertex -1.100000e+000  5.000000e-001  1.599510e+000
      vertex -1.300000e+000  5.000000e-001  1.449510e+000
      vertex -1.406066e+000  5.000000e-001  1.405576e+000
    endloop
  endfacet
  facet normal  0.000000e+000  1.000000e+000  -0.000000e+000
    outer loop
      vertex -1.100000e+000  5.000000e-001  1.599510e+000
      vertex -1.406066e+000  5.000000e-001  1.405576e+000
      vertex -1.593934e+000  5.000000e-001  1.405576e+000
    endloop
  endfacet
  facet normal  0.000000e+000  1.000000e+000  -0.000000e+000
    outer loop
      vertex -1.100000e+000  5.000000e-001  1.599510e+000
      vertex -1.593934e+000  5.000000e-001  1.405576e+000
      vertex -1.700000e+000  5.000000e-001  1.449510e+000
    endloop
  endfacet
  facet normal  0.000000e+000  1.000000e+000  -0.000000e+000
    outer loop
      vertex -1.100000e+000  5.000000e-001  1.599510e+000
      vertex -1.700000e+000  5.000000e-001  1.449510e+000
      vertex -1.900000e+000  5.000000e-001  1.599510e+000
    endloop
  endfacet
  facet normal  0.000000e+000  9.999999e-001  0.000000e+000
    outer loop
      vertex -1.900000e+000  5.000000e-001  1.599510e+000
      vertex -1.700000e+000  5.000000e-001  1.449510e+000
      vertex -1.806066e+000  5.000000e-001  1.405576e+000
    endloop
  endfacet
  facet normal  0.000000e+000  9.999999e-001  0.000000e+000
    outer loop
      vertex -1.900000e+000  5.000000e-001  1.599510e+000
      vertex -1.806066e+000  5.000000e-001  1.405576e+000
      vertex -2.000000e+000  5.000000e-001  1.000000e+000
    endloop
  endfacet
  facet normal  0.000000e+000  1.000000e+000  0.000000e+000
    outer loop
      vertex -1.900000e+000  5.000000e-001  1.599510e+000
      vertex -2.000000e+000  5.000000e-001  1.000000e+000
      vertex -2.000000e+000  5.000000e-001  3.000000e+000
    endloop
  endfacet
  facet normal  0.000000e+000  1.000000e+000  0.000000e+000
    outer loop
      vertex -1.900000e+000  5.000000e-001  1.599510e+000
      vertex -2.000000e+000  5.000000e-001  3.000000e+000
      vertex -1.900000e+000  5.000000e-001  2.800000e+000
    endloop
  endfacet
  facet normal  0.000000e+000  1.000000e+000  0.000000e+000
    outer loop
      vertex -1.000000e+000  5.000000e-001  1.000000e+000
      vertex -2.000000e+000  5.000000e-001  1.000000e+000
      vertex -1.700000e+000  5.000000e-001  1.149510e+000
    endloop
  endfacet
  facet normal  -0.000000e+000  1.000000e+000  0.000000e+000
    outer loop
      vertex -1.000000e+000  5.000000e-001  1.000000e+000
      vertex -1.700000e+000  5.000000e-001  1.149510e+000
      vertex -1.593934e+000  5.000000e-001  1.193444e+000
    endloop
  endfacet
  facet normal  0.000000e+000  9.999999e-001  0.000000e+000
    outer loop
      vertex -1.000000e+000  5.000000e-001  1.000000e+000
      vertex -1.593934e+000  5.000000e-001  1.193444e+000
      vertex -1.300000e+000  5.000000e-001  1.149510e+000
    endloop
  endfacet
  facet normal  -0.000000e+000  1.000000e+000  0.000000e+000
    outer loop
      vertex -1.000000e+000  5.000000e-001  1.000000e+000
      vertex -1.300000e+000  5.000000e-001  1.149510e+000
      vertex -1.193934e+000  5.000000e-001  1.193444e+000
    endloop
  endfacet
  facet normal  -0.000000e+000  1.000000e+000  0.000000e+000
    outer loop
      vertex -1.000000e+000  5.000000e-001  1.000000e+000
      vertex -1.193934e+000  5.000000e-001  1.193444e+000
      vertex -1.150000e+000  5.000000e-001  1.299510e+000
    endloop
  endfacet
  facet normal  -0.000000e+000  1.000000e+000  -0.000000e+000
    outer loop
      vertex -1.000000e+000  5.000000e-001  1.000000e+000
      vertex -1.150000e+000  5.000000e-001  1.299510e+000
      vertex -1.193934e+000  5.000000e-001  1.405576e+000
    endloop
  endfacet
  facet normal  -0.000000e+000  9.999999e-001  0.000000e+000
    outer loop
      vertex -1.000000e+000  5.000000e-001  1.000000e+000
      vertex -1.193934e+000  5.000000e-001  1.405576e+000
      vertex -1.100000e+000  5.000000e-001  1.599510e+000
    endloop
  endfacet
  facet normal  -0.000000e+000  1.000000e+000  0.000000e+000
    outer loop
      vertex -1.000000e+000  5.000000e-001  1.000000e+000
      vertex -1.100000e+000  5.000000e-001  1.599510e+000
      vertex -1.100000e+000  5.000000e-001  2.800000e+000
    endloop
  endfacet
  facet normal  -0.000000e+000  1.000000e+000  0.000000e+000
    outer loop
      vertex -1.000000e+000  5.000000e-001  1.000000e+000
      vertex -1.100000e+000  5.000000e-001  2.800000e+000
      vertex -1.000000e+000  5.000000e-001  3.000000e+000
    endloop
  endfacet
  facet normal  0.000000e+000  1.000000e+000  0.000000e+000
    outer loop
      vertex -2.000000e+000  5.000000e-001  1.000000e+000
      vertex -1.806066e+000  5.000000e-001  1.405576e+000
      vertex -1.850000e+000  5.000000e-001  1.299510e+000
    endloop
  endfacet
  facet normal  0.000000e+000  1.000000e+000  0.000000e+000
    outer loop
      vertex -2.000000e+000  5.000000e-001  1.000000e+000
      vertex -1.850000e+000  5.000000e-001  1.299510e+000
      vertex -1.806066e+000  5.000000e-001  1.193444e+000
    endloop
  endfacet
  facet normal  0.000000e+000  1.000000e+000  0.000000e+000
    outer loop
      vertex -2.000000e+000  5.000000e-001  1.000000e+000
      vertex -1.806066e+000  5.000000e-001  1.193444e+000
      vertex -1.700000e+000  5.000000e-001  1.149510e+000
    endloop
  endfacet
  facet normal  0.000000e+000  1.000000e+000  0.000000e+000
    outer loop
      vertex -1.593934e+000  5.000000e-001  1.405576e+000
      vertex -1.406066e+000  5.000000e-001  1.405576e+000
      vertex -1.550000e+000  5.000000e-001  1.299510e+000
    endloop
  endfacet
  facet normal  0.000000e+000  1.000000e+000  0.000000e+000
    outer loop
      vertex -1.550000e+000  5.000000e-001  1.299510e+000
      vertex -1.406066e+000  5.000000e-001  1.405576e+000
      vertex -1.450000e+000  5.000000e-001  1.299510e+000
    endloop
  endfacet
  facet normal  0.000000e+000  1.000000e+000  0.000000e+000
    outer loop
      vertex -1.550000e+000  5.000000e-001  1.299510e+000
      vertex -1.450000e+000  5.000000e-001  1.299510e+000
      vertex -1.593934e+000  5.000000e-001  1.193444e+000
    endloop
  endfacet
  facet normal  0.000000e+000  1.000000e+000  0.000000e+000
    outer loop
      vertex -1.593934e+000  5.000000e-001  1.193444e+000
      vertex -1.450000e+000  5.000000e-001  1.299510e+000
      vertex -1.406066e+000  5.000000e-001  1.193444e+000
    endloop
  endfacet
  facet normal  0.000000e+000  1.000000e+000  0.000000e+000
    outer loop
      vertex -1.593934e+000  5.000000e-001  1.193444e+000
      vertex -1.406066e+000  5.000000e-001  1.193444e+000
      vertex -1.300000e+000  5.000000e-001  1.149510e+000
    endloop
  endfacet
  facet normal  0.000000e+000  1.000000e+000  -0.000000e+000
    outer loop
      vertex -1.000000e+000  5.000000e-001  3.000000e+000
      vertex -1.100000e+000  5.000000e-001  2.800000e+000
      vertex -2.000000e+000  5.000000e-001  3.000000e+000
    endloop
  endfacet
  facet normal  0.000000e+000  1.000000e+000  0.000000e+000
    outer loop
      vertex -2.000000e+000  5.000000e-001  3.000000e+000
      vertex -1.100000e+000  5.000000e-001  2.800000e+000
      vertex -1.900000e+000  5.000000e-001  2.800000e+000
    endloop
  endfacet
  facet normal  0.000000e+000  1.000000e+000  0.000000e+000
    outer loop
      vertex -1.100000e+000  3.000000e-001  1.599510e+000
      vertex -1.900000e+000  3.000000e-001  1.599510e+000
      vertex -1.100000e+000  3.000000e-001  2.800000e+000
    endloop
  endfacet
  facet normal  0.000000e+000  1.000000e+000  0.000000e+000
    outer loop
      vertex -1.100000e+000  3.000000e-001  2.800000e+000
      vertex -1.900000e+000  3.000000e-001  1.599510e+000
      vertex -1.900000e+000  3.000000e-001  2.800000e+000
    endloop
  endfacet
  facet normal -9.238795e-001  -0.000000e+000 -3.826835e-001
    outer loop
      vertex -1.850000e+000  5.000000e-001  1.299510e+000
      vertex -1.850000e+000  6.000000e-001  1.299510e+000
      vertex -1.806066e+000  5.000000e-001  1.193444e+000
    endloop
  endfacet
  facet normal -9.238795e-001  0.000000e+000 -3.826835e-001
    outer loop
      vertex -1.806066e+000  5.000000e-001  1.193444e+000
      vertex -1.850000e+000  6.000000e-001  1.299510e+000
      vertex -1.806066e+000  6.000000e-001  1.193444e+000
    endloop
  endfacet
  facet normal -3.826835e-001  -0.000000e+000 -9.238795e-001
    outer loop
      vertex -1.806066e+000  5.000000e-001  1.193444e+000
      vertex -1.806066e+000  6.000000e-001  1.193444e+000
      vertex -1.700000e+000  5.000000e-001  1.149510e+000
    endloop
  endfacet
  facet normal -3.826835e-001  0.000000e+000 -9.238795e-001
    outer loop
      vertex -1.700000e+000  5.000000e-001  1.149510e+000
      vertex -1.806066e+000  6.000000e-001  1.193444e+000
      vertex -1.700000e+000  6.000000e-001  1.149510e+000
    endloop
  endfacet
  facet normal  3.826832e-001  0.000000e+000 -9.238796e-001
    outer loop
      vertex -1.700000e+000  5.000000e-001  1.149510e+000
      vertex -1.700000e+000  6.000000e-001  1.149510e+000
      vertex -1.593934e+000  5.000000e-001  1.193444e+000
    endloop
  endfacet
  facet normal  3.826832e-001  0.000000e+000 -9.238796e-001
    outer loop
      vertex -1.593934e+000  5.000000e-001  1.193444e+000
      vertex -1.700000e+000  6.000000e-001  1.149510e+000
      vertex -1.593934e+000  6.000000e-001  1.193444e+000
    endloop
  endfacet
  facet normal  9.238795e-001  0.000000e+000 -3.826835e-001
    outer loop
      vertex -1.593934e+000  5.000000e-001  1.193444e+000
      vertex -1.593934e+000  6.000000e-001  1.193444e+000
      vertex -1.550000e+000  5.000000e-001  1.299510e+000
    endloop
  endfacet
  facet normal  9.238795e-001  0.000000e+000 -3.826835e-001
    outer loop
      vertex -1.550000e+000  5.000000e-001  1.299510e+000
      vertex -1.593934e+000  6.000000e-001  1.193444e+000
      vertex -1.550000e+000  6.000000e-001  1.299510e+000
    endloop
  endfacet
  facet normal  9.238795e-001  0.000000e+000  3.826835e-001
    outer loop
      vertex -1.550000e+000  5.000000e-001  1.299510e+000
      vertex -1.550000e+000  6.000000e-001  1.299510e+000
      vertex -1.593934e+000  5.000000e-001  1.405576e+000
    endloop
  endfacet
  facet normal  9.238795e-001  -0.000000e+000  3.826835e-001
    outer loop
      vertex -1.593934e+000  5.000000e-001  1.405576e+000
      vertex -1.550000e+000  6.000000e-001  1.299510e+000
      vertex -1.593934e+000  6.000000e-001  1.405576e+000
    endloop
  endfacet
  facet normal  3.826832e-001  0.000000e+000  9.238796e-001
    outer loop
      vertex -1.593934e+000  5.000000e-001  1.405576e+000
      vertex -1.593934e+000  6.000000e-001  1.405576e+000
      vertex -1.700000e+000  5.000000e-001  1.449510e+000
    endloop
  endfacet
  facet normal  3.826832e-001  -0.000000e+000  9.238796e-001
    outer loop
      vertex -1.700000e+000  5.000000e-001  1.449510e+000
      vertex -1.593934e+000  6.000000e-001  1.405576e+000
      vertex -1.700000e+000  6.000000e-001  1.449510e+000
    endloop
  endfacet
  facet normal -3.826835e-001  0.000000e+000  9.238795e-001
    outer loop
      vertex -1.700000e+000  5.000000e-001  1.449510e+000
      vertex -1.700000e+000  6.000000e-001  1.449510e+000
      vertex -1.806066e+000  5.000000e-001  1.405576e+000
    endloop
  endfacet
  facet normal -3.826835e-001  0.000000e+000  9.238795e-001
    outer loop
      vertex -1.806066e+000  5.000000e-001  1.405576e+000
      vertex -1.700000e+000  6.000000e-001  1.449510e+000
      vertex -1.806066e+000  6.000000e-001  1.405576e+000
    endloop
  endfacet
  facet normal -9.238795e-001  0.000000e+000  3.826835e-001
    outer loop
      vertex -1.806066e+000  5.000000e-001  1.405576e+000
      vertex -1.806066e+000  6.000000e-001  1.405576e+000
      vertex -1.850000e+000  5.000000e-001  1.299510e+000
    endloop
  endfacet
  facet normal -9.238795e-001  0.000000e+000  3.826835e-001
    outer loop
      vertex -1.850000e+000  5.000000e-001  1.299510e+000
      vertex -1.806066e+000  6.000000e-001  1.405576e+000
      vertex -1.850000e+000  6.000000e-001  1.299510e+000
    endloop
  endfacet
  facet normal -9.238795e-001  -0.000000e+000 -3.826835e-001
    outer loop
      vertex -1.450000e+000  5.000000e-001  1.299510e+000
      vertex -1.450000e+000  6.000000e-001  1.299510e+000
      vertex -1.406066e+000  5.000000e-001  1.193444e+000
    endloop
  endfacet
  facet normal -9.238795e-001  0.000000e+000 -3.826835e-001
    outer loop
      vertex -1.406066e+000  5.000000e-001  1.193444e+000
      vertex -1.450000e+000  6.000000e-001  1.299510e+000
      vertex -1.406066e+000  6.000000e-001  1.193444e+000
    endloop
  endfacet
  facet normal -3.826832e-001  -0.000000e+000 -9.238796e-001
    outer loop
      vertex -1.406066e+000  5.000000e-001  1.193444e+000
      vertex -1.406066e+000  6.000000e-001  1.193444e+000
      vertex -1.300000e+000  5.000000e-001  1.149510e+000
    endloop
  endfacet
  facet normal -3.826832e-001  0.000000e+000 -9.238796e-001
    outer loop
      vertex -1.300000e+000  5.000000e-001  1.149510e+000
      vertex -1.406066e+000  6.000000e-001  1.193444e+000
      vertex -1.300000e+000  6.000000e-001  1.149510e+000
    endloop
  endfacet
  facet normal  3.826835e-001  0.000000e+000 -9.238795e-001
    outer loop
      vertex -1.300000e+000  5.000000e-001  1.149510e+000
      vertex -1.300000e+000  6.000000e-001  1.149510e+000
      vertex -1.193934e+000  5.000000e-001  1.193444e+000
    endloop
  endfacet
  facet normal  3.826835e-001  0.000000e+000 -9.238795e-001
    outer loop
      vertex -1.193934e+000  5.000000e-001  1.193444e+000
      vertex -1.300000e+000  6.000000e-001  1.149510e+000
      vertex -1.193934e+000  6.000000e-001  1.193444e+000
    endloop
  endfacet
  facet normal  9.238795e-001  0.000000e+000 -3.826835e-001
    outer loop
      vertex -1.193934e+000  5.000000e-001  1.193444e+000
      vertex -1.193934e+000  6.000000e-001  1.193444e+000
      vertex -1.150000e+000  5.000000e-001  1.299510e+000
    endloop
  endfacet
  facet normal  9.238795e-001  0.000000e+000 -3.826835e-001
    outer loop
      vertex -1.150000e+000  5.000000e-001  1.299510e+000
      vertex -1.193934e+000  6.000000e-001  1.193444e+000
      vertex -1.150000e+000  6.000000e-001  1.299510e+000
    endloop
  endfacet
  facet normal  9.238795e-001  0.000000e+000  3.826835e-001
    outer loop
      vertex -1.150000e+000  5.000000e-001  1.299510e+000
      vertex -1.150000e+000  6.000000e-001  1.299510e+000
      vertex -1.193934e+000  5.000000e-001  1.405576e+000
    endloop
  endfacet
  facet normal  9.238795e-001  -0.000000e+000  3.826835e-001
    outer loop
      vertex -1.193934e+000  5.000000e-001  1.405576e+000
      vertex -1.150000e+000  6.000000e-001  1.299510e+000
      vertex -1.193934e+000  6.000000e-001  1.405576e+000
    endloop
  endfacet
  facet normal  3.826835e-001  0.000000e+000  9.238795e-001
    outer loop
      vertex -1.193934e+000  5.000000e-001  1.405576e+000
      vertex -1.193934e+000  6.000000e-001  1.405576e+000
      vertex -1.300000e+000  5.000000e-001  1.449510e+000
    endloop
  endfacet
  facet normal  3.826835e-001  -0.000000e+000  9.238795e-001
    outer loop
      vertex -1.300000e+000  5.000000e-001  1.449510e+000
      vertex -1.193934e+000  6.000000e-001  1.405576e+000
      vertex -1.300000e+000  6.000000e-001  1.449510e+000
    endloop
  endfacet
  facet normal -3.826832e-001  0.000000e+000  9.238796e-001
    outer loop
      vertex -1.300000e+000  5.000000e-001  1.449510e+000
      vertex -1.300000e+000  6.000000e-001  1.449510e+000
      vertex -1.406066e+000  5.000000e-001  1.405576e+000
    endloop
  endfacet
  facet normal -3.826832e-001  0.000000e+000  9.238796e-001
    outer loop
      vertex -1.406066e+000  5.000000e-001  1.405576e+000
      vertex -1.300000e+000  6.000000e-001  1.449510e+000
      vertex -1.406066e+000  6.000000e-001  1.405576e+000
    endloop
  endfacet
  facet normal -9.238795e-001  0.000000e+000  3.826835e-001
    outer loop
      vertex -1.406066e+000  5.000000e-001  1.405576e+000
      vertex -1.406066e+000  6.000000e-001  1.405576e+000
      vertex -1.450000e+000  5.000000e-001  1.299510e+000
    endloop
  endfacet
  facet normal -9.238795e-001  0.000000e+000  3.826835e-001
    outer loop
      vertex -1.450000e+000  5.000000e-001  1.299510e+000
      vertex -1.406066e+000  6.000000e-001  1.405576e+000
      vertex -1.450000e+000  6.000000e-001  1.299510e+000
    endloop
  endfacet
  facet normal  0.000000e+000  1.000000e+000  0.000000e+000
    outer loop
      vertex -1.593934e+000  6.000000e-001  1.405576e+000
      vertex -1.806066e+000  6.000000e-001  1.405576e+000
      vertex -1.700000e+000  6.000000e-001  1.449510e+000
    endloop
  endfacet
  facet normal  0.000000e+000  1.000000e+000  0.000000e+000
    outer loop
      vertex -1.806066e+000  6.000000e-001  1.405576e+000
      vertex -1.593934e+000  6.000000e-001  1.405576e+000
      vertex -1.850000e+000  6.000000e-001  1.299510e+000
    endloop
  endfacet
  facet normal  0.000000e+000  1.000000e+000  0.000000e+000
    outer loop
      vertex -1.850000e+000  6.000000e-001  1.299510e+000
      vertex -1.593934e+000  6.000000e-001  1.405576e+000
      vertex -1.550000e+000  6.000000e-001  1.299510e+000
    endloop
  endfacet
  facet normal  0.000000e+000  1.000000e+000  0.000000e+000
    outer loop
      vertex -1.850000e+000  6.000000e-001  1.299510e+000
      vertex -1.550000e+000  6.000000e-001  1.299510e+000
      vertex -1.806066e+000  6.000000e-001  1.193444e+000
    endloop
  endfacet
  facet normal  0.000000e+000  1.000000e+000  0.000000e+000
    outer loop
      vertex -1.806066e+000  6.000000e-001  1.193444e+000
      vertex -1.550000e+000  6.000000e-001  1.299510e+000
      vertex -1.593934e+000  6.000000e-001  1.193444e+000
    endloop
  endfacet
  facet normal  0.000000e+000  1.000000e+000  0.000000e+000
    outer loop
      vertex -1.806066e+000  6.000000e-001  1.193444e+000
      vertex -1.593934e+000  6.000000e-001  1.193444e+000
      vertex -1.700000e+000  6.000000e-001  1.149510e+000
    endloop
  endfacet
  facet normal  0.000000e+000  1.000000e+000  0.000000e+000
    outer loop
      vertex -1.193934e+000  6.000000e-001  1.405576e+000
      vertex -1.406066e+000  6.000000e-001  1.405576e+000
      vertex -1.300000e+000  6.000000e-001  1.449510e+000
    endloop
  endfacet
  facet normal  0.000000e+000  1.000000e+000  0.000000e+000
    outer loop
      vertex -1.406066e+000  6.000000e-001  1.405576e+000
      vertex -1.193934e+000  6.000000e-001  1.405576e+000
      vertex -1.450000e+000  6.000000e-001  1.299510e+000
    endloop
  endfacet
  facet normal  0.000000e+000  1.000000e+000  0.000000e+000
    outer loop
      vertex -1.450000e+000  6.000000e-001  1.299510e+000
      vertex -1.193934e+000  6.000000e-001  1.405576e+000
      vertex -1.150000e+000  6.000000e-001  1.299510e+000
    endloop
  endfacet
  facet normal  0.000000e+000  1.000000e+000  0.000000e+000
    outer loop
      vertex -1.450000e+000  6.000000e-001  1.299510e+000
      vertex -1.150000e+000  6.000000e-001  1.299510e+000
      vertex -1.406066e+000  6.000000e-001  1.193444e+000
    endloop
  endfacet
  facet normal  0.000000e+000  1.000000e+000  0.000000e+000
    outer loop
      vertex -1.406066e+000  6.000000e-001  1.193444e+000
      vertex -1.150000e+000  6.000000e-001  1.299510e+000
      vertex -1.193934e+000  6.000000e-001  1.193444e+000
    endloop
  endfacet
  facet normal  0.000000e+000  1.000000e+000  0.000000e+000
    outer loop
      vertex -1.406066e+000  6.000000e-001  1.193444e+000
      vertex -1.193934e+000  6.000000e-001  1.193444e+000
      vertex -1.300000e+000  6.000000e-001  1.149510e+000
    endloop
  endfacet
  facet normal  0.000000e+000 -1.000000e+000  -0.000000e+000
    outer loop
      vertex -1.000000e+000  0.000000e+000  1.000000e+000
      vertex -1.000000e+000  0.000000e+000  3.000000e+000
      vertex -2.000000e+000  0.000000e+000  1.000000e+000
    endloop
  endfacet
  facet normal  0.000000e+000 -1.000000e+000  0.000000e+000
    outer loop
      vertex -2.000000e+000  0.000000e+000  1.000000e+000
      vertex -1.000000e+000  0.000000e+000  3.000000e+000
      vertex -2.000000e+000  0.000000e+000  3.000000e+000
    endloop
  endfacet
  facet normal  -0.000000e+000  0.000000e+000  1.000000e+000
    outer loop
      vertex -1.000000e+000  5.000000e-001  3.000000e+000
      vertex -2.000000e+000  5.000000e-001  3.000000e+000
      vertex -1.000000e+000  0.000000e+000  3.000000e+000
    endloop
  endfacet
  facet normal  0.000000e+000  0.000000e+000  1.000000e+000
    outer loop
      vertex -1.000000e+000  0.000000e+000  3.000000e+000
      vertex -2.000000e+000  5.000000e-001  3.000000e+000
      vertex -2.000000e+000  0.000000e+000  3.000000e+000
    endloop
  endfacet
  facet normal -1.000000e+000  0.000000e+000  0.000000e+000
    outer loop
      vertex -2.000000e+000  5.000000e-001  1.000000e+000
      vertex -2.000000e+000  0.000000e+000  1.000000e+000
      vertex -2.000000e+000  5.000000e-001  3.000000e+000
    endloop
  endfacet
  facet normal -1.000000e+000  -0.000000e+000  0.000000e+000
    outer loop
      vertex -2.000000e+000  5.000000e-001  3.000000e+000
      vertex -2.000000e+000  0.000000e+000  1.000000e+000
      vertex -2.000000e+000  0.000000e+000  3.000000e+000
    endloop
  endfacet
  facet normal  -0.000000e+000  0.000000e+000 -1.000000e+000
    outer loop
      vertex -2.000000e+000  5.000000e-001  1.000000e+000
      vertex -1.000000e+000  5.000000e-001  1.000000e+000
      vertex -2.000000e+000  0.000000e+000  1.000000e+000
    endloop
  endfacet
  facet normal  0.000000e+000  0.000000e+000 -1.000000e+000
    outer loop
      vertex -2.000000e+000  0.000000e+000  1.000000e+000
      vertex -1.000000e+000  5.000000e-001  1.000000e+000
      vertex -1.000000e+000  0.000000e+000  1.000000e+000
    endloop
  endfacet
  facet normal  1.000000e+000  -0.000000e+000  0.000000e+000
    outer loop
      vertex -1.000000e+000  5.000000e-001  3.000000e+000
      vertex -1.000000e+000  0.000000e+000  3.000000e+000
      vertex -1.000000e+000  5.000000e-001  1.000000e+000
    endloop
  endfacet
  facet normal  1.000000e+000  0.000000e+000  0.000000e+000
    outer loop
      vertex -1.000000e+000  5.000000e-001  1.000000e+000
      vertex -1.000000e+000  0.000000e+000  3.000000e+000
      vertex -1.000000e+000  0.000000e+000  1.000000e+000
    endloop
  endfacet
endsolid CATIA STL
