solid CATIA STL
  facet normal  0.000000e+000 -1.000000e+000  0.000000e+000
    outer loop
      vertex -1.029874e+002 -2.500000e+001  7.771229e+001
      vertex -1.041111e+002 -2.500000e+001  6.844076e+001
      vertex -1.036444e+002 -2.500000e+001  5.911305e+001
    endloop
  endfacet
  facet normal  0.000000e+000 -1.000000e+000  0.000000e+000
    outer loop
      vertex -1.000000e+002 -2.500000e+001  5.000000e+001
      vertex  0.000000e+000 -2.500000e+001  5.000000e+001
      vertex -2.530861e+000 -2.500000e+001  9.501937e+001
    endloop
  endfacet
  facet normal  -0.000000e+000 -9.999999e-001  0.000000e+000
    outer loop
      vertex -1.000000e+002 -2.500000e+001  5.000000e+001
      vertex -2.530861e+000 -2.500000e+001  9.501937e+001
      vertex -8.051536e+000 -2.500000e+001  1.025524e+002
    endloop
  endfacet
  facet normal  -0.000000e+000 -9.999999e-001  0.000000e+000
    outer loop
      vertex -1.000000e+002 -2.500000e+001  5.000000e+001
      vertex -8.051536e+000 -2.500000e+001  1.025524e+002
      vertex -1.477104e+001 -2.500000e+001  1.090387e+002
    endloop
  endfacet
  facet normal  -0.000000e+000 -1.000000e+000  0.000000e+000
    outer loop
      vertex -1.000000e+002 -2.500000e+001  5.000000e+001
      vertex -1.477104e+001 -2.500000e+001  1.090387e+002
      vertex -2.249425e+001 -2.500000e+001  1.142900e+002
    endloop
  endfacet
  facet normal  -0.000000e+000 -1.000000e+000  0.000000e+000
    outer loop
      vertex -1.000000e+002 -2.500000e+001  5.000000e+001
      vertex -2.249425e+001 -2.500000e+001  1.142900e+002
      vertex -3.099691e+001 -2.500000e+001  1.181538e+002
    endloop
  endfacet
  facet normal  -0.000000e+000 -1.000000e+000  0.000000e+000
    outer loop
      vertex -1.000000e+002 -2.500000e+001  5.000000e+001
      vertex -3.099691e+001 -2.500000e+001  1.181538e+002
      vertex -4.003213e+001 -2.500000e+001  1.205179e+002
    endloop
  endfacet
  facet normal  -0.000000e+000 -9.999999e-001  0.000000e+000
    outer loop
      vertex -1.000000e+002 -2.500000e+001  5.000000e+001
      vertex -4.003213e+001 -2.500000e+001  1.205179e+002
      vertex -4.933755e+001 -2.500000e+001  1.213136e+002
    endloop
  endfacet
  facet normal  0.000000e+000 -1.000000e+000  0.000000e+000
    outer loop
      vertex -1.000000e+002 -2.500000e+001  5.000000e+001
      vertex -4.933755e+001 -2.500000e+001  1.213136e+002
      vertex -5.864297e+001 -2.500000e+001  1.205179e+002
    endloop
  endfacet
  facet normal  0.000000e+000 -1.000000e+000  0.000000e+000
    outer loop
      vertex -1.000000e+002 -2.500000e+001  5.000000e+001
      vertex -5.864297e+001 -2.500000e+001  1.205179e+002
      vertex -6.767818e+001 -2.500000e+001  1.181538e+002
    endloop
  endfacet
  facet normal  0.000000e+000 -1.000000e+000  0.000000e+000
    outer loop
      vertex -1.000000e+002 -2.500000e+001  5.000000e+001
      vertex -6.767818e+001 -2.500000e+001  1.181538e+002
      vertex -7.618085e+001 -2.500000e+001  1.142900e+002
    endloop
  endfacet
  facet normal  0.000000e+000 -1.000000e+000  0.000000e+000
    outer loop
      vertex -1.000000e+002 -2.500000e+001  5.000000e+001
      vertex -7.618085e+001 -2.500000e+001  1.142900e+002
      vertex -8.390406e+001 -2.500000e+001  1.090387e+002
    endloop
  endfacet
  facet normal  0.000000e+000 -1.000000e+000  0.000000e+000
    outer loop
      vertex -1.000000e+002 -2.500000e+001  5.000000e+001
      vertex -8.390406e+001 -2.500000e+001  1.090387e+002
      vertex -9.062356e+001 -2.500000e+001  1.025524e+002
    endloop
  endfacet
  facet normal  0.000000e+000 -9.999999e-001  0.000000e+000
    outer loop
      vertex -1.000000e+002 -2.500000e+001  5.000000e+001
      vertex -9.062356e+001 -2.500000e+001  1.025524e+002
      vertex -9.614423e+001 -2.500000e+001  9.501937e+001
    endloop
  endfacet
  facet normal  0.000000e+000 -1.000000e+000  0.000000e+000
    outer loop
      vertex  1.630686e+000 -2.500000e+001  8.665842e+001
      vertex -2.530861e+000 -2.500000e+001  9.501937e+001
      vertex  0.000000e+000 -2.500000e+001  5.000000e+001
    endloop
  endfacet
  facet normal  0.000000e+000 -1.000000e+000  0.000000e+000
    outer loop
      vertex  1.630686e+000 -2.500000e+001  8.665842e+001
      vertex  0.000000e+000 -2.500000e+001  5.000000e+001
      vertex  0.000000e+000 -2.500000e+001  2.658312e+001
    endloop
  endfacet
  facet normal  0.000000e+000 -1.000000e+000  0.000000e+000
    outer loop
      vertex  1.630686e+000 -2.500000e+001  8.665842e+001
      vertex  0.000000e+000 -2.500000e+001  2.658312e+001
      vertex  0.000000e+000 -2.500000e+001 -6.583124e+000
    endloop
  endfacet
  facet normal  0.000000e+000 -1.000000e+000  0.000000e+000
    outer loop
      vertex  1.630686e+000 -2.500000e+001  8.665842e+001
      vertex  0.000000e+000 -2.500000e+001 -6.583124e+000
      vertex  0.000000e+000 -2.500000e+001 -5.000000e+001
    endloop
  endfacet
  facet normal  0.000000e+000 -1.000000e+000  0.000000e+000
    outer loop
      vertex  1.630686e+000 -2.500000e+001  8.665842e+001
      vertex  0.000000e+000 -2.500000e+001 -5.000000e+001
      vertex  2.925663e+000 -2.500000e+001  5.000000e+001
    endloop
  endfacet
  facet normal  0.000000e+000 -1.000000e+000  0.000000e+000
    outer loop
      vertex  1.630686e+000 -2.500000e+001  8.665842e+001
      vertex  2.925663e+000 -2.500000e+001  5.000000e+001
      vertex  4.312264e+000 -2.500000e+001  7.771229e+001
    endloop
  endfacet
  facet normal  0.000000e+000 -1.000000e+000  -0.000000e+000
    outer loop
      vertex -1.003058e+002 -2.500000e+001  8.665842e+001
      vertex -1.029874e+002 -2.500000e+001  7.771229e+001
      vertex -1.036444e+002 -2.500000e+001  5.911305e+001
    endloop
  endfacet
  facet normal  0.000000e+000 -1.000000e+000  0.000000e+000
    outer loop
      vertex -1.003058e+002 -2.500000e+001  8.665842e+001
      vertex -1.036444e+002 -2.500000e+001  5.911305e+001
      vertex -1.016008e+002 -2.500000e+001  5.000000e+001
    endloop
  endfacet
  facet normal  0.000000e+000 -1.000000e+000  0.000000e+000
    outer loop
      vertex -1.003058e+002 -2.500000e+001  8.665842e+001
      vertex -1.016008e+002 -2.500000e+001  5.000000e+001
      vertex -1.000000e+002 -2.500000e+001 -5.000000e+001
    endloop
  endfacet
  facet normal  0.000000e+000 -1.000000e+000  0.000000e+000
    outer loop
      vertex -1.003058e+002 -2.500000e+001  8.665842e+001
      vertex -1.000000e+002 -2.500000e+001 -5.000000e+001
      vertex -1.000000e+002 -2.500000e+001 -6.583124e+000
    endloop
  endfacet
  facet normal  0.000000e+000 -1.000000e+000  0.000000e+000
    outer loop
      vertex -1.003058e+002 -2.500000e+001  8.665842e+001
      vertex -1.000000e+002 -2.500000e+001 -6.583124e+000
      vertex -1.000000e+002 -2.500000e+001  2.658312e+001
    endloop
  endfacet
  facet normal  0.000000e+000 -1.000000e+000  0.000000e+000
    outer loop
      vertex -1.003058e+002 -2.500000e+001  8.665842e+001
      vertex -1.000000e+002 -2.500000e+001  2.658312e+001
      vertex -1.000000e+002 -2.500000e+001  5.000000e+001
    endloop
  endfacet
  facet normal  0.000000e+000 -1.000000e+000  0.000000e+000
    outer loop
      vertex -1.003058e+002 -2.500000e+001  8.665842e+001
      vertex -1.000000e+002 -2.500000e+001  5.000000e+001
      vertex -9.614423e+001 -2.500000e+001  9.501937e+001
    endloop
  endfacet
  facet normal  0.000000e+000 -1.000000e+000  0.000000e+000
    outer loop
      vertex  2.925663e+000 -2.500000e+001  5.000000e+001
      vertex  0.000000e+000 -2.500000e+001 -5.000000e+001
      vertex  3.500000e+001 -2.500000e+001  5.000000e+001
    endloop
  endfacet
  facet normal  0.000000e+000 -1.000000e+000  -0.000000e+000
    outer loop
      vertex  3.500000e+001 -2.500000e+001  5.000000e+001
      vertex  0.000000e+000 -2.500000e+001 -5.000000e+001
      vertex  3.500000e+001 -2.500000e+001 -5.000000e+001
    endloop
  endfacet
  facet normal  0.000000e+000 -9.999999e-001  0.000000e+000
    outer loop
      vertex -1.016008e+002 -2.500000e+001  5.000000e+001
      vertex -1.400000e+002 -2.500000e+001  5.000000e+001
      vertex -1.000000e+002 -2.500000e+001 -5.000000e+001
    endloop
  endfacet
  facet normal  0.000000e+000 -1.000000e+000  0.000000e+000
    outer loop
      vertex -1.000000e+002 -2.500000e+001 -5.000000e+001
      vertex -1.400000e+002 -2.500000e+001  5.000000e+001
      vertex -1.400000e+002 -2.500000e+001 -5.000000e+001
    endloop
  endfacet
  facet normal  0.000000e+000 -1.000000e+000  0.000000e+000
    outer loop
      vertex  4.312264e+000 -2.500000e+001  7.771229e+001
      vertex  2.925663e+000 -2.500000e+001  5.000000e+001
      vertex  5.436010e+000 -2.500000e+001  6.844076e+001
    endloop
  endfacet
  facet normal  0.000000e+000 -1.000000e+000  0.000000e+000
    outer loop
      vertex  5.436010e+000 -2.500000e+001  6.844076e+001
      vertex  2.925663e+000 -2.500000e+001  5.000000e+001
      vertex  4.969292e+000 -2.500000e+001  5.911305e+001
    endloop
  endfacet
  facet normal  0.000000e+000  0.000000e+000 -1.000000e+000
    outer loop
      vertex  2.925663e+000  3.500000e+001  5.000000e+001
      vertex  2.925663e+000  2.500000e+001  5.000000e+001
      vertex  0.000000e+000  2.500000e+001  5.000000e+001
    endloop
  endfacet
  facet normal  0.000000e+000  0.000000e+000 -1.000000e+000
    outer loop
      vertex  2.925663e+000  3.500000e+001  5.000000e+001
      vertex  0.000000e+000  2.500000e+001  5.000000e+001
      vertex -1.000000e+002  2.500000e+001  5.000000e+001
    endloop
  endfacet
  facet normal  0.000000e+000  0.000000e+000 -1.000000e+000
    outer loop
      vertex  2.925663e+000  3.500000e+001  5.000000e+001
      vertex -1.000000e+002  2.500000e+001  5.000000e+001
      vertex -1.016008e+002  2.500000e+001  5.000000e+001
    endloop
  endfacet
  facet normal  0.000000e+000  0.000000e+000 -1.000000e+000
    outer loop
      vertex  2.925663e+000  3.500000e+001  5.000000e+001
      vertex -1.016008e+002  2.500000e+001  5.000000e+001
      vertex -1.016008e+002  3.500000e+001  5.000000e+001
    endloop
  endfacet
  facet normal  0.000000e+000  0.000000e+000 -1.000000e+000
    outer loop
      vertex  0.000000e+000 -2.500000e+001  5.000000e+001
      vertex -1.000000e+002 -2.500000e+001  5.000000e+001
      vertex  0.000000e+000  2.500000e+001  5.000000e+001
    endloop
  endfacet
  facet normal  -0.000000e+000  0.000000e+000 -1.000000e+000
    outer loop
      vertex  0.000000e+000  2.500000e+001  5.000000e+001
      vertex -1.000000e+002 -2.500000e+001  5.000000e+001
      vertex -1.000000e+002  2.500000e+001  5.000000e+001
    endloop
  endfacet
  facet normal -9.757655e-001  0.000000e+000 -2.188188e-001
    outer loop
      vertex -1.016008e+002 -2.500000e+001  5.000000e+001
      vertex -1.036444e+002 -2.500000e+001  5.911305e+001
      vertex -1.016008e+002  2.500000e+001  5.000000e+001
    endloop
  endfacet
  facet normal  9.757656e-001  0.000000e+000 -2.188184e-001
    outer loop
      vertex  2.925663e+000  3.500000e+001  5.000000e+001
      vertex  4.969292e+000  3.500000e+001  5.911305e+001
      vertex  2.925663e+000  2.500000e+001  5.000000e+001
    endloop
  endfacet
  facet normal -9.757655e-001  0.000000e+000 -2.188188e-001
    outer loop
      vertex -1.016008e+002  3.500000e+001  5.000000e+001
      vertex -1.016008e+002  2.500000e+001  5.000000e+001
      vertex -1.036444e+002  3.500000e+001  5.911305e+001
    endloop
  endfacet
  facet normal -9.757656e-001  -0.000000e+000 -2.188188e-001
    outer loop
      vertex -1.036444e+002  3.500000e+001  5.911305e+001
      vertex -1.016008e+002  2.500000e+001  5.000000e+001
      vertex -1.036444e+002 -2.500000e+001  5.911305e+001
    endloop
  endfacet
  facet normal -9.987506e-001  0.000000e+000 -4.997341e-002
    outer loop
      vertex -1.036444e+002  3.500000e+001  5.911305e+001
      vertex -1.036444e+002 -2.500000e+001  5.911305e+001
      vertex -1.041111e+002  3.500000e+001  6.844076e+001
    endloop
  endfacet
  facet normal -9.987506e-001  -0.000000e+000 -4.997341e-002
    outer loop
      vertex -1.041111e+002  3.500000e+001  6.844076e+001
      vertex -1.036444e+002 -2.500000e+001  5.911305e+001
      vertex -1.041111e+002 -2.500000e+001  6.844076e+001
    endloop
  endfacet
  facet normal -9.927348e-001  0.000000e+000  1.203237e-001
    outer loop
      vertex -1.041111e+002  3.500000e+001  6.844076e+001
      vertex -1.041111e+002 -2.500000e+001  6.844076e+001
      vertex -1.029874e+002  3.500000e+001  7.771229e+001
    endloop
  endfacet
  facet normal -9.927348e-001  0.000000e+000  1.203237e-001
    outer loop
      vertex -1.029874e+002  3.500000e+001  7.771229e+001
      vertex -1.041111e+002 -2.500000e+001  6.844076e+001
      vertex -1.029874e+002 -2.500000e+001  7.771229e+001
    endloop
  endfacet
  facet normal -9.578929e-001  0.000000e+000  2.871260e-001
    outer loop
      vertex -1.029874e+002  3.500000e+001  7.771229e+001
      vertex -1.029874e+002 -2.500000e+001  7.771229e+001
      vertex -1.003058e+002  3.500000e+001  8.665842e+001
    endloop
  endfacet
  facet normal -9.578929e-001  0.000000e+000  2.871260e-001
    outer loop
      vertex -1.003058e+002  3.500000e+001  8.665842e+001
      vertex -1.029874e+002 -2.500000e+001  7.771229e+001
      vertex -1.003058e+002 -2.500000e+001  8.665842e+001
    endloop
  endfacet
  facet normal -8.952366e-001  0.000000e+000  4.455911e-001
    outer loop
      vertex -1.003058e+002  3.500000e+001  8.665842e+001
      vertex -1.003058e+002 -2.500000e+001  8.665842e+001
      vertex -9.614423e+001  3.500000e+001  9.501937e+001
    endloop
  endfacet
  facet normal -8.952366e-001  0.000000e+000  4.455911e-001
    outer loop
      vertex -9.614423e+001  3.500000e+001  9.501937e+001
      vertex -1.003058e+002 -2.500000e+001  8.665842e+001
      vertex -9.614423e+001 -2.500000e+001  9.501937e+001
    endloop
  endfacet
  facet normal -8.065851e-001  0.000000e+000  5.911180e-001
    outer loop
      vertex -9.614423e+001  3.500000e+001  9.501937e+001
      vertex -9.614423e+001 -2.500000e+001  9.501937e+001
      vertex -9.062356e+001  3.500000e+001  1.025524e+002
    endloop
  endfacet
  facet normal -8.065851e-001  0.000000e+000  5.911180e-001
    outer loop
      vertex -9.062356e+001  3.500000e+001  1.025524e+002
      vertex -9.614423e+001 -2.500000e+001  9.501937e+001
      vertex -9.062356e+001 -2.500000e+001  1.025524e+002
    endloop
  endfacet
  facet normal -6.945131e-001  0.000000e+000  7.194802e-001
    outer loop
      vertex -9.062356e+001  3.500000e+001  1.025524e+002
      vertex -9.062356e+001 -2.500000e+001  1.025524e+002
      vertex -8.390406e+001  3.500000e+001  1.090387e+002
    endloop
  endfacet
  facet normal -6.945131e-001  0.000000e+000  7.194802e-001
    outer loop
      vertex -8.390406e+001  3.500000e+001  1.090387e+002
      vertex -9.062356e+001 -2.500000e+001  1.025524e+002
      vertex -8.390406e+001 -2.500000e+001  1.090387e+002
    endloop
  endfacet
  facet normal -5.622743e-001  0.000000e+000  8.269507e-001
    outer loop
      vertex -8.390406e+001  3.500000e+001  1.090387e+002
      vertex -8.390406e+001 -2.500000e+001  1.090387e+002
      vertex -7.618085e+001  3.500000e+001  1.142900e+002
    endloop
  endfacet
  facet normal -5.622743e-001  0.000000e+000  8.269507e-001
    outer loop
      vertex -7.618085e+001  3.500000e+001  1.142900e+002
      vertex -8.390406e+001 -2.500000e+001  1.090387e+002
      vertex -7.618085e+001 -2.500000e+001  1.142900e+002
    endloop
  endfacet
  facet normal -4.137080e-001  0.000000e+000  9.104096e-001
    outer loop
      vertex -7.618085e+001  3.500000e+001  1.142900e+002
      vertex -7.618085e+001 -2.500000e+001  1.142900e+002
      vertex -6.767818e+001  3.500000e+001  1.181538e+002
    endloop
  endfacet
  facet normal -4.137080e-001  0.000000e+000  9.104096e-001
    outer loop
      vertex -6.767818e+001  3.500000e+001  1.181538e+002
      vertex -7.618085e+001 -2.500000e+001  1.142900e+002
      vertex -6.767818e+001 -2.500000e+001  1.181538e+002
    endloop
  endfacet
  facet normal -2.531305e-001  0.000000e+000  9.674321e-001
    outer loop
      vertex -6.767818e+001  3.500000e+001  1.181538e+002
      vertex -6.767818e+001 -2.500000e+001  1.181538e+002
      vertex -5.864297e+001  3.500000e+001  1.205179e+002
    endloop
  endfacet
  facet normal -2.531305e-001  0.000000e+000  9.674321e-001
    outer loop
      vertex -5.864297e+001  3.500000e+001  1.205179e+002
      vertex -6.767818e+001 -2.500000e+001  1.181538e+002
      vertex -5.864297e+001 -2.500000e+001  1.205179e+002
    endloop
  endfacet
  facet normal -8.520083e-002  0.000000e+000  9.963638e-001
    outer loop
      vertex -5.864297e+001  3.500000e+001  1.205179e+002
      vertex -5.864297e+001 -2.500000e+001  1.205179e+002
      vertex -4.933755e+001  3.500000e+001  1.213136e+002
    endloop
  endfacet
  facet normal -8.520083e-002  0.000000e+000  9.963638e-001
    outer loop
      vertex -4.933755e+001  3.500000e+001  1.213136e+002
      vertex -5.864297e+001 -2.500000e+001  1.205179e+002
      vertex -4.933755e+001 -2.500000e+001  1.213136e+002
    endloop
  endfacet
  facet normal  8.520083e-002  -0.000000e+000  9.963638e-001
    outer loop
      vertex -4.933755e+001  3.500000e+001  1.213136e+002
      vertex -4.933755e+001 -2.500000e+001  1.213136e+002
      vertex -4.003213e+001  3.500000e+001  1.205179e+002
    endloop
  endfacet
  facet normal  8.520083e-002  0.000000e+000  9.963638e-001
    outer loop
      vertex -4.003213e+001  3.500000e+001  1.205179e+002
      vertex -4.933755e+001 -2.500000e+001  1.213136e+002
      vertex -4.003213e+001 -2.500000e+001  1.205179e+002
    endloop
  endfacet
  facet normal  2.531304e-001  -0.000000e+000  9.674322e-001
    outer loop
      vertex -4.003213e+001  3.500000e+001  1.205179e+002
      vertex -4.003213e+001 -2.500000e+001  1.205179e+002
      vertex -3.099691e+001  3.500000e+001  1.181538e+002
    endloop
  endfacet
  facet normal  2.531304e-001  0.000000e+000  9.674322e-001
    outer loop
      vertex -3.099691e+001  3.500000e+001  1.181538e+002
      vertex -4.003213e+001 -2.500000e+001  1.205179e+002
      vertex -3.099691e+001 -2.500000e+001  1.181538e+002
    endloop
  endfacet
  facet normal  4.137081e-001  -0.000000e+000  9.104096e-001
    outer loop
      vertex -3.099691e+001  3.500000e+001  1.181538e+002
      vertex -3.099691e+001 -2.500000e+001  1.181538e+002
      vertex -2.249425e+001  3.500000e+001  1.142900e+002
    endloop
  endfacet
  facet normal  4.137081e-001  0.000000e+000  9.104096e-001
    outer loop
      vertex -2.249425e+001  3.500000e+001  1.142900e+002
      vertex -3.099691e+001 -2.500000e+001  1.181538e+002
      vertex -2.249425e+001 -2.500000e+001  1.142900e+002
    endloop
  endfacet
  facet normal  5.622745e-001  -0.000000e+000  8.269506e-001
    outer loop
      vertex -2.249425e+001  3.500000e+001  1.142900e+002
      vertex -2.249425e+001 -2.500000e+001  1.142900e+002
      vertex -1.477104e+001  3.500000e+001  1.090387e+002
    endloop
  endfacet
  facet normal  5.622745e-001  0.000000e+000  8.269506e-001
    outer loop
      vertex -1.477104e+001  3.500000e+001  1.090387e+002
      vertex -2.249425e+001 -2.500000e+001  1.142900e+002
      vertex -1.477104e+001 -2.500000e+001  1.090387e+002
    endloop
  endfacet
  facet normal  6.945128e-001  -0.000000e+000  7.194803e-001
    outer loop
      vertex -1.477104e+001  3.500000e+001  1.090387e+002
      vertex -1.477104e+001 -2.500000e+001  1.090387e+002
      vertex -8.051536e+000  3.500000e+001  1.025524e+002
    endloop
  endfacet
  facet normal  6.945128e-001  0.000000e+000  7.194803e-001
    outer loop
      vertex -8.051536e+000  3.500000e+001  1.025524e+002
      vertex -1.477104e+001 -2.500000e+001  1.090387e+002
      vertex -8.051536e+000 -2.500000e+001  1.025524e+002
    endloop
  endfacet
  facet normal  8.065851e-001  -0.000000e+000  5.911179e-001
    outer loop
      vertex -8.051536e+000  3.500000e+001  1.025524e+002
      vertex -8.051536e+000 -2.500000e+001  1.025524e+002
      vertex -2.530861e+000  3.500000e+001  9.501937e+001
    endloop
  endfacet
  facet normal  8.065851e-001  0.000000e+000  5.911179e-001
    outer loop
      vertex -2.530861e+000  3.500000e+001  9.501937e+001
      vertex -8.051536e+000 -2.500000e+001  1.025524e+002
      vertex -2.530861e+000 -2.500000e+001  9.501937e+001
    endloop
  endfacet
  facet normal  8.952364e-001  -0.000000e+000  4.455913e-001
    outer loop
      vertex -2.530861e+000  3.500000e+001  9.501937e+001
      vertex -2.530861e+000 -2.500000e+001  9.501937e+001
      vertex  1.630686e+000  3.500000e+001  8.665842e+001
    endloop
  endfacet
  facet normal  8.952364e-001  0.000000e+000  4.455913e-001
    outer loop
      vertex  1.630686e+000  3.500000e+001  8.665842e+001
      vertex -2.530861e+000 -2.500000e+001  9.501937e+001
      vertex  1.630686e+000 -2.500000e+001  8.665842e+001
    endloop
  endfacet
  facet normal  9.578929e-001  -0.000000e+000  2.871259e-001
    outer loop
      vertex  1.630686e+000  3.500000e+001  8.665842e+001
      vertex  1.630686e+000 -2.500000e+001  8.665842e+001
      vertex  4.312264e+000  3.500000e+001  7.771229e+001
    endloop
  endfacet
  facet normal  9.578929e-001  0.000000e+000  2.871259e-001
    outer loop
      vertex  4.312264e+000  3.500000e+001  7.771229e+001
      vertex  1.630686e+000 -2.500000e+001  8.665842e+001
      vertex  4.312264e+000 -2.500000e+001  7.771229e+001
    endloop
  endfacet
  facet normal  9.927348e-001  -0.000000e+000  1.203233e-001
    outer loop
      vertex  4.312264e+000  3.500000e+001  7.771229e+001
      vertex  4.312264e+000 -2.500000e+001  7.771229e+001
      vertex  5.436010e+000  3.500000e+001  6.844076e+001
    endloop
  endfacet
  facet normal  9.927348e-001  0.000000e+000  1.203233e-001
    outer loop
      vertex  5.436010e+000  3.500000e+001  6.844076e+001
      vertex  4.312264e+000 -2.500000e+001  7.771229e+001
      vertex  5.436010e+000 -2.500000e+001  6.844076e+001
    endloop
  endfacet
  facet normal  9.987506e-001  0.000000e+000 -4.997310e-002
    outer loop
      vertex  5.436010e+000  3.500000e+001  6.844076e+001
      vertex  5.436010e+000 -2.500000e+001  6.844076e+001
      vertex  4.969292e+000  3.500000e+001  5.911305e+001
    endloop
  endfacet
  facet normal  9.987506e-001  0.000000e+000 -4.997310e-002
    outer loop
      vertex  4.969292e+000  3.500000e+001  5.911305e+001
      vertex  5.436010e+000 -2.500000e+001  6.844076e+001
      vertex  4.969292e+000 -2.500000e+001  5.911305e+001
    endloop
  endfacet
  facet normal  9.757656e-001  0.000000e+000 -2.188184e-001
    outer loop
      vertex  4.969292e+000  3.500000e+001  5.911305e+001
      vertex  4.969292e+000 -2.500000e+001  5.911305e+001
      vertex  2.925663e+000  2.500000e+001  5.000000e+001
    endloop
  endfacet
  facet normal  9.757656e-001  0.000000e+000 -2.188184e-001
    outer loop
      vertex  2.925663e+000  2.500000e+001  5.000000e+001
      vertex  4.969292e+000 -2.500000e+001  5.911305e+001
      vertex  2.925663e+000 -2.500000e+001  5.000000e+001
    endloop
  endfacet
  facet normal  0.000000e+000  0.000000e+000  9.999999e-001
    outer loop
      vertex -1.400000e+002 -2.500000e+001  5.000000e+001
      vertex -1.016008e+002 -2.500000e+001  5.000000e+001
      vertex -1.400000e+002  2.500000e+001  5.000000e+001
    endloop
  endfacet
  facet normal  -0.000000e+000  0.000000e+000  9.999999e-001
    outer loop
      vertex -1.400000e+002  2.500000e+001  5.000000e+001
      vertex -1.016008e+002 -2.500000e+001  5.000000e+001
      vertex -1.016008e+002  2.500000e+001  5.000000e+001
    endloop
  endfacet
  facet normal  0.000000e+000  0.000000e+000  1.000000e+000
    outer loop
      vertex  2.925663e+000 -2.500000e+001  5.000000e+001
      vertex  3.500000e+001 -2.500000e+001  5.000000e+001
      vertex  2.925663e+000  2.500000e+001  5.000000e+001
    endloop
  endfacet
  facet normal  -0.000000e+000  0.000000e+000  1.000000e+000
    outer loop
      vertex  2.925663e+000  2.500000e+001  5.000000e+001
      vertex  3.500000e+001 -2.500000e+001  5.000000e+001
      vertex  3.500000e+001  2.500000e+001  5.000000e+001
    endloop
  endfacet
  facet normal  -0.000000e+000  1.000000e+000  0.000000e+000
    outer loop
      vertex  0.000000e+000  2.500000e+001 -6.583124e+000
      vertex  0.000000e+000  2.500000e+001  2.658312e+001
      vertex  2.925663e+000  2.500000e+001  5.000000e+001
    endloop
  endfacet
  facet normal  0.000000e+000  1.000000e+000  0.000000e+000
    outer loop
      vertex  2.925663e+000  2.500000e+001  5.000000e+001
      vertex  0.000000e+000  2.500000e+001  2.658312e+001
      vertex  0.000000e+000  2.500000e+001  5.000000e+001
    endloop
  endfacet
  facet normal  0.000000e+000  1.000000e+000  -0.000000e+000
    outer loop
      vertex  3.500000e+001  2.500000e+001  5.000000e+001
      vertex  3.500000e+001  2.500000e+001 -5.000000e+001
      vertex  2.925663e+000  2.500000e+001  5.000000e+001
    endloop
  endfacet
  facet normal  0.000000e+000  1.000000e+000  0.000000e+000
    outer loop
      vertex  2.925663e+000  2.500000e+001  5.000000e+001
      vertex  3.500000e+001  2.500000e+001 -5.000000e+001
      vertex  0.000000e+000  2.500000e+001 -5.000000e+001
    endloop
  endfacet
  facet normal  0.000000e+000  9.999999e-001  0.000000e+000
    outer loop
      vertex  2.925663e+000  2.500000e+001  5.000000e+001
      vertex  0.000000e+000  2.500000e+001 -5.000000e+001
      vertex  0.000000e+000  2.500000e+001 -6.583124e+000
    endloop
  endfacet
  facet normal -1.000000e+000  0.000000e+000  0.000000e+000
    outer loop
      vertex  0.000000e+000  2.500000e+001  5.000000e+001
      vertex  0.000000e+000  2.500000e+001  2.658312e+001
      vertex  0.000000e+000  2.080201e+001  3.161658e+001
    endloop
  endfacet
  facet normal -1.000000e+000  0.000000e+000  0.000000e+000
    outer loop
      vertex  0.000000e+000  2.500000e+001  5.000000e+001
      vertex  0.000000e+000  2.080201e+001  3.161658e+001
      vertex  0.000000e+000  1.561109e+001  3.561823e+001
    endloop
  endfacet
  facet normal -1.000000e+000  0.000000e+000  0.000000e+000
    outer loop
      vertex  0.000000e+000  2.500000e+001  5.000000e+001
      vertex  0.000000e+000  1.561109e+001  3.561823e+001
      vertex  0.000000e+000  9.675024e+000  3.839708e+001
    endloop
  endfacet
  facet normal -9.999999e-001  0.000000e+000  0.000000e+000
    outer loop
      vertex  0.000000e+000  2.500000e+001  5.000000e+001
      vertex  0.000000e+000  9.675024e+000  3.839708e+001
      vertex  0.000000e+000  3.277150e+000  3.982047e+001
    endloop
  endfacet
  facet normal -1.000000e+000  0.000000e+000  0.000000e+000
    outer loop
      vertex  0.000000e+000  2.500000e+001  5.000000e+001
      vertex  0.000000e+000  3.277150e+000  3.982047e+001
      vertex  0.000000e+000 -3.277150e+000  3.982047e+001
    endloop
  endfacet
  facet normal -1.000000e+000  -0.000000e+000  0.000000e+000
    outer loop
      vertex  0.000000e+000  2.500000e+001  5.000000e+001
      vertex  0.000000e+000 -3.277150e+000  3.982047e+001
      vertex  0.000000e+000 -9.675024e+000  3.839708e+001
    endloop
  endfacet
  facet normal -1.000000e+000  -0.000000e+000  0.000000e+000
    outer loop
      vertex  0.000000e+000 -2.500000e+001  5.000000e+001
      vertex  0.000000e+000  2.500000e+001  5.000000e+001
      vertex  0.000000e+000 -9.675024e+000  3.839708e+001
    endloop
  endfacet
  facet normal -1.000000e+000  -0.000000e+000  0.000000e+000
    outer loop
      vertex  0.000000e+000 -2.500000e+001  5.000000e+001
      vertex  0.000000e+000 -9.675024e+000  3.839708e+001
      vertex  0.000000e+000 -1.561109e+001  3.561823e+001
    endloop
  endfacet
  facet normal -1.000000e+000  -0.000000e+000  0.000000e+000
    outer loop
      vertex  0.000000e+000 -2.500000e+001  5.000000e+001
      vertex  0.000000e+000 -1.561109e+001  3.561823e+001
      vertex  0.000000e+000 -2.080201e+001  3.161658e+001
    endloop
  endfacet
  facet normal -1.000000e+000  -0.000000e+000  0.000000e+000
    outer loop
      vertex  0.000000e+000 -2.500000e+001  5.000000e+001
      vertex  0.000000e+000 -2.080201e+001  3.161658e+001
      vertex  0.000000e+000 -2.500000e+001  2.658312e+001
    endloop
  endfacet
  facet normal  9.999999e-001  -0.000000e+000  0.000000e+000
    outer loop
      vertex -1.000000e+002  2.500000e+001  5.000000e+001
      vertex -1.000000e+002 -2.500000e+001  5.000000e+001
      vertex -1.000000e+002  3.277150e+000  3.982047e+001
    endloop
  endfacet
  facet normal  1.000000e+000  -0.000000e+000  0.000000e+000
    outer loop
      vertex -1.000000e+002  2.500000e+001  5.000000e+001
      vertex -1.000000e+002  3.277150e+000  3.982047e+001
      vertex -1.000000e+002  9.675024e+000  3.839708e+001
    endloop
  endfacet
  facet normal  1.000000e+000  -0.000000e+000  0.000000e+000
    outer loop
      vertex -1.000000e+002  2.500000e+001  5.000000e+001
      vertex -1.000000e+002  9.675024e+000  3.839708e+001
      vertex -1.000000e+002  1.561109e+001  3.561823e+001
    endloop
  endfacet
  facet normal  1.000000e+000  -0.000000e+000  0.000000e+000
    outer loop
      vertex -1.000000e+002  2.500000e+001  5.000000e+001
      vertex -1.000000e+002  1.561109e+001  3.561823e+001
      vertex -1.000000e+002  2.080201e+001  3.161658e+001
    endloop
  endfacet
  facet normal  1.000000e+000  -0.000000e+000  0.000000e+000
    outer loop
      vertex -1.000000e+002  2.500000e+001  5.000000e+001
      vertex -1.000000e+002  2.080201e+001  3.161658e+001
      vertex -1.000000e+002  2.500000e+001  2.658312e+001
    endloop
  endfacet
  facet normal  1.000000e+000  0.000000e+000  0.000000e+000
    outer loop
      vertex -1.000000e+002 -2.500000e+001  5.000000e+001
      vertex -1.000000e+002 -2.500000e+001  2.658312e+001
      vertex -1.000000e+002 -2.080201e+001  3.161658e+001
    endloop
  endfacet
  facet normal  1.000000e+000  0.000000e+000  -0.000000e+000
    outer loop
      vertex -1.000000e+002 -2.500000e+001  5.000000e+001
      vertex -1.000000e+002 -2.080201e+001  3.161658e+001
      vertex -1.000000e+002 -1.561109e+001  3.561823e+001
    endloop
  endfacet
  facet normal  1.000000e+000  0.000000e+000  -0.000000e+000
    outer loop
      vertex -1.000000e+002 -2.500000e+001  5.000000e+001
      vertex -1.000000e+002 -1.561109e+001  3.561823e+001
      vertex -1.000000e+002 -9.675024e+000  3.839708e+001
    endloop
  endfacet
  facet normal  9.999999e-001  0.000000e+000  -0.000000e+000
    outer loop
      vertex -1.000000e+002 -2.500000e+001  5.000000e+001
      vertex -1.000000e+002 -9.675024e+000  3.839708e+001
      vertex -1.000000e+002 -3.277150e+000  3.982047e+001
    endloop
  endfacet
  facet normal  1.000000e+000  0.000000e+000  -0.000000e+000
    outer loop
      vertex -1.000000e+002 -2.500000e+001  5.000000e+001
      vertex -1.000000e+002 -3.277150e+000  3.982047e+001
      vertex -1.000000e+002  3.277150e+000  3.982047e+001
    endloop
  endfacet
  facet normal  -0.000000e+000  9.999999e-001  0.000000e+000
    outer loop
      vertex -1.400000e+002  2.500000e+001 -5.000000e+001
      vertex -1.400000e+002  2.500000e+001  5.000000e+001
      vertex -1.016008e+002  2.500000e+001  5.000000e+001
    endloop
  endfacet
  facet normal  -0.000000e+000  1.000000e+000  0.000000e+000
    outer loop
      vertex -1.400000e+002  2.500000e+001 -5.000000e+001
      vertex -1.016008e+002  2.500000e+001  5.000000e+001
      vertex -1.000000e+002  2.500000e+001  5.000000e+001
    endloop
  endfacet
  facet normal  0.000000e+000  1.000000e+000  0.000000e+000
    outer loop
      vertex -1.400000e+002  2.500000e+001 -5.000000e+001
      vertex -1.000000e+002  2.500000e+001  5.000000e+001
      vertex -1.000000e+002  2.500000e+001  2.658312e+001
    endloop
  endfacet
  facet normal  0.000000e+000  1.000000e+000  0.000000e+000
    outer loop
      vertex -1.400000e+002  2.500000e+001 -5.000000e+001
      vertex -1.000000e+002  2.500000e+001  2.658312e+001
      vertex -1.000000e+002  2.500000e+001 -6.583124e+000
    endloop
  endfacet
  facet normal  0.000000e+000  9.999999e-001  0.000000e+000
    outer loop
      vertex -1.400000e+002  2.500000e+001 -5.000000e+001
      vertex -1.000000e+002  2.500000e+001 -6.583124e+000
      vertex -1.000000e+002  2.500000e+001 -5.000000e+001
    endloop
  endfacet
  facet normal  0.000000e+000  1.000000e+000  0.000000e+000
    outer loop
      vertex -4.933755e+001  3.500000e+001  5.000000e+001
      vertex  4.969292e+000  3.500000e+001  5.911305e+001
      vertex  2.925663e+000  3.500000e+001  5.000000e+001
    endloop
  endfacet
  facet normal  0.000000e+000  1.000000e+000  0.000000e+000
    outer loop
      vertex -4.933755e+001  3.500000e+001  1.213136e+002
      vertex -4.003213e+001  3.500000e+001  1.205179e+002
      vertex -5.864297e+001  3.500000e+001  1.205179e+002
    endloop
  endfacet
  facet normal  -0.000000e+000  1.000000e+000  0.000000e+000
    outer loop
      vertex -5.864297e+001  3.500000e+001  1.205179e+002
      vertex -4.003213e+001  3.500000e+001  1.205179e+002
      vertex -3.099691e+001  3.500000e+001  1.181538e+002
    endloop
  endfacet
  facet normal  0.000000e+000  1.000000e+000  0.000000e+000
    outer loop
      vertex -5.864297e+001  3.500000e+001  1.205179e+002
      vertex -3.099691e+001  3.500000e+001  1.181538e+002
      vertex -6.767818e+001  3.500000e+001  1.181538e+002
    endloop
  endfacet
  facet normal  -0.000000e+000  9.999999e-001  0.000000e+000
    outer loop
      vertex -6.767818e+001  3.500000e+001  1.181538e+002
      vertex -3.099691e+001  3.500000e+001  1.181538e+002
      vertex -2.249425e+001  3.500000e+001  1.142900e+002
    endloop
  endfacet
  facet normal  0.000000e+000  1.000000e+000  0.000000e+000
    outer loop
      vertex -6.767818e+001  3.500000e+001  1.181538e+002
      vertex -2.249425e+001  3.500000e+001  1.142900e+002
      vertex -7.618085e+001  3.500000e+001  1.142900e+002
    endloop
  endfacet
  facet normal  -0.000000e+000  1.000000e+000  0.000000e+000
    outer loop
      vertex -7.618085e+001  3.500000e+001  1.142900e+002
      vertex -2.249425e+001  3.500000e+001  1.142900e+002
      vertex -1.477104e+001  3.500000e+001  1.090387e+002
    endloop
  endfacet
  facet normal  0.000000e+000  1.000000e+000  0.000000e+000
    outer loop
      vertex -7.618085e+001  3.500000e+001  1.142900e+002
      vertex -1.477104e+001  3.500000e+001  1.090387e+002
      vertex -8.390406e+001  3.500000e+001  1.090387e+002
    endloop
  endfacet
  facet normal  -0.000000e+000  1.000000e+000  0.000000e+000
    outer loop
      vertex -8.390406e+001  3.500000e+001  1.090387e+002
      vertex -1.477104e+001  3.500000e+001  1.090387e+002
      vertex -8.051536e+000  3.500000e+001  1.025524e+002
    endloop
  endfacet
  facet normal  0.000000e+000  1.000000e+000  0.000000e+000
    outer loop
      vertex -8.390406e+001  3.500000e+001  1.090387e+002
      vertex -8.051536e+000  3.500000e+001  1.025524e+002
      vertex -9.062356e+001  3.500000e+001  1.025524e+002
    endloop
  endfacet
  facet normal  -0.000000e+000  1.000000e+000  0.000000e+000
    outer loop
      vertex -9.062356e+001  3.500000e+001  1.025524e+002
      vertex -8.051536e+000  3.500000e+001  1.025524e+002
      vertex -2.530861e+000  3.500000e+001  9.501937e+001
    endloop
  endfacet
  facet normal  0.000000e+000  1.000000e+000  0.000000e+000
    outer loop
      vertex -9.062356e+001  3.500000e+001  1.025524e+002
      vertex -2.530861e+000  3.500000e+001  9.501937e+001
      vertex -9.614423e+001  3.500000e+001  9.501937e+001
    endloop
  endfacet
  facet normal  -0.000000e+000  1.000000e+000  0.000000e+000
    outer loop
      vertex -9.614423e+001  3.500000e+001  9.501937e+001
      vertex -2.530861e+000  3.500000e+001  9.501937e+001
      vertex  1.630686e+000  3.500000e+001  8.665842e+001
    endloop
  endfacet
  facet normal  0.000000e+000  1.000000e+000  0.000000e+000
    outer loop
      vertex -9.614423e+001  3.500000e+001  9.501937e+001
      vertex  1.630686e+000  3.500000e+001  8.665842e+001
      vertex -1.003058e+002  3.500000e+001  8.665842e+001
    endloop
  endfacet
  facet normal  -0.000000e+000  1.000000e+000  0.000000e+000
    outer loop
      vertex -1.003058e+002  3.500000e+001  8.665842e+001
      vertex  1.630686e+000  3.500000e+001  8.665842e+001
      vertex  4.312264e+000  3.500000e+001  7.771229e+001
    endloop
  endfacet
  facet normal  0.000000e+000  1.000000e+000  0.000000e+000
    outer loop
      vertex -1.003058e+002  3.500000e+001  8.665842e+001
      vertex  4.312264e+000  3.500000e+001  7.771229e+001
      vertex -1.029874e+002  3.500000e+001  7.771229e+001
    endloop
  endfacet
  facet normal  -0.000000e+000  1.000000e+000  0.000000e+000
    outer loop
      vertex -1.029874e+002  3.500000e+001  7.771229e+001
      vertex  4.312264e+000  3.500000e+001  7.771229e+001
      vertex  5.436010e+000  3.500000e+001  6.844076e+001
    endloop
  endfacet
  facet normal  0.000000e+000  1.000000e+000  0.000000e+000
    outer loop
      vertex -1.029874e+002  3.500000e+001  7.771229e+001
      vertex  5.436010e+000  3.500000e+001  6.844076e+001
      vertex -1.041111e+002  3.500000e+001  6.844076e+001
    endloop
  endfacet
  facet normal  -0.000000e+000  9.999999e-001  0.000000e+000
    outer loop
      vertex -1.041111e+002  3.500000e+001  6.844076e+001
      vertex  5.436010e+000  3.500000e+001  6.844076e+001
      vertex  4.969292e+000  3.500000e+001  5.911305e+001
    endloop
  endfacet
  facet normal  0.000000e+000  1.000000e+000  0.000000e+000
    outer loop
      vertex -1.041111e+002  3.500000e+001  6.844076e+001
      vertex  4.969292e+000  3.500000e+001  5.911305e+001
      vertex -1.036444e+002  3.500000e+001  5.911305e+001
    endloop
  endfacet
  facet normal  -0.000000e+000  1.000000e+000  0.000000e+000
    outer loop
      vertex -1.036444e+002  3.500000e+001  5.911305e+001
      vertex  4.969292e+000  3.500000e+001  5.911305e+001
      vertex -4.933755e+001  3.500000e+001  5.000000e+001
    endloop
  endfacet
  facet normal  0.000000e+000  9.999999e-001  0.000000e+000
    outer loop
      vertex -1.036444e+002  3.500000e+001  5.911305e+001
      vertex -4.933755e+001  3.500000e+001  5.000000e+001
      vertex -1.016008e+002  3.500000e+001  5.000000e+001
    endloop
  endfacet
  facet normal -1.000000e+000  0.000000e+000  0.000000e+000
    outer loop
      vertex -1.000000e+002 -2.500000e+001 -6.583124e+000
      vertex -1.000000e+002 -2.774206e+001 -1.418333e+000
      vertex -1.000000e+002 -2.943010e+001  4.180279e+000
    endloop
  endfacet
  facet normal -1.000000e+000  0.000000e+000  0.000000e+000
    outer loop
      vertex -1.000000e+002 -2.500000e+001 -6.583124e+000
      vertex -1.000000e+002 -2.943010e+001  4.180279e+000
      vertex -1.000000e+002 -3.000000e+001  1.000000e+001
    endloop
  endfacet
  facet normal -1.000000e+000  0.000000e+000  0.000000e+000
    outer loop
      vertex -1.000000e+002 -2.500000e+001 -6.583124e+000
      vertex -1.000000e+002 -3.000000e+001  1.000000e+001
      vertex -1.000000e+002 -2.943010e+001  1.581972e+001
    endloop
  endfacet
  facet normal -1.000000e+000  0.000000e+000  0.000000e+000
    outer loop
      vertex -1.000000e+002 -2.500000e+001 -6.583124e+000
      vertex -1.000000e+002 -2.943010e+001  1.581972e+001
      vertex -1.000000e+002 -2.774206e+001  2.141833e+001
    endloop
  endfacet
  facet normal -1.000000e+000  0.000000e+000  0.000000e+000
    outer loop
      vertex -1.000000e+002 -2.500000e+001 -6.583124e+000
      vertex -1.000000e+002 -2.774206e+001  2.141833e+001
      vertex -1.000000e+002 -2.500000e+001  2.658312e+001
    endloop
  endfacet
  facet normal -1.000000e+000  0.000000e+000  0.000000e+000
    outer loop
      vertex -1.000000e+002  2.500000e+001 -6.583124e+000
      vertex -1.000000e+002  2.500000e+001  2.658312e+001
      vertex -1.000000e+002  2.774206e+001  2.141833e+001
    endloop
  endfacet
  facet normal -1.000000e+000  0.000000e+000  -0.000000e+000
    outer loop
      vertex -1.000000e+002  2.500000e+001 -6.583124e+000
      vertex -1.000000e+002  2.774206e+001  2.141833e+001
      vertex -1.000000e+002  2.943010e+001  1.581972e+001
    endloop
  endfacet
  facet normal -1.000000e+000  0.000000e+000  -0.000000e+000
    outer loop
      vertex -1.000000e+002  2.500000e+001 -6.583124e+000
      vertex -1.000000e+002  2.943010e+001  1.581972e+001
      vertex -1.000000e+002  3.000000e+001  1.000000e+001
    endloop
  endfacet
  facet normal -1.000000e+000  0.000000e+000  0.000000e+000
    outer loop
      vertex -1.000000e+002  2.500000e+001 -6.583124e+000
      vertex -1.000000e+002  3.000000e+001  1.000000e+001
      vertex -1.000000e+002  2.943010e+001  4.180279e+000
    endloop
  endfacet
  facet normal -1.000000e+000  0.000000e+000  0.000000e+000
    outer loop
      vertex -1.000000e+002  2.500000e+001 -6.583124e+000
      vertex -1.000000e+002  2.943010e+001  4.180279e+000
      vertex -1.000000e+002  2.774206e+001 -1.418333e+000
    endloop
  endfacet
  facet normal  9.999999e-001  0.000000e+000  0.000000e+000
    outer loop
      vertex -1.000000e+002 -2.500000e+001 -5.000000e+001
      vertex -1.000000e+002  2.500000e+001 -5.000000e+001
      vertex -1.000000e+002  3.277150e+000 -1.982047e+001
    endloop
  endfacet
  facet normal  1.000000e+000  0.000000e+000  0.000000e+000
    outer loop
      vertex -1.000000e+002 -2.500000e+001 -5.000000e+001
      vertex -1.000000e+002  3.277150e+000 -1.982047e+001
      vertex -1.000000e+002 -3.277150e+000 -1.982047e+001
    endloop
  endfacet
  facet normal  1.000000e+000  0.000000e+000  0.000000e+000
    outer loop
      vertex -1.000000e+002 -2.500000e+001 -5.000000e+001
      vertex -1.000000e+002 -3.277150e+000 -1.982047e+001
      vertex -1.000000e+002 -9.675024e+000 -1.839708e+001
    endloop
  endfacet
  facet normal  1.000000e+000  0.000000e+000  0.000000e+000
    outer loop
      vertex -1.000000e+002 -2.500000e+001 -5.000000e+001
      vertex -1.000000e+002 -9.675024e+000 -1.839708e+001
      vertex -1.000000e+002 -1.561109e+001 -1.561823e+001
    endloop
  endfacet
  facet normal  9.999999e-001  0.000000e+000  0.000000e+000
    outer loop
      vertex -1.000000e+002 -2.500000e+001 -5.000000e+001
      vertex -1.000000e+002 -1.561109e+001 -1.561823e+001
      vertex -1.000000e+002 -2.080201e+001 -1.161658e+001
    endloop
  endfacet
  facet normal  1.000000e+000  0.000000e+000  0.000000e+000
    outer loop
      vertex -1.000000e+002 -2.500000e+001 -5.000000e+001
      vertex -1.000000e+002 -2.080201e+001 -1.161658e+001
      vertex -1.000000e+002 -2.500000e+001 -6.583124e+000
    endloop
  endfacet
  facet normal  1.000000e+000  0.000000e+000  0.000000e+000
    outer loop
      vertex -1.000000e+002  2.500000e+001 -5.000000e+001
      vertex -1.000000e+002  2.500000e+001 -6.583124e+000
      vertex -1.000000e+002  2.080201e+001 -1.161658e+001
    endloop
  endfacet
  facet normal  1.000000e+000  0.000000e+000  0.000000e+000
    outer loop
      vertex -1.000000e+002  2.500000e+001 -5.000000e+001
      vertex -1.000000e+002  2.080201e+001 -1.161658e+001
      vertex -1.000000e+002  1.561109e+001 -1.561823e+001
    endloop
  endfacet
  facet normal  1.000000e+000  0.000000e+000  0.000000e+000
    outer loop
      vertex -1.000000e+002  2.500000e+001 -5.000000e+001
      vertex -1.000000e+002  1.561109e+001 -1.561823e+001
      vertex -1.000000e+002  9.675024e+000 -1.839708e+001
    endloop
  endfacet
  facet normal  1.000000e+000  0.000000e+000  0.000000e+000
    outer loop
      vertex -1.000000e+002  2.500000e+001 -5.000000e+001
      vertex -1.000000e+002  9.675024e+000 -1.839708e+001
      vertex -1.000000e+002  3.277150e+000 -1.982047e+001
    endloop
  endfacet
  facet normal  0.000000e+000 -9.952396e-001 -9.745925e-002
    outer loop
      vertex  0.000000e+000 -3.000000e+001  1.000000e+001
      vertex -1.000000e+002 -3.000000e+001  1.000000e+001
      vertex  0.000000e+000 -2.943010e+001  4.180279e+000
    endloop
  endfacet
  facet normal  -0.000000e+000 -9.952396e-001 -9.745925e-002
    outer loop
      vertex  0.000000e+000 -2.943010e+001  4.180279e+000
      vertex -1.000000e+002 -3.000000e+001  1.000000e+001
      vertex -1.000000e+002 -2.943010e+001  4.180279e+000
    endloop
  endfacet
  facet normal  0.000000e+000 -9.574271e-001 -2.886752e-001
    outer loop
      vertex  0.000000e+000 -2.943010e+001  4.180279e+000
      vertex -1.000000e+002 -2.943010e+001  4.180279e+000
      vertex  0.000000e+000 -2.774206e+001 -1.418333e+000
    endloop
  endfacet
  facet normal  -0.000000e+000 -9.574271e-001 -2.886752e-001
    outer loop
      vertex  0.000000e+000 -2.774206e+001 -1.418333e+000
      vertex -1.000000e+002 -2.943010e+001  4.180279e+000
      vertex -1.000000e+002 -2.774206e+001 -1.418333e+000
    endloop
  endfacet
  facet normal  0.000000e+000 -8.832389e-001 -4.689232e-001
    outer loop
      vertex  0.000000e+000 -2.774206e+001 -1.418333e+000
      vertex -1.000000e+002 -2.774206e+001 -1.418333e+000
      vertex  0.000000e+000 -2.500000e+001 -6.583124e+000
    endloop
  endfacet
  facet normal  -0.000000e+000 -8.832389e-001 -4.689232e-001
    outer loop
      vertex  0.000000e+000 -2.500000e+001 -6.583124e+000
      vertex -1.000000e+002 -2.774206e+001 -1.418333e+000
      vertex -1.000000e+002 -2.500000e+001 -6.583124e+000
    endloop
  endfacet
  facet normal  0.000000e+000 -7.679625e-001 -6.404948e-001
    outer loop
      vertex  0.000000e+000 -2.500000e+001 -6.583124e+000
      vertex -1.000000e+002 -2.500000e+001 -6.583124e+000
      vertex  0.000000e+000 -2.080201e+001 -1.161658e+001
    endloop
  endfacet
  facet normal  -0.000000e+000 -7.679625e-001 -6.404948e-001
    outer loop
      vertex  0.000000e+000 -2.080201e+001 -1.161658e+001
      vertex -1.000000e+002 -2.500000e+001 -6.583124e+000
      vertex -1.000000e+002 -2.080201e+001 -1.161658e+001
    endloop
  endfacet
  facet normal  0.000000e+000 -6.105387e-001 -7.919863e-001
    outer loop
      vertex  0.000000e+000 -2.080201e+001 -1.161658e+001
      vertex -1.000000e+002 -2.080201e+001 -1.161658e+001
      vertex  0.000000e+000 -1.561109e+001 -1.561823e+001
    endloop
  endfacet
  facet normal  -0.000000e+000 -6.105387e-001 -7.919863e-001
    outer loop
      vertex  0.000000e+000 -1.561109e+001 -1.561823e+001
      vertex -1.000000e+002 -2.080201e+001 -1.161658e+001
      vertex -1.000000e+002 -1.561109e+001 -1.561823e+001
    endloop
  endfacet
  facet normal  0.000000e+000 -4.239724e-001 -9.056751e-001
    outer loop
      vertex  0.000000e+000 -1.561109e+001 -1.561823e+001
      vertex -1.000000e+002 -1.561109e+001 -1.561823e+001
      vertex  0.000000e+000 -9.675024e+000 -1.839708e+001
    endloop
  endfacet
  facet normal  -0.000000e+000 -4.239724e-001 -9.056751e-001
    outer loop
      vertex  0.000000e+000 -9.675024e+000 -1.839708e+001
      vertex -1.000000e+002 -1.561109e+001 -1.561823e+001
      vertex -1.000000e+002 -9.675024e+000 -1.839708e+001
    endloop
  endfacet
  facet normal  0.000000e+000 -2.171691e-001 -9.761340e-001
    outer loop
      vertex  0.000000e+000 -9.675024e+000 -1.839708e+001
      vertex -1.000000e+002 -9.675024e+000 -1.839708e+001
      vertex  0.000000e+000 -3.277150e+000 -1.982047e+001
    endloop
  endfacet
  facet normal  -0.000000e+000 -2.171691e-001 -9.761340e-001
    outer loop
      vertex  0.000000e+000 -3.277150e+000 -1.982047e+001
      vertex -1.000000e+002 -9.675024e+000 -1.839708e+001
      vertex -1.000000e+002 -3.277150e+000 -1.982047e+001
    endloop
  endfacet
  facet normal  0.000000e+000  0.000000e+000 -1.000000e+000
    outer loop
      vertex  0.000000e+000 -3.277150e+000 -1.982047e+001
      vertex -1.000000e+002 -3.277150e+000 -1.982047e+001
      vertex  0.000000e+000  3.277150e+000 -1.982047e+001
    endloop
  endfacet
  facet normal  -0.000000e+000  0.000000e+000 -1.000000e+000
    outer loop
      vertex  0.000000e+000  3.277150e+000 -1.982047e+001
      vertex -1.000000e+002 -3.277150e+000 -1.982047e+001
      vertex -1.000000e+002  3.277150e+000 -1.982047e+001
    endloop
  endfacet
  facet normal  0.000000e+000  2.171691e-001 -9.761340e-001
    outer loop
      vertex  0.000000e+000  3.277150e+000 -1.982047e+001
      vertex -1.000000e+002  3.277150e+000 -1.982047e+001
      vertex  0.000000e+000  9.675024e+000 -1.839708e+001
    endloop
  endfacet
  facet normal  0.000000e+000  2.171691e-001 -9.761340e-001
    outer loop
      vertex  0.000000e+000  9.675024e+000 -1.839708e+001
      vertex -1.000000e+002  3.277150e+000 -1.982047e+001
      vertex -1.000000e+002  9.675024e+000 -1.839708e+001
    endloop
  endfacet
  facet normal  0.000000e+000  4.239724e-001 -9.056751e-001
    outer loop
      vertex  0.000000e+000  9.675024e+000 -1.839708e+001
      vertex -1.000000e+002  9.675024e+000 -1.839708e+001
      vertex  0.000000e+000  1.561109e+001 -1.561823e+001
    endloop
  endfacet
  facet normal  0.000000e+000  4.239724e-001 -9.056751e-001
    outer loop
      vertex  0.000000e+000  1.561109e+001 -1.561823e+001
      vertex -1.000000e+002  9.675024e+000 -1.839708e+001
      vertex -1.000000e+002  1.561109e+001 -1.561823e+001
    endloop
  endfacet
  facet normal  0.000000e+000  6.105387e-001 -7.919863e-001
    outer loop
      vertex  0.000000e+000  1.561109e+001 -1.561823e+001
      vertex -1.000000e+002  1.561109e+001 -1.561823e+001
      vertex  0.000000e+000  2.080201e+001 -1.161658e+001
    endloop
  endfacet
  facet normal  0.000000e+000  6.105387e-001 -7.919863e-001
    outer loop
      vertex  0.000000e+000  2.080201e+001 -1.161658e+001
      vertex -1.000000e+002  1.561109e+001 -1.561823e+001
      vertex -1.000000e+002  2.080201e+001 -1.161658e+001
    endloop
  endfacet
  facet normal  0.000000e+000  7.679625e-001 -6.404948e-001
    outer loop
      vertex  0.000000e+000  2.080201e+001 -1.161658e+001
      vertex -1.000000e+002  2.080201e+001 -1.161658e+001
      vertex  0.000000e+000  2.500000e+001 -6.583124e+000
    endloop
  endfacet
  facet normal  0.000000e+000  7.679625e-001 -6.404948e-001
    outer loop
      vertex  0.000000e+000  2.500000e+001 -6.583124e+000
      vertex -1.000000e+002  2.080201e+001 -1.161658e+001
      vertex -1.000000e+002  2.500000e+001 -6.583124e+000
    endloop
  endfacet
  facet normal  0.000000e+000  8.832389e-001 -4.689232e-001
    outer loop
      vertex  0.000000e+000  2.500000e+001 -6.583124e+000
      vertex -1.000000e+002  2.500000e+001 -6.583124e+000
      vertex  0.000000e+000  2.774206e+001 -1.418333e+000
    endloop
  endfacet
  facet normal  0.000000e+000  8.832389e-001 -4.689232e-001
    outer loop
      vertex  0.000000e+000  2.774206e+001 -1.418333e+000
      vertex -1.000000e+002  2.500000e+001 -6.583124e+000
      vertex -1.000000e+002  2.774206e+001 -1.418333e+000
    endloop
  endfacet
  facet normal  0.000000e+000  9.574271e-001 -2.886752e-001
    outer loop
      vertex  0.000000e+000  2.774206e+001 -1.418333e+000
      vertex -1.000000e+002  2.774206e+001 -1.418333e+000
      vertex  0.000000e+000  2.943010e+001  4.180279e+000
    endloop
  endfacet
  facet normal  0.000000e+000  9.574271e-001 -2.886752e-001
    outer loop
      vertex  0.000000e+000  2.943010e+001  4.180279e+000
      vertex -1.000000e+002  2.774206e+001 -1.418333e+000
      vertex -1.000000e+002  2.943010e+001  4.180279e+000
    endloop
  endfacet
  facet normal  0.000000e+000  9.952396e-001 -9.745925e-002
    outer loop
      vertex  0.000000e+000  2.943010e+001  4.180279e+000
      vertex -1.000000e+002  2.943010e+001  4.180279e+000
      vertex  0.000000e+000  3.000000e+001  1.000000e+001
    endloop
  endfacet
  facet normal  0.000000e+000  9.952396e-001 -9.745925e-002
    outer loop
      vertex  0.000000e+000  3.000000e+001  1.000000e+001
      vertex -1.000000e+002  2.943010e+001  4.180279e+000
      vertex -1.000000e+002  3.000000e+001  1.000000e+001
    endloop
  endfacet
  facet normal  -0.000000e+000  9.952396e-001  9.745925e-002
    outer loop
      vertex  0.000000e+000  3.000000e+001  1.000000e+001
      vertex -1.000000e+002  3.000000e+001  1.000000e+001
      vertex  0.000000e+000  2.943010e+001  1.581972e+001
    endloop
  endfacet
  facet normal  0.000000e+000  9.952396e-001  9.745925e-002
    outer loop
      vertex  0.000000e+000  2.943010e+001  1.581972e+001
      vertex -1.000000e+002  3.000000e+001  1.000000e+001
      vertex -1.000000e+002  2.943010e+001  1.581972e+001
    endloop
  endfacet
  facet normal  -0.000000e+000  9.574270e-001  2.886752e-001
    outer loop
      vertex  0.000000e+000  2.943010e+001  1.581972e+001
      vertex -1.000000e+002  2.943010e+001  1.581972e+001
      vertex  0.000000e+000  2.774206e+001  2.141833e+001
    endloop
  endfacet
  facet normal  0.000000e+000  9.574270e-001  2.886752e-001
    outer loop
      vertex  0.000000e+000  2.774206e+001  2.141833e+001
      vertex -1.000000e+002  2.943010e+001  1.581972e+001
      vertex -1.000000e+002  2.774206e+001  2.141833e+001
    endloop
  endfacet
  facet normal  -0.000000e+000  8.832389e-001  4.689232e-001
    outer loop
      vertex  0.000000e+000  2.774206e+001  2.141833e+001
      vertex -1.000000e+002  2.774206e+001  2.141833e+001
      vertex  0.000000e+000  2.500000e+001  2.658312e+001
    endloop
  endfacet
  facet normal  0.000000e+000  8.832389e-001  4.689232e-001
    outer loop
      vertex  0.000000e+000  2.500000e+001  2.658312e+001
      vertex -1.000000e+002  2.774206e+001  2.141833e+001
      vertex -1.000000e+002  2.500000e+001  2.658312e+001
    endloop
  endfacet
  facet normal  -0.000000e+000  7.679625e-001  6.404947e-001
    outer loop
      vertex  0.000000e+000  2.500000e+001  2.658312e+001
      vertex -1.000000e+002  2.500000e+001  2.658312e+001
      vertex  0.000000e+000  2.080201e+001  3.161658e+001
    endloop
  endfacet
  facet normal  0.000000e+000  7.679625e-001  6.404947e-001
    outer loop
      vertex  0.000000e+000  2.080201e+001  3.161658e+001
      vertex -1.000000e+002  2.500000e+001  2.658312e+001
      vertex -1.000000e+002  2.080201e+001  3.161658e+001
    endloop
  endfacet
  facet normal  -0.000000e+000  6.105385e-001  7.919866e-001
    outer loop
      vertex  0.000000e+000  2.080201e+001  3.161658e+001
      vertex -1.000000e+002  2.080201e+001  3.161658e+001
      vertex  0.000000e+000  1.561109e+001  3.561823e+001
    endloop
  endfacet
  facet normal  0.000000e+000  6.105385e-001  7.919866e-001
    outer loop
      vertex  0.000000e+000  1.561109e+001  3.561823e+001
      vertex -1.000000e+002  2.080201e+001  3.161658e+001
      vertex -1.000000e+002  1.561109e+001  3.561823e+001
    endloop
  endfacet
  facet normal  -0.000000e+000  4.239725e-001  9.056750e-001
    outer loop
      vertex  0.000000e+000  1.561109e+001  3.561823e+001
      vertex -1.000000e+002  1.561109e+001  3.561823e+001
      vertex  0.000000e+000  9.675024e+000  3.839708e+001
    endloop
  endfacet
  facet normal  0.000000e+000  4.239725e-001  9.056750e-001
    outer loop
      vertex  0.000000e+000  9.675024e+000  3.839708e+001
      vertex -1.000000e+002  1.561109e+001  3.561823e+001
      vertex -1.000000e+002  9.675024e+000  3.839708e+001
    endloop
  endfacet
  facet normal  -0.000000e+000  2.171694e-001  9.761340e-001
    outer loop
      vertex  0.000000e+000  9.675024e+000  3.839708e+001
      vertex -1.000000e+002  9.675024e+000  3.839708e+001
      vertex  0.000000e+000  3.277150e+000  3.982047e+001
    endloop
  endfacet
  facet normal  0.000000e+000  2.171694e-001  9.761340e-001
    outer loop
      vertex  0.000000e+000  3.277150e+000  3.982047e+001
      vertex -1.000000e+002  9.675024e+000  3.839708e+001
      vertex -1.000000e+002  3.277150e+000  3.982047e+001
    endloop
  endfacet
  facet normal  -0.000000e+000  0.000000e+000  1.000000e+000
    outer loop
      vertex  0.000000e+000  3.277150e+000  3.982047e+001
      vertex -1.000000e+002  3.277150e+000  3.982047e+001
      vertex  0.000000e+000 -3.277150e+000  3.982047e+001
    endloop
  endfacet
  facet normal  0.000000e+000  0.000000e+000  1.000000e+000
    outer loop
      vertex  0.000000e+000 -3.277150e+000  3.982047e+001
      vertex -1.000000e+002  3.277150e+000  3.982047e+001
      vertex -1.000000e+002 -3.277150e+000  3.982047e+001
    endloop
  endfacet
  facet normal  0.000000e+000 -2.171694e-001  9.761340e-001
    outer loop
      vertex  0.000000e+000 -3.277150e+000  3.982047e+001
      vertex -1.000000e+002 -3.277150e+000  3.982047e+001
      vertex  0.000000e+000 -9.675024e+000  3.839708e+001
    endloop
  endfacet
  facet normal  0.000000e+000 -2.171694e-001  9.761340e-001
    outer loop
      vertex  0.000000e+000 -9.675024e+000  3.839708e+001
      vertex -1.000000e+002 -3.277150e+000  3.982047e+001
      vertex -1.000000e+002 -9.675024e+000  3.839708e+001
    endloop
  endfacet
  facet normal  0.000000e+000 -4.239725e-001  9.056750e-001
    outer loop
      vertex  0.000000e+000 -9.675024e+000  3.839708e+001
      vertex -1.000000e+002 -9.675024e+000  3.839708e+001
      vertex  0.000000e+000 -1.561109e+001  3.561823e+001
    endloop
  endfacet
  facet normal  0.000000e+000 -4.239725e-001  9.056750e-001
    outer loop
      vertex  0.000000e+000 -1.561109e+001  3.561823e+001
      vertex -1.000000e+002 -9.675024e+000  3.839708e+001
      vertex -1.000000e+002 -1.561109e+001  3.561823e+001
    endloop
  endfacet
  facet normal  0.000000e+000 -6.105385e-001  7.919866e-001
    outer loop
      vertex  0.000000e+000 -1.561109e+001  3.561823e+001
      vertex -1.000000e+002 -1.561109e+001  3.561823e+001
      vertex  0.000000e+000 -2.080201e+001  3.161658e+001
    endloop
  endfacet
  facet normal  0.000000e+000 -6.105385e-001  7.919866e-001
    outer loop
      vertex  0.000000e+000 -2.080201e+001  3.161658e+001
      vertex -1.000000e+002 -1.561109e+001  3.561823e+001
      vertex -1.000000e+002 -2.080201e+001  3.161658e+001
    endloop
  endfacet
  facet normal  0.000000e+000 -7.679625e-001  6.404947e-001
    outer loop
      vertex  0.000000e+000 -2.080201e+001  3.161658e+001
      vertex -1.000000e+002 -2.080201e+001  3.161658e+001
      vertex  0.000000e+000 -2.500000e+001  2.658312e+001
    endloop
  endfacet
  facet normal  0.000000e+000 -7.679625e-001  6.404947e-001
    outer loop
      vertex  0.000000e+000 -2.500000e+001  2.658312e+001
      vertex -1.000000e+002 -2.080201e+001  3.161658e+001
      vertex -1.000000e+002 -2.500000e+001  2.658312e+001
    endloop
  endfacet
  facet normal  0.000000e+000 -8.832389e-001  4.689232e-001
    outer loop
      vertex  0.000000e+000 -2.500000e+001  2.658312e+001
      vertex -1.000000e+002 -2.500000e+001  2.658312e+001
      vertex  0.000000e+000 -2.774206e+001  2.141833e+001
    endloop
  endfacet
  facet normal  0.000000e+000 -8.832389e-001  4.689232e-001
    outer loop
      vertex  0.000000e+000 -2.774206e+001  2.141833e+001
      vertex -1.000000e+002 -2.500000e+001  2.658312e+001
      vertex -1.000000e+002 -2.774206e+001  2.141833e+001
    endloop
  endfacet
  facet normal  0.000000e+000 -9.574270e-001  2.886752e-001
    outer loop
      vertex  0.000000e+000 -2.774206e+001  2.141833e+001
      vertex -1.000000e+002 -2.774206e+001  2.141833e+001
      vertex  0.000000e+000 -2.943010e+001  1.581972e+001
    endloop
  endfacet
  facet normal  0.000000e+000 -9.574270e-001  2.886752e-001
    outer loop
      vertex  0.000000e+000 -2.943010e+001  1.581972e+001
      vertex -1.000000e+002 -2.774206e+001  2.141833e+001
      vertex -1.000000e+002 -2.943010e+001  1.581972e+001
    endloop
  endfacet
  facet normal  0.000000e+000 -9.952396e-001  9.745925e-002
    outer loop
      vertex  0.000000e+000 -2.943010e+001  1.581972e+001
      vertex -1.000000e+002 -2.943010e+001  1.581972e+001
      vertex  0.000000e+000 -3.000000e+001  1.000000e+001
    endloop
  endfacet
  facet normal  0.000000e+000 -9.952396e-001  9.745925e-002
    outer loop
      vertex  0.000000e+000 -3.000000e+001  1.000000e+001
      vertex -1.000000e+002 -2.943010e+001  1.581972e+001
      vertex -1.000000e+002 -3.000000e+001  1.000000e+001
    endloop
  endfacet
  facet normal -1.000000e+000  0.000000e+000  0.000000e+000
    outer loop
      vertex -1.400000e+002  2.500000e+001 -5.000000e+001
      vertex -1.400000e+002 -2.500000e+001 -5.000000e+001
      vertex -1.400000e+002  2.500000e+001  5.000000e+001
    endloop
  endfacet
  facet normal -1.000000e+000  -0.000000e+000  0.000000e+000
    outer loop
      vertex -1.400000e+002  2.500000e+001  5.000000e+001
      vertex -1.400000e+002 -2.500000e+001 -5.000000e+001
      vertex -1.400000e+002 -2.500000e+001  5.000000e+001
    endloop
  endfacet
  facet normal  -0.000000e+000  0.000000e+000 -1.000000e+000
    outer loop
      vertex -1.400000e+002  2.500000e+001 -5.000000e+001
      vertex -1.000000e+002  2.500000e+001 -5.000000e+001
      vertex -1.400000e+002 -2.500000e+001 -5.000000e+001
    endloop
  endfacet
  facet normal  0.000000e+000  0.000000e+000 -1.000000e+000
    outer loop
      vertex -1.400000e+002 -2.500000e+001 -5.000000e+001
      vertex -1.000000e+002  2.500000e+001 -5.000000e+001
      vertex -1.000000e+002 -2.500000e+001 -5.000000e+001
    endloop
  endfacet
  facet normal -9.999999e-001  0.000000e+000  0.000000e+000
    outer loop
      vertex  0.000000e+000  2.500000e+001 -5.000000e+001
      vertex  0.000000e+000 -2.500000e+001 -5.000000e+001
      vertex  0.000000e+000 -3.277150e+000 -1.982047e+001
    endloop
  endfacet
  facet normal -1.000000e+000  0.000000e+000  0.000000e+000
    outer loop
      vertex  0.000000e+000  2.500000e+001 -5.000000e+001
      vertex  0.000000e+000 -3.277150e+000 -1.982047e+001
      vertex  0.000000e+000  3.277150e+000 -1.982047e+001
    endloop
  endfacet
  facet normal -1.000000e+000  0.000000e+000  0.000000e+000
    outer loop
      vertex  0.000000e+000  2.500000e+001 -5.000000e+001
      vertex  0.000000e+000  3.277150e+000 -1.982047e+001
      vertex  0.000000e+000  9.675024e+000 -1.839708e+001
    endloop
  endfacet
  facet normal -1.000000e+000  0.000000e+000  0.000000e+000
    outer loop
      vertex  0.000000e+000  2.500000e+001 -5.000000e+001
      vertex  0.000000e+000  9.675024e+000 -1.839708e+001
      vertex  0.000000e+000  1.561109e+001 -1.561823e+001
    endloop
  endfacet
  facet normal -9.999999e-001  0.000000e+000  0.000000e+000
    outer loop
      vertex  0.000000e+000  2.500000e+001 -5.000000e+001
      vertex  0.000000e+000  1.561109e+001 -1.561823e+001
      vertex  0.000000e+000  2.080201e+001 -1.161658e+001
    endloop
  endfacet
  facet normal -1.000000e+000  0.000000e+000  0.000000e+000
    outer loop
      vertex  0.000000e+000  2.500000e+001 -5.000000e+001
      vertex  0.000000e+000  2.080201e+001 -1.161658e+001
      vertex  0.000000e+000  2.500000e+001 -6.583124e+000
    endloop
  endfacet
  facet normal -1.000000e+000  0.000000e+000  0.000000e+000
    outer loop
      vertex  0.000000e+000 -2.500000e+001 -5.000000e+001
      vertex  0.000000e+000 -2.500000e+001 -6.583124e+000
      vertex  0.000000e+000 -2.080201e+001 -1.161658e+001
    endloop
  endfacet
  facet normal -1.000000e+000  0.000000e+000  -0.000000e+000
    outer loop
      vertex  0.000000e+000 -2.500000e+001 -5.000000e+001
      vertex  0.000000e+000 -2.080201e+001 -1.161658e+001
      vertex  0.000000e+000 -1.561109e+001 -1.561823e+001
    endloop
  endfacet
  facet normal -1.000000e+000  0.000000e+000  -0.000000e+000
    outer loop
      vertex  0.000000e+000 -2.500000e+001 -5.000000e+001
      vertex  0.000000e+000 -1.561109e+001 -1.561823e+001
      vertex  0.000000e+000 -9.675024e+000 -1.839708e+001
    endloop
  endfacet
  facet normal -1.000000e+000  0.000000e+000  -0.000000e+000
    outer loop
      vertex  0.000000e+000 -2.500000e+001 -5.000000e+001
      vertex  0.000000e+000 -9.675024e+000 -1.839708e+001
      vertex  0.000000e+000 -3.277150e+000 -1.982047e+001
    endloop
  endfacet
  facet normal  1.000000e+000  0.000000e+000  0.000000e+000
    outer loop
      vertex  0.000000e+000 -2.500000e+001 -6.583124e+000
      vertex  0.000000e+000 -2.500000e+001  2.658312e+001
      vertex  0.000000e+000 -2.774206e+001  2.141833e+001
    endloop
  endfacet
  facet normal  1.000000e+000  0.000000e+000  0.000000e+000
    outer loop
      vertex  0.000000e+000 -2.500000e+001 -6.583124e+000
      vertex  0.000000e+000 -2.774206e+001  2.141833e+001
      vertex  0.000000e+000 -2.943010e+001  1.581972e+001
    endloop
  endfacet
  facet normal  1.000000e+000  0.000000e+000  0.000000e+000
    outer loop
      vertex  0.000000e+000 -2.500000e+001 -6.583124e+000
      vertex  0.000000e+000 -2.943010e+001  1.581972e+001
      vertex  0.000000e+000 -3.000000e+001  1.000000e+001
    endloop
  endfacet
  facet normal  1.000000e+000  0.000000e+000  0.000000e+000
    outer loop
      vertex  0.000000e+000 -2.500000e+001 -6.583124e+000
      vertex  0.000000e+000 -3.000000e+001  1.000000e+001
      vertex  0.000000e+000 -2.943010e+001  4.180279e+000
    endloop
  endfacet
  facet normal  1.000000e+000  0.000000e+000  0.000000e+000
    outer loop
      vertex  0.000000e+000 -2.500000e+001 -6.583124e+000
      vertex  0.000000e+000 -2.943010e+001  4.180279e+000
      vertex  0.000000e+000 -2.774206e+001 -1.418333e+000
    endloop
  endfacet
  facet normal  1.000000e+000  0.000000e+000  -0.000000e+000
    outer loop
      vertex  0.000000e+000  2.500000e+001 -6.583124e+000
      vertex  0.000000e+000  2.774206e+001 -1.418333e+000
      vertex  0.000000e+000  2.943010e+001  4.180279e+000
    endloop
  endfacet
  facet normal  1.000000e+000  0.000000e+000  -0.000000e+000
    outer loop
      vertex  0.000000e+000  2.500000e+001 -6.583124e+000
      vertex  0.000000e+000  2.943010e+001  4.180279e+000
      vertex  0.000000e+000  3.000000e+001  1.000000e+001
    endloop
  endfacet
  facet normal  1.000000e+000  0.000000e+000  0.000000e+000
    outer loop
      vertex  0.000000e+000  2.500000e+001 -6.583124e+000
      vertex  0.000000e+000  3.000000e+001  1.000000e+001
      vertex  0.000000e+000  2.943010e+001  1.581972e+001
    endloop
  endfacet
  facet normal  1.000000e+000  0.000000e+000  0.000000e+000
    outer loop
      vertex  0.000000e+000  2.500000e+001 -6.583124e+000
      vertex  0.000000e+000  2.943010e+001  1.581972e+001
      vertex  0.000000e+000  2.774206e+001  2.141833e+001
    endloop
  endfacet
  facet normal  1.000000e+000  0.000000e+000  0.000000e+000
    outer loop
      vertex  0.000000e+000  2.500000e+001 -6.583124e+000
      vertex  0.000000e+000  2.774206e+001  2.141833e+001
      vertex  0.000000e+000  2.500000e+001  2.658312e+001
    endloop
  endfacet
  facet normal  1.000000e+000  0.000000e+000  0.000000e+000
    outer loop
      vertex  3.500000e+001 -2.500000e+001 -5.000000e+001
      vertex  3.500000e+001  2.500000e+001 -5.000000e+001
      vertex  3.500000e+001 -2.500000e+001  5.000000e+001
    endloop
  endfacet
  facet normal  1.000000e+000  -0.000000e+000  0.000000e+000
    outer loop
      vertex  3.500000e+001 -2.500000e+001  5.000000e+001
      vertex  3.500000e+001  2.500000e+001 -5.000000e+001
      vertex  3.500000e+001  2.500000e+001  5.000000e+001
    endloop
  endfacet
  facet normal  0.000000e+000  0.000000e+000 -1.000000e+000
    outer loop
      vertex  3.500000e+001  2.500000e+001 -5.000000e+001
      vertex  3.500000e+001 -2.500000e+001 -5.000000e+001
      vertex  0.000000e+000  2.500000e+001 -5.000000e+001
    endloop
  endfacet
  facet normal  0.000000e+000  0.000000e+000 -1.000000e+000
    outer loop
      vertex  0.000000e+000  2.500000e+001 -5.000000e+001
      vertex  3.500000e+001 -2.500000e+001 -5.000000e+001
      vertex  0.000000e+000 -2.500000e+001 -5.000000e+001
    endloop
  endfacet
endsolid CATIA STL
