solid CATIA STL
  facet normal  0.000000e+000  0.000000e+000  1.000000e+000
    outer loop
      vertex  1.996516e+002  1.688074e+001  1.500000e+001
      vertex  1.983233e+002  2.039326e+001  1.500000e+001
      vertex  1.896024e+002  1.688074e+001  1.500000e+001
    endloop
  endfacet
  facet normal  0.000000e+000  0.000000e+000  1.000000e+000
    outer loop
      vertex  1.896024e+002  1.688074e+001  1.500000e+001
      vertex  1.983233e+002  2.039326e+001  1.500000e+001
      vertex  1.924787e+002  2.039326e+001  1.500000e+001
    endloop
  endfacet
  facet normal  0.000000e+000  0.000000e+000  1.000000e+000
    outer loop
      vertex  1.896024e+002  1.688074e+001  1.500000e+001
      vertex  1.924787e+002  2.039326e+001  1.500000e+001
      vertex  1.896024e+002  4.606910e+001  1.500000e+001
    endloop
  endfacet
  facet normal  0.000000e+000  0.000000e+000  1.000000e+000
    outer loop
      vertex  1.896024e+002  4.606910e+001  1.500000e+001
      vertex  1.924787e+002  2.039326e+001  1.500000e+001
      vertex  1.924787e+002  4.229614e+001  1.500000e+001
    endloop
  endfacet
  facet normal  0.000000e+000  -0.000000e+000  9.999999e-001
    outer loop
      vertex  1.896024e+002  4.606910e+001  1.500000e+001
      vertex  1.924787e+002  4.229614e+001  1.500000e+001
      vertex  1.996516e+002  4.606910e+001  1.500000e+001
    endloop
  endfacet
  facet normal  0.000000e+000  0.000000e+000  1.000000e+000
    outer loop
      vertex  1.996516e+002  4.606910e+001  1.500000e+001
      vertex  1.924787e+002  4.229614e+001  1.500000e+001
      vertex  1.983233e+002  4.229614e+001  1.500000e+001
    endloop
  endfacet
  facet normal  -0.000000e+000  0.000000e+000  1.000000e+000
    outer loop
      vertex  1.996516e+002  4.606910e+001  1.500000e+001
      vertex  1.983233e+002  4.229614e+001  1.500000e+001
      vertex  1.996516e+002  1.688074e+001  1.500000e+001
    endloop
  endfacet
  facet normal  0.000000e+000  0.000000e+000  1.000000e+000
    outer loop
      vertex  1.996516e+002  1.688074e+001  1.500000e+001
      vertex  1.983233e+002  4.229614e+001  1.500000e+001
      vertex  1.983233e+002  2.039326e+001  1.500000e+001
    endloop
  endfacet
  facet normal  0.000000e+000  0.000000e+000  1.000000e+000
    outer loop
      vertex  1.452086e+002  1.688074e+001  1.500000e+001
      vertex  1.454484e+002  1.688074e+001  1.500000e+001
      vertex  1.452086e+002  4.606910e+001  1.500000e+001
    endloop
  endfacet
  facet normal  -0.000000e+000  0.000000e+000  1.000000e+000
    outer loop
      vertex  1.452086e+002  4.606910e+001  1.500000e+001
      vertex  1.454484e+002  1.688074e+001  1.500000e+001
      vertex  1.454484e+002  4.606910e+001  1.500000e+001
    endloop
  endfacet
  facet normal  0.000000e+000  0.000000e+000 -1.000000e+000
    outer loop
      vertex  1.454484e+002  4.606910e+001  1.500000e+001
      vertex  1.454484e+002  4.609272e+001  1.500000e+001
      vertex  1.896024e+002  4.606910e+001  1.500000e+001
    endloop
  endfacet
  facet normal  0.000000e+000  0.000000e+000 -1.000000e+000
    outer loop
      vertex  1.896024e+002  4.606910e+001  1.500000e+001
      vertex  1.454484e+002  4.609272e+001  1.500000e+001
      vertex  1.896024e+002  4.609272e+001  1.500000e+001
    endloop
  endfacet
  facet normal  0.000000e+000  0.000000e+000 -1.000000e+000
    outer loop
      vertex  1.454484e+002  1.681377e+001  1.500000e+001
      vertex  1.454484e+002  1.688074e+001  1.500000e+001
      vertex  1.896024e+002  1.681377e+001  1.500000e+001
    endloop
  endfacet
  facet normal  0.000000e+000  0.000000e+000 -1.000000e+000
    outer loop
      vertex  1.896024e+002  1.681377e+001  1.500000e+001
      vertex  1.454484e+002  1.688074e+001  1.500000e+001
      vertex  1.896024e+002  1.688074e+001  1.500000e+001
    endloop
  endfacet
  facet normal  9.999999e-001  0.000000e+000  0.000000e+000
    outer loop
      vertex  1.896024e+002  4.609272e+001  1.500000e+001
      vertex  1.896024e+002  4.609272e+001  1.530000e+001
      vertex  1.896024e+002  4.606910e+001  1.500000e+001
    endloop
  endfacet
  facet normal  1.000000e+000  0.000000e+000  0.000000e+000
    outer loop
      vertex  1.896024e+002  1.681377e+001  1.500000e+001
      vertex  1.896024e+002  1.688074e+001  1.500000e+001
      vertex  1.896024e+002  1.681377e+001  1.530000e+001
    endloop
  endfacet
  facet normal  1.000000e+000  0.000000e+000  0.000000e+000
    outer loop
      vertex  1.896024e+002  1.681377e+001  1.530000e+001
      vertex  1.896024e+002  1.688074e+001  1.500000e+001
      vertex  1.896024e+002  4.606910e+001  1.500000e+001
    endloop
  endfacet
  facet normal  1.000000e+000  0.000000e+000  -0.000000e+000
    outer loop
      vertex  1.896024e+002  1.681377e+001  1.530000e+001
      vertex  1.896024e+002  4.606910e+001  1.500000e+001
      vertex  1.896024e+002  4.609272e+001  1.530000e+001
    endloop
  endfacet
  facet normal -1.000000e+000  0.000000e+000  0.000000e+000
    outer loop
      vertex  1.454484e+002  1.681377e+001  1.500000e+001
      vertex  1.454484e+002  1.681377e+001  1.530000e+001
      vertex  1.454484e+002  1.688074e+001  1.500000e+001
    endloop
  endfacet
  facet normal -9.999999e-001  0.000000e+000  0.000000e+000
    outer loop
      vertex  1.454484e+002  4.609272e+001  1.500000e+001
      vertex  1.454484e+002  4.606910e+001  1.500000e+001
      vertex  1.454484e+002  4.609272e+001  1.530000e+001
    endloop
  endfacet
  facet normal -1.000000e+000  0.000000e+000  0.000000e+000
    outer loop
      vertex  1.454484e+002  4.609272e+001  1.530000e+001
      vertex  1.454484e+002  4.606910e+001  1.500000e+001
      vertex  1.454484e+002  1.688074e+001  1.500000e+001
    endloop
  endfacet
  facet normal -1.000000e+000  0.000000e+000  0.000000e+000
    outer loop
      vertex  1.454484e+002  4.609272e+001  1.530000e+001
      vertex  1.454484e+002  1.688074e+001  1.500000e+001
      vertex  1.454484e+002  1.681377e+001  1.530000e+001
    endloop
  endfacet
  facet normal  -0.000000e+000 -1.000000e+000  -0.000000e+000
    outer loop
      vertex  2.008013e+002  1.688074e+001  1.000000e+001
      vertex  2.008013e+002  1.688074e+001  2.000000e+001
      vertex  1.996516e+002  1.688074e+001  2.000000e+001
    endloop
  endfacet
  facet normal  0.000000e+000 -1.000000e+000  0.000000e+000
    outer loop
      vertex  2.008013e+002  1.688074e+001  1.000000e+001
      vertex  1.996516e+002  1.688074e+001  2.000000e+001
      vertex  1.996516e+002  1.688074e+001  1.500000e+001
    endloop
  endfacet
  facet normal  -0.000000e+000 -9.999999e-001  -0.000000e+000
    outer loop
      vertex  2.008013e+002  1.688074e+001  1.000000e+001
      vertex  1.996516e+002  1.688074e+001  1.500000e+001
      vertex  1.896024e+002  1.688074e+001  1.500000e+001
    endloop
  endfacet
  facet normal  -0.000000e+000 -1.000000e+000  -0.000000e+000
    outer loop
      vertex  2.008013e+002  1.688074e+001  1.000000e+001
      vertex  1.896024e+002  1.688074e+001  1.500000e+001
      vertex  1.454484e+002  1.688074e+001  1.500000e+001
    endloop
  endfacet
  facet normal  -0.000000e+000 -1.000000e+000  -0.000000e+000
    outer loop
      vertex  2.008013e+002  1.688074e+001  1.000000e+001
      vertex  1.454484e+002  1.688074e+001  1.500000e+001
      vertex  1.452086e+002  1.688074e+001  1.500000e+001
    endloop
  endfacet
  facet normal  0.000000e+000 -1.000000e+000  -0.000000e+000
    outer loop
      vertex  2.008013e+002  1.688074e+001  1.000000e+001
      vertex  1.452086e+002  1.688074e+001  1.500000e+001
      vertex  1.432086e+002  1.688074e+001  1.000000e+001
    endloop
  endfacet
  facet normal  0.000000e+000 -1.000000e+000  0.000000e+000
    outer loop
      vertex  1.452086e+002  1.688074e+001  2.000000e+001
      vertex  1.432086e+002  1.688074e+001  2.000000e+001
      vertex  1.452086e+002  1.688074e+001  1.500000e+001
    endloop
  endfacet
  facet normal  -0.000000e+000 -1.000000e+000  0.000000e+000
    outer loop
      vertex  1.452086e+002  1.688074e+001  1.500000e+001
      vertex  1.432086e+002  1.688074e+001  2.000000e+001
      vertex  1.432086e+002  1.688074e+001  1.000000e+001
    endloop
  endfacet
  facet normal  -0.000000e+000  1.000000e+000  0.000000e+000
    outer loop
      vertex  1.432086e+002  4.606910e+001  1.000000e+001
      vertex  1.432086e+002  4.606910e+001  2.000000e+001
      vertex  1.452086e+002  4.606910e+001  2.000000e+001
    endloop
  endfacet
  facet normal  0.000000e+000  1.000000e+000  0.000000e+000
    outer loop
      vertex  1.432086e+002  4.606910e+001  1.000000e+001
      vertex  1.452086e+002  4.606910e+001  2.000000e+001
      vertex  1.452086e+002  4.606910e+001  1.500000e+001
    endloop
  endfacet
  facet normal  -0.000000e+000  1.000000e+000  0.000000e+000
    outer loop
      vertex  1.432086e+002  4.606910e+001  1.000000e+001
      vertex  1.452086e+002  4.606910e+001  1.500000e+001
      vertex  1.454484e+002  4.606910e+001  1.500000e+001
    endloop
  endfacet
  facet normal  -0.000000e+000  1.000000e+000  0.000000e+000
    outer loop
      vertex  1.432086e+002  4.606910e+001  1.000000e+001
      vertex  1.454484e+002  4.606910e+001  1.500000e+001
      vertex  1.896024e+002  4.606910e+001  1.500000e+001
    endloop
  endfacet
  facet normal  -0.000000e+000  9.999999e-001  0.000000e+000
    outer loop
      vertex  1.432086e+002  4.606910e+001  1.000000e+001
      vertex  1.896024e+002  4.606910e+001  1.500000e+001
      vertex  1.996516e+002  4.606910e+001  1.500000e+001
    endloop
  endfacet
  facet normal  0.000000e+000  1.000000e+000  0.000000e+000
    outer loop
      vertex  1.432086e+002  4.606910e+001  1.000000e+001
      vertex  1.996516e+002  4.606910e+001  1.500000e+001
      vertex  2.008013e+002  4.606910e+001  1.000000e+001
    endloop
  endfacet
  facet normal  0.000000e+000  1.000000e+000  0.000000e+000
    outer loop
      vertex  1.996516e+002  4.606910e+001  2.000000e+001
      vertex  2.008013e+002  4.606910e+001  2.000000e+001
      vertex  1.996516e+002  4.606910e+001  1.500000e+001
    endloop
  endfacet
  facet normal  -0.000000e+000  1.000000e+000  0.000000e+000
    outer loop
      vertex  1.996516e+002  4.606910e+001  1.500000e+001
      vertex  2.008013e+002  4.606910e+001  2.000000e+001
      vertex  2.008013e+002  4.606910e+001  1.000000e+001
    endloop
  endfacet
  facet normal  0.000000e+000  0.000000e+000  1.000000e+000
    outer loop
      vertex  1.454484e+002  1.681377e+001  1.530000e+001
      vertex  1.896024e+002  1.681377e+001  1.530000e+001
      vertex  1.454484e+002  4.609272e+001  1.530000e+001
    endloop
  endfacet
  facet normal  -0.000000e+000  0.000000e+000  1.000000e+000
    outer loop
      vertex  1.454484e+002  4.609272e+001  1.530000e+001
      vertex  1.896024e+002  1.681377e+001  1.530000e+001
      vertex  1.896024e+002  4.609272e+001  1.530000e+001
    endloop
  endfacet
  facet normal  0.000000e+000 -1.000000e+000  0.000000e+000
    outer loop
      vertex  1.896024e+002  1.681377e+001  1.530000e+001
      vertex  1.454484e+002  1.681377e+001  1.530000e+001
      vertex  1.896024e+002  1.681377e+001  1.500000e+001
    endloop
  endfacet
  facet normal  0.000000e+000 -1.000000e+000  0.000000e+000
    outer loop
      vertex  1.896024e+002  1.681377e+001  1.500000e+001
      vertex  1.454484e+002  1.681377e+001  1.530000e+001
      vertex  1.454484e+002  1.681377e+001  1.500000e+001
    endloop
  endfacet
  facet normal  0.000000e+000  1.000000e+000  0.000000e+000
    outer loop
      vertex  1.454484e+002  4.609272e+001  1.530000e+001
      vertex  1.896024e+002  4.609272e+001  1.530000e+001
      vertex  1.454484e+002  4.609272e+001  1.500000e+001
    endloop
  endfacet
  facet normal  0.000000e+000  1.000000e+000  0.000000e+000
    outer loop
      vertex  1.454484e+002  4.609272e+001  1.500000e+001
      vertex  1.896024e+002  4.609272e+001  1.530000e+001
      vertex  1.896024e+002  4.609272e+001  1.500000e+001
    endloop
  endfacet
  facet normal  0.000000e+000  1.000000e+000  0.000000e+000
    outer loop
      vertex  1.924787e+002  4.229614e+001  1.700000e+001
      vertex  1.983233e+002  4.229614e+001  1.700000e+001
      vertex  1.924787e+002  4.229614e+001  1.500000e+001
    endloop
  endfacet
  facet normal  0.000000e+000  1.000000e+000  0.000000e+000
    outer loop
      vertex  1.924787e+002  4.229614e+001  1.500000e+001
      vertex  1.983233e+002  4.229614e+001  1.700000e+001
      vertex  1.983233e+002  4.229614e+001  1.500000e+001
    endloop
  endfacet
  facet normal  1.000000e+000  0.000000e+000  0.000000e+000
    outer loop
      vertex  1.983233e+002  2.039326e+001  1.700000e+001
      vertex  1.983233e+002  2.039326e+001  1.500000e+001
      vertex  1.983233e+002  4.229614e+001  1.700000e+001
    endloop
  endfacet
  facet normal  1.000000e+000  0.000000e+000  0.000000e+000
    outer loop
      vertex  1.983233e+002  4.229614e+001  1.700000e+001
      vertex  1.983233e+002  2.039326e+001  1.500000e+001
      vertex  1.983233e+002  4.229614e+001  1.500000e+001
    endloop
  endfacet
  facet normal  0.000000e+000 -1.000000e+000  0.000000e+000
    outer loop
      vertex  1.983233e+002  2.039326e+001  1.700000e+001
      vertex  1.924787e+002  2.039326e+001  1.700000e+001
      vertex  1.983233e+002  2.039326e+001  1.500000e+001
    endloop
  endfacet
  facet normal  0.000000e+000 -1.000000e+000  0.000000e+000
    outer loop
      vertex  1.983233e+002  2.039326e+001  1.500000e+001
      vertex  1.924787e+002  2.039326e+001  1.700000e+001
      vertex  1.924787e+002  2.039326e+001  1.500000e+001
    endloop
  endfacet
  facet normal -1.000000e+000  0.000000e+000  0.000000e+000
    outer loop
      vertex  1.924787e+002  4.229614e+001  1.700000e+001
      vertex  1.924787e+002  4.229614e+001  1.500000e+001
      vertex  1.924787e+002  2.039326e+001  1.700000e+001
    endloop
  endfacet
  facet normal -1.000000e+000  0.000000e+000  0.000000e+000
    outer loop
      vertex  1.924787e+002  2.039326e+001  1.700000e+001
      vertex  1.924787e+002  4.229614e+001  1.500000e+001
      vertex  1.924787e+002  2.039326e+001  1.500000e+001
    endloop
  endfacet
  facet normal  0.000000e+000  0.000000e+000  1.000000e+000
    outer loop
      vertex  1.924787e+002  2.039326e+001  1.700000e+001
      vertex  1.983233e+002  2.039326e+001  1.700000e+001
      vertex  1.924787e+002  4.229614e+001  1.700000e+001
    endloop
  endfacet
  facet normal  -0.000000e+000  0.000000e+000  1.000000e+000
    outer loop
      vertex  1.924787e+002  4.229614e+001  1.700000e+001
      vertex  1.983233e+002  2.039326e+001  1.700000e+001
      vertex  1.983233e+002  4.229614e+001  1.700000e+001
    endloop
  endfacet
  facet normal  -0.000000e+000  0.000000e+000 -1.000000e+000
    outer loop
      vertex  1.499910e+002  3.952456e+001  1.000000e+001
      vertex  1.499910e+002  2.452456e+001  1.000000e+001
      vertex  1.482233e+002  2.379232e+001  1.000000e+001
    endloop
  endfacet
  facet normal  0.000000e+000  0.000000e+000 -1.000000e+000
    outer loop
      vertex  1.899910e+002  2.452456e+001  1.000000e+001
      vertex  1.899910e+002  3.952456e+001  1.000000e+001
      vertex  1.917588e+002  2.379232e+001  1.000000e+001
    endloop
  endfacet
  facet normal  -0.000000e+000  0.000000e+000 -1.000000e+000
    outer loop
      vertex  1.432086e+002  4.606910e+001  1.000000e+001
      vertex  2.008013e+002  4.606910e+001  1.000000e+001
      vertex  1.899910e+002  4.452456e+001  1.000000e+001
    endloop
  endfacet
  facet normal  0.000000e+000  0.000000e+000 -1.000000e+000
    outer loop
      vertex  1.432086e+002  4.606910e+001  1.000000e+001
      vertex  1.899910e+002  4.452456e+001  1.000000e+001
      vertex  1.499910e+002  4.452456e+001  1.000000e+001
    endloop
  endfacet
  facet normal  -0.000000e+000  0.000000e+000 -1.000000e+000
    outer loop
      vertex  1.432086e+002  4.606910e+001  1.000000e+001
      vertex  1.499910e+002  4.452456e+001  1.000000e+001
      vertex  1.482233e+002  4.379232e+001  1.000000e+001
    endloop
  endfacet
  facet normal  -0.000000e+000  0.000000e+000 -1.000000e+000
    outer loop
      vertex  1.432086e+002  4.606910e+001  1.000000e+001
      vertex  1.482233e+002  4.379232e+001  1.000000e+001
      vertex  1.474910e+002  4.202456e+001  1.000000e+001
    endloop
  endfacet
  facet normal  -0.000000e+000  0.000000e+000 -1.000000e+000
    outer loop
      vertex  1.432086e+002  4.606910e+001  1.000000e+001
      vertex  1.474910e+002  4.202456e+001  1.000000e+001
      vertex  1.432086e+002  1.688074e+001  1.000000e+001
    endloop
  endfacet
  facet normal  0.000000e+000  -0.000000e+000 -9.999999e-001
    outer loop
      vertex  1.432086e+002  1.688074e+001  1.000000e+001
      vertex  1.474910e+002  4.202456e+001  1.000000e+001
      vertex  1.482233e+002  4.025679e+001  1.000000e+001
    endloop
  endfacet
  facet normal  0.000000e+000  -0.000000e+000 -1.000000e+000
    outer loop
      vertex  1.432086e+002  1.688074e+001  1.000000e+001
      vertex  1.482233e+002  4.025679e+001  1.000000e+001
      vertex  1.499910e+002  3.952456e+001  1.000000e+001
    endloop
  endfacet
  facet normal  0.000000e+000  0.000000e+000 -1.000000e+000
    outer loop
      vertex  1.432086e+002  1.688074e+001  1.000000e+001
      vertex  1.499910e+002  3.952456e+001  1.000000e+001
      vertex  1.482233e+002  2.379232e+001  1.000000e+001
    endloop
  endfacet
  facet normal  0.000000e+000  0.000000e+000 -1.000000e+000
    outer loop
      vertex  1.432086e+002  1.688074e+001  1.000000e+001
      vertex  1.482233e+002  2.379232e+001  1.000000e+001
      vertex  1.474910e+002  2.202456e+001  1.000000e+001
    endloop
  endfacet
  facet normal  0.000000e+000  -0.000000e+000 -1.000000e+000
    outer loop
      vertex  1.432086e+002  1.688074e+001  1.000000e+001
      vertex  1.474910e+002  2.202456e+001  1.000000e+001
      vertex  1.482233e+002  2.025679e+001  1.000000e+001
    endloop
  endfacet
  facet normal  0.000000e+000  -0.000000e+000 -1.000000e+000
    outer loop
      vertex  1.432086e+002  1.688074e+001  1.000000e+001
      vertex  1.482233e+002  2.025679e+001  1.000000e+001
      vertex  1.499910e+002  1.952456e+001  1.000000e+001
    endloop
  endfacet
  facet normal  0.000000e+000  -0.000000e+000 -1.000000e+000
    outer loop
      vertex  1.432086e+002  1.688074e+001  1.000000e+001
      vertex  1.499910e+002  1.952456e+001  1.000000e+001
      vertex  1.899910e+002  1.952456e+001  1.000000e+001
    endloop
  endfacet
  facet normal  0.000000e+000  -0.000000e+000 -1.000000e+000
    outer loop
      vertex  1.432086e+002  1.688074e+001  1.000000e+001
      vertex  1.899910e+002  1.952456e+001  1.000000e+001
      vertex  2.008013e+002  1.688074e+001  1.000000e+001
    endloop
  endfacet
  facet normal  0.000000e+000  0.000000e+000 -1.000000e+000
    outer loop
      vertex  2.008013e+002  1.688074e+001  1.000000e+001
      vertex  1.899910e+002  1.952456e+001  1.000000e+001
      vertex  1.917588e+002  2.025679e+001  1.000000e+001
    endloop
  endfacet
  facet normal  0.000000e+000  0.000000e+000 -1.000000e+000
    outer loop
      vertex  2.008013e+002  1.688074e+001  1.000000e+001
      vertex  1.917588e+002  2.025679e+001  1.000000e+001
      vertex  1.924910e+002  2.202456e+001  1.000000e+001
    endloop
  endfacet
  facet normal  0.000000e+000  0.000000e+000 -1.000000e+000
    outer loop
      vertex  2.008013e+002  1.688074e+001  1.000000e+001
      vertex  1.924910e+002  2.202456e+001  1.000000e+001
      vertex  1.917588e+002  2.379232e+001  1.000000e+001
    endloop
  endfacet
  facet normal  0.000000e+000  0.000000e+000 -1.000000e+000
    outer loop
      vertex  2.008013e+002  1.688074e+001  1.000000e+001
      vertex  1.917588e+002  2.379232e+001  1.000000e+001
      vertex  1.899910e+002  3.952456e+001  1.000000e+001
    endloop
  endfacet
  facet normal  0.000000e+000  0.000000e+000 -1.000000e+000
    outer loop
      vertex  2.008013e+002  1.688074e+001  1.000000e+001
      vertex  1.899910e+002  3.952456e+001  1.000000e+001
      vertex  1.917588e+002  4.025679e+001  1.000000e+001
    endloop
  endfacet
  facet normal  0.000000e+000  0.000000e+000 -1.000000e+000
    outer loop
      vertex  2.008013e+002  1.688074e+001  1.000000e+001
      vertex  1.917588e+002  4.025679e+001  1.000000e+001
      vertex  1.924910e+002  4.202456e+001  1.000000e+001
    endloop
  endfacet
  facet normal  0.000000e+000  0.000000e+000 -1.000000e+000
    outer loop
      vertex  2.008013e+002  4.606910e+001  1.000000e+001
      vertex  2.008013e+002  1.688074e+001  1.000000e+001
      vertex  1.924910e+002  4.202456e+001  1.000000e+001
    endloop
  endfacet
  facet normal  0.000000e+000  0.000000e+000 -9.999999e-001
    outer loop
      vertex  2.008013e+002  4.606910e+001  1.000000e+001
      vertex  1.924910e+002  4.202456e+001  1.000000e+001
      vertex  1.917588e+002  4.379232e+001  1.000000e+001
    endloop
  endfacet
  facet normal  0.000000e+000  0.000000e+000 -1.000000e+000
    outer loop
      vertex  2.008013e+002  4.606910e+001  1.000000e+001
      vertex  1.917588e+002  4.379232e+001  1.000000e+001
      vertex  1.899910e+002  4.452456e+001  1.000000e+001
    endloop
  endfacet
  facet normal  0.000000e+000  0.000000e+000 -1.000000e+000
    outer loop
      vertex  1.899910e+002  3.952456e+001  1.000000e+001
      vertex  1.517588e+002  4.025679e+001  1.000000e+001
      vertex  1.882233e+002  4.025679e+001  1.000000e+001
    endloop
  endfacet
  facet normal  0.000000e+000  0.000000e+000 -1.000000e+000
    outer loop
      vertex  1.882233e+002  4.025679e+001  1.000000e+001
      vertex  1.517588e+002  4.025679e+001  1.000000e+001
      vertex  1.524910e+002  4.202456e+001  1.000000e+001
    endloop
  endfacet
  facet normal  0.000000e+000  0.000000e+000 -1.000000e+000
    outer loop
      vertex  1.882233e+002  4.025679e+001  1.000000e+001
      vertex  1.524910e+002  4.202456e+001  1.000000e+001
      vertex  1.874910e+002  4.202456e+001  1.000000e+001
    endloop
  endfacet
  facet normal  0.000000e+000  0.000000e+000 -1.000000e+000
    outer loop
      vertex  1.874910e+002  4.202456e+001  1.000000e+001
      vertex  1.524910e+002  4.202456e+001  1.000000e+001
      vertex  1.517588e+002  4.379232e+001  1.000000e+001
    endloop
  endfacet
  facet normal  0.000000e+000  0.000000e+000 -1.000000e+000
    outer loop
      vertex  1.874910e+002  4.202456e+001  1.000000e+001
      vertex  1.517588e+002  4.379232e+001  1.000000e+001
      vertex  1.882233e+002  4.379232e+001  1.000000e+001
    endloop
  endfacet
  facet normal  0.000000e+000  0.000000e+000 -1.000000e+000
    outer loop
      vertex  1.882233e+002  4.379232e+001  1.000000e+001
      vertex  1.517588e+002  4.379232e+001  1.000000e+001
      vertex  1.499910e+002  4.452456e+001  1.000000e+001
    endloop
  endfacet
  facet normal  0.000000e+000  0.000000e+000 -1.000000e+000
    outer loop
      vertex  1.882233e+002  4.379232e+001  1.000000e+001
      vertex  1.499910e+002  4.452456e+001  1.000000e+001
      vertex  1.899910e+002  4.452456e+001  1.000000e+001
    endloop
  endfacet
  facet normal  0.000000e+000  0.000000e+000 -1.000000e+000
    outer loop
      vertex  1.517588e+002  4.025679e+001  1.000000e+001
      vertex  1.899910e+002  3.952456e+001  1.000000e+001
      vertex  1.499910e+002  3.952456e+001  1.000000e+001
    endloop
  endfacet
  facet normal  0.000000e+000  0.000000e+000 -1.000000e+000
    outer loop
      vertex  1.499910e+002  3.952456e+001  1.000000e+001
      vertex  1.899910e+002  3.952456e+001  1.000000e+001
      vertex  1.899910e+002  2.452456e+001  1.000000e+001
    endloop
  endfacet
  facet normal  0.000000e+000  0.000000e+000 -1.000000e+000
    outer loop
      vertex  1.499910e+002  3.952456e+001  1.000000e+001
      vertex  1.899910e+002  2.452456e+001  1.000000e+001
      vertex  1.499910e+002  2.452456e+001  1.000000e+001
    endloop
  endfacet
  facet normal  0.000000e+000  0.000000e+000 -1.000000e+000
    outer loop
      vertex  1.499910e+002  2.452456e+001  1.000000e+001
      vertex  1.899910e+002  2.452456e+001  1.000000e+001
      vertex  1.882233e+002  2.379232e+001  1.000000e+001
    endloop
  endfacet
  facet normal  0.000000e+000  0.000000e+000 -1.000000e+000
    outer loop
      vertex  1.499910e+002  2.452456e+001  1.000000e+001
      vertex  1.882233e+002  2.379232e+001  1.000000e+001
      vertex  1.517588e+002  2.379232e+001  1.000000e+001
    endloop
  endfacet
  facet normal  0.000000e+000  0.000000e+000 -1.000000e+000
    outer loop
      vertex  1.517588e+002  2.379232e+001  1.000000e+001
      vertex  1.882233e+002  2.379232e+001  1.000000e+001
      vertex  1.874910e+002  2.202456e+001  1.000000e+001
    endloop
  endfacet
  facet normal  0.000000e+000  0.000000e+000 -1.000000e+000
    outer loop
      vertex  1.517588e+002  2.379232e+001  1.000000e+001
      vertex  1.874910e+002  2.202456e+001  1.000000e+001
      vertex  1.524910e+002  2.202456e+001  1.000000e+001
    endloop
  endfacet
  facet normal  0.000000e+000  0.000000e+000 -1.000000e+000
    outer loop
      vertex  1.524910e+002  2.202456e+001  1.000000e+001
      vertex  1.874910e+002  2.202456e+001  1.000000e+001
      vertex  1.882233e+002  2.025679e+001  1.000000e+001
    endloop
  endfacet
  facet normal  0.000000e+000  0.000000e+000 -1.000000e+000
    outer loop
      vertex  1.524910e+002  2.202456e+001  1.000000e+001
      vertex  1.882233e+002  2.025679e+001  1.000000e+001
      vertex  1.517588e+002  2.025679e+001  1.000000e+001
    endloop
  endfacet
  facet normal  0.000000e+000  0.000000e+000 -1.000000e+000
    outer loop
      vertex  1.517588e+002  2.025679e+001  1.000000e+001
      vertex  1.882233e+002  2.025679e+001  1.000000e+001
      vertex  1.899910e+002  1.952456e+001  1.000000e+001
    endloop
  endfacet
  facet normal  0.000000e+000  0.000000e+000 -1.000000e+000
    outer loop
      vertex  1.517588e+002  2.025679e+001  1.000000e+001
      vertex  1.899910e+002  1.952456e+001  1.000000e+001
      vertex  1.499910e+002  1.952456e+001  1.000000e+001
    endloop
  endfacet
  facet normal  0.000000e+000  0.000000e+000  1.000000e+000
    outer loop
      vertex  1.996516e+002  1.688074e+001  2.000000e+001
      vertex  2.008013e+002  1.688074e+001  2.000000e+001
      vertex  1.996516e+002  4.606910e+001  2.000000e+001
    endloop
  endfacet
  facet normal  -0.000000e+000  0.000000e+000  1.000000e+000
    outer loop
      vertex  1.996516e+002  4.606910e+001  2.000000e+001
      vertex  2.008013e+002  1.688074e+001  2.000000e+001
      vertex  2.008013e+002  4.606910e+001  2.000000e+001
    endloop
  endfacet
  facet normal  0.000000e+000  0.000000e+000  1.000000e+000
    outer loop
      vertex  1.432086e+002  1.688074e+001  2.000000e+001
      vertex  1.452086e+002  1.688074e+001  2.000000e+001
      vertex  1.432086e+002  4.606910e+001  2.000000e+001
    endloop
  endfacet
  facet normal  -0.000000e+000  0.000000e+000  1.000000e+000
    outer loop
      vertex  1.432086e+002  4.606910e+001  2.000000e+001
      vertex  1.452086e+002  1.688074e+001  2.000000e+001
      vertex  1.452086e+002  4.606910e+001  2.000000e+001
    endloop
  endfacet
  facet normal -1.000000e+000  0.000000e+000  0.000000e+000
    outer loop
      vertex  1.432086e+002  4.606910e+001  2.000000e+001
      vertex  1.432086e+002  4.606910e+001  1.000000e+001
      vertex  1.432086e+002  1.688074e+001  2.000000e+001
    endloop
  endfacet
  facet normal -1.000000e+000  0.000000e+000  0.000000e+000
    outer loop
      vertex  1.432086e+002  1.688074e+001  2.000000e+001
      vertex  1.432086e+002  4.606910e+001  1.000000e+001
      vertex  1.432086e+002  1.688074e+001  1.000000e+001
    endloop
  endfacet
  facet normal  1.000000e+000  0.000000e+000  0.000000e+000
    outer loop
      vertex  2.008013e+002  1.688074e+001  2.000000e+001
      vertex  2.008013e+002  1.688074e+001  1.000000e+001
      vertex  2.008013e+002  4.606910e+001  2.000000e+001
    endloop
  endfacet
  facet normal  1.000000e+000  0.000000e+000  0.000000e+000
    outer loop
      vertex  2.008013e+002  4.606910e+001  2.000000e+001
      vertex  2.008013e+002  1.688074e+001  1.000000e+001
      vertex  2.008013e+002  4.606910e+001  1.000000e+001
    endloop
  endfacet
  facet normal -1.000000e+000  -0.000000e+000  0.000000e+000
    outer loop
      vertex  1.996516e+002  1.688074e+001  2.000000e+001
      vertex  1.996516e+002  4.606910e+001  2.000000e+001
      vertex  1.996516e+002  1.688074e+001  1.500000e+001
    endloop
  endfacet
  facet normal -1.000000e+000  0.000000e+000  0.000000e+000
    outer loop
      vertex  1.996516e+002  1.688074e+001  1.500000e+001
      vertex  1.996516e+002  4.606910e+001  2.000000e+001
      vertex  1.996516e+002  4.606910e+001  1.500000e+001
    endloop
  endfacet
  facet normal  1.000000e+000  0.000000e+000  0.000000e+000
    outer loop
      vertex  1.452086e+002  1.688074e+001  2.000000e+001
      vertex  1.452086e+002  1.688074e+001  1.500000e+001
      vertex  1.452086e+002  4.606910e+001  2.000000e+001
    endloop
  endfacet
  facet normal  1.000000e+000  0.000000e+000  0.000000e+000
    outer loop
      vertex  1.452086e+002  4.606910e+001  2.000000e+001
      vertex  1.452086e+002  1.688074e+001  1.500000e+001
      vertex  1.452086e+002  4.606910e+001  1.500000e+001
    endloop
  endfacet
  facet normal  9.238785e-001 -3.826860e-001  0.000000e+000
    outer loop
      vertex  1.924910e+002  2.202456e+001  0.000000e+000
      vertex  1.924910e+002  2.202456e+001  1.000000e+001
      vertex  1.917588e+002  2.025679e+001  0.000000e+000
    endloop
  endfacet
  facet normal  9.238785e-001 -3.826860e-001  0.000000e+000
    outer loop
      vertex  1.917588e+002  2.025679e+001  0.000000e+000
      vertex  1.924910e+002  2.202456e+001  1.000000e+001
      vertex  1.917588e+002  2.025679e+001  1.000000e+001
    endloop
  endfacet
  facet normal  3.826845e-001 -9.238791e-001  0.000000e+000
    outer loop
      vertex  1.917588e+002  2.025679e+001  0.000000e+000
      vertex  1.917588e+002  2.025679e+001  1.000000e+001
      vertex  1.899910e+002  1.952456e+001  0.000000e+000
    endloop
  endfacet
  facet normal  3.826845e-001 -9.238791e-001  0.000000e+000
    outer loop
      vertex  1.899910e+002  1.952456e+001  0.000000e+000
      vertex  1.917588e+002  2.025679e+001  1.000000e+001
      vertex  1.899910e+002  1.952456e+001  1.000000e+001
    endloop
  endfacet
  facet normal -3.826845e-001 -9.238791e-001  -0.000000e+000
    outer loop
      vertex  1.899910e+002  1.952456e+001  0.000000e+000
      vertex  1.899910e+002  1.952456e+001  1.000000e+001
      vertex  1.882233e+002  2.025679e+001  0.000000e+000
    endloop
  endfacet
  facet normal -3.826845e-001 -9.238791e-001  0.000000e+000
    outer loop
      vertex  1.882233e+002  2.025679e+001  0.000000e+000
      vertex  1.899910e+002  1.952456e+001  1.000000e+001
      vertex  1.882233e+002  2.025679e+001  1.000000e+001
    endloop
  endfacet
  facet normal -9.238785e-001 -3.826860e-001  -0.000000e+000
    outer loop
      vertex  1.882233e+002  2.025679e+001  0.000000e+000
      vertex  1.882233e+002  2.025679e+001  1.000000e+001
      vertex  1.874910e+002  2.202456e+001  0.000000e+000
    endloop
  endfacet
  facet normal -9.238785e-001 -3.826860e-001  0.000000e+000
    outer loop
      vertex  1.874910e+002  2.202456e+001  0.000000e+000
      vertex  1.882233e+002  2.025679e+001  1.000000e+001
      vertex  1.874910e+002  2.202456e+001  1.000000e+001
    endloop
  endfacet
  facet normal -9.238785e-001  3.826860e-001  0.000000e+000
    outer loop
      vertex  1.874910e+002  2.202456e+001  0.000000e+000
      vertex  1.874910e+002  2.202456e+001  1.000000e+001
      vertex  1.882233e+002  2.379232e+001  0.000000e+000
    endloop
  endfacet
  facet normal -9.238785e-001  3.826860e-001  0.000000e+000
    outer loop
      vertex  1.882233e+002  2.379232e+001  0.000000e+000
      vertex  1.874910e+002  2.202456e+001  1.000000e+001
      vertex  1.882233e+002  2.379232e+001  1.000000e+001
    endloop
  endfacet
  facet normal -3.826845e-001  9.238791e-001  0.000000e+000
    outer loop
      vertex  1.882233e+002  2.379232e+001  0.000000e+000
      vertex  1.882233e+002  2.379232e+001  1.000000e+001
      vertex  1.899910e+002  2.452456e+001  0.000000e+000
    endloop
  endfacet
  facet normal -3.826845e-001  9.238791e-001  0.000000e+000
    outer loop
      vertex  1.899910e+002  2.452456e+001  0.000000e+000
      vertex  1.882233e+002  2.379232e+001  1.000000e+001
      vertex  1.899910e+002  2.452456e+001  1.000000e+001
    endloop
  endfacet
  facet normal  3.826845e-001  9.238791e-001  0.000000e+000
    outer loop
      vertex  1.899910e+002  2.452456e+001  0.000000e+000
      vertex  1.899910e+002  2.452456e+001  1.000000e+001
      vertex  1.917588e+002  2.379232e+001  0.000000e+000
    endloop
  endfacet
  facet normal  3.826845e-001  9.238791e-001  -0.000000e+000
    outer loop
      vertex  1.917588e+002  2.379232e+001  0.000000e+000
      vertex  1.899910e+002  2.452456e+001  1.000000e+001
      vertex  1.917588e+002  2.379232e+001  1.000000e+001
    endloop
  endfacet
  facet normal  9.238785e-001  3.826860e-001  0.000000e+000
    outer loop
      vertex  1.917588e+002  2.379232e+001  0.000000e+000
      vertex  1.917588e+002  2.379232e+001  1.000000e+001
      vertex  1.924910e+002  2.202456e+001  0.000000e+000
    endloop
  endfacet
  facet normal  9.238785e-001  3.826860e-001  -0.000000e+000
    outer loop
      vertex  1.924910e+002  2.202456e+001  0.000000e+000
      vertex  1.917588e+002  2.379232e+001  1.000000e+001
      vertex  1.924910e+002  2.202456e+001  1.000000e+001
    endloop
  endfacet
  facet normal  9.238785e-001 -3.826860e-001  0.000000e+000
    outer loop
      vertex  1.524910e+002  2.202456e+001  0.000000e+000
      vertex  1.524910e+002  2.202456e+001  1.000000e+001
      vertex  1.517588e+002  2.025679e+001  0.000000e+000
    endloop
  endfacet
  facet normal  9.238785e-001 -3.826860e-001  0.000000e+000
    outer loop
      vertex  1.517588e+002  2.025679e+001  0.000000e+000
      vertex  1.524910e+002  2.202456e+001  1.000000e+001
      vertex  1.517588e+002  2.025679e+001  1.000000e+001
    endloop
  endfacet
  facet normal  3.826845e-001 -9.238791e-001  0.000000e+000
    outer loop
      vertex  1.517588e+002  2.025679e+001  0.000000e+000
      vertex  1.517588e+002  2.025679e+001  1.000000e+001
      vertex  1.499910e+002  1.952456e+001  0.000000e+000
    endloop
  endfacet
  facet normal  3.826845e-001 -9.238791e-001  0.000000e+000
    outer loop
      vertex  1.499910e+002  1.952456e+001  0.000000e+000
      vertex  1.517588e+002  2.025679e+001  1.000000e+001
      vertex  1.499910e+002  1.952456e+001  1.000000e+001
    endloop
  endfacet
  facet normal -3.826845e-001 -9.238791e-001  -0.000000e+000
    outer loop
      vertex  1.499910e+002  1.952456e+001  0.000000e+000
      vertex  1.499910e+002  1.952456e+001  1.000000e+001
      vertex  1.482233e+002  2.025679e+001  0.000000e+000
    endloop
  endfacet
  facet normal -3.826845e-001 -9.238791e-001  0.000000e+000
    outer loop
      vertex  1.482233e+002  2.025679e+001  0.000000e+000
      vertex  1.499910e+002  1.952456e+001  1.000000e+001
      vertex  1.482233e+002  2.025679e+001  1.000000e+001
    endloop
  endfacet
  facet normal -9.238785e-001 -3.826860e-001  -0.000000e+000
    outer loop
      vertex  1.482233e+002  2.025679e+001  0.000000e+000
      vertex  1.482233e+002  2.025679e+001  1.000000e+001
      vertex  1.474910e+002  2.202456e+001  0.000000e+000
    endloop
  endfacet
  facet normal -9.238785e-001 -3.826860e-001  0.000000e+000
    outer loop
      vertex  1.474910e+002  2.202456e+001  0.000000e+000
      vertex  1.482233e+002  2.025679e+001  1.000000e+001
      vertex  1.474910e+002  2.202456e+001  1.000000e+001
    endloop
  endfacet
  facet normal -9.238785e-001  3.826860e-001  0.000000e+000
    outer loop
      vertex  1.474910e+002  2.202456e+001  0.000000e+000
      vertex  1.474910e+002  2.202456e+001  1.000000e+001
      vertex  1.482233e+002  2.379232e+001  0.000000e+000
    endloop
  endfacet
  facet normal -9.238785e-001  3.826860e-001  0.000000e+000
    outer loop
      vertex  1.482233e+002  2.379232e+001  0.000000e+000
      vertex  1.474910e+002  2.202456e+001  1.000000e+001
      vertex  1.482233e+002  2.379232e+001  1.000000e+001
    endloop
  endfacet
  facet normal -3.826845e-001  9.238791e-001  0.000000e+000
    outer loop
      vertex  1.482233e+002  2.379232e+001  0.000000e+000
      vertex  1.482233e+002  2.379232e+001  1.000000e+001
      vertex  1.499910e+002  2.452456e+001  0.000000e+000
    endloop
  endfacet
  facet normal -3.826845e-001  9.238791e-001  0.000000e+000
    outer loop
      vertex  1.499910e+002  2.452456e+001  0.000000e+000
      vertex  1.482233e+002  2.379232e+001  1.000000e+001
      vertex  1.499910e+002  2.452456e+001  1.000000e+001
    endloop
  endfacet
  facet normal  3.826845e-001  9.238791e-001  0.000000e+000
    outer loop
      vertex  1.499910e+002  2.452456e+001  0.000000e+000
      vertex  1.499910e+002  2.452456e+001  1.000000e+001
      vertex  1.517588e+002  2.379232e+001  0.000000e+000
    endloop
  endfacet
  facet normal  3.826845e-001  9.238791e-001  -0.000000e+000
    outer loop
      vertex  1.517588e+002  2.379232e+001  0.000000e+000
      vertex  1.499910e+002  2.452456e+001  1.000000e+001
      vertex  1.517588e+002  2.379232e+001  1.000000e+001
    endloop
  endfacet
  facet normal  9.238785e-001  3.826860e-001  0.000000e+000
    outer loop
      vertex  1.517588e+002  2.379232e+001  0.000000e+000
      vertex  1.517588e+002  2.379232e+001  1.000000e+001
      vertex  1.524910e+002  2.202456e+001  0.000000e+000
    endloop
  endfacet
  facet normal  9.238785e-001  3.826860e-001  -0.000000e+000
    outer loop
      vertex  1.524910e+002  2.202456e+001  0.000000e+000
      vertex  1.517588e+002  2.379232e+001  1.000000e+001
      vertex  1.524910e+002  2.202456e+001  1.000000e+001
    endloop
  endfacet
  facet normal  9.238786e-001 -3.826856e-001  0.000000e+000
    outer loop
      vertex  1.924910e+002  4.202456e+001  0.000000e+000
      vertex  1.924910e+002  4.202456e+001  1.000000e+001
      vertex  1.917588e+002  4.025679e+001  0.000000e+000
    endloop
  endfacet
  facet normal  9.238786e-001 -3.826856e-001  0.000000e+000
    outer loop
      vertex  1.917588e+002  4.025679e+001  0.000000e+000
      vertex  1.924910e+002  4.202456e+001  1.000000e+001
      vertex  1.917588e+002  4.025679e+001  1.000000e+001
    endloop
  endfacet
  facet normal  3.826836e-001 -9.238794e-001  0.000000e+000
    outer loop
      vertex  1.917588e+002  4.025679e+001  0.000000e+000
      vertex  1.917588e+002  4.025679e+001  1.000000e+001
      vertex  1.899910e+002  3.952456e+001  0.000000e+000
    endloop
  endfacet
  facet normal  3.826836e-001 -9.238794e-001  0.000000e+000
    outer loop
      vertex  1.899910e+002  3.952456e+001  0.000000e+000
      vertex  1.917588e+002  4.025679e+001  1.000000e+001
      vertex  1.899910e+002  3.952456e+001  1.000000e+001
    endloop
  endfacet
  facet normal -3.826836e-001 -9.238794e-001  -0.000000e+000
    outer loop
      vertex  1.899910e+002  3.952456e+001  0.000000e+000
      vertex  1.899910e+002  3.952456e+001  1.000000e+001
      vertex  1.882233e+002  4.025679e+001  0.000000e+000
    endloop
  endfacet
  facet normal -3.826836e-001 -9.238794e-001  0.000000e+000
    outer loop
      vertex  1.882233e+002  4.025679e+001  0.000000e+000
      vertex  1.899910e+002  3.952456e+001  1.000000e+001
      vertex  1.882233e+002  4.025679e+001  1.000000e+001
    endloop
  endfacet
  facet normal -9.238786e-001 -3.826856e-001  -0.000000e+000
    outer loop
      vertex  1.882233e+002  4.025679e+001  0.000000e+000
      vertex  1.882233e+002  4.025679e+001  1.000000e+001
      vertex  1.874910e+002  4.202456e+001  0.000000e+000
    endloop
  endfacet
  facet normal -9.238786e-001 -3.826856e-001  0.000000e+000
    outer loop
      vertex  1.874910e+002  4.202456e+001  0.000000e+000
      vertex  1.882233e+002  4.025679e+001  1.000000e+001
      vertex  1.874910e+002  4.202456e+001  1.000000e+001
    endloop
  endfacet
  facet normal -9.238786e-001  3.826856e-001  0.000000e+000
    outer loop
      vertex  1.874910e+002  4.202456e+001  0.000000e+000
      vertex  1.874910e+002  4.202456e+001  1.000000e+001
      vertex  1.882233e+002  4.379232e+001  0.000000e+000
    endloop
  endfacet
  facet normal -9.238786e-001  3.826856e-001  0.000000e+000
    outer loop
      vertex  1.882233e+002  4.379232e+001  0.000000e+000
      vertex  1.874910e+002  4.202456e+001  1.000000e+001
      vertex  1.882233e+002  4.379232e+001  1.000000e+001
    endloop
  endfacet
  facet normal -3.826836e-001  9.238794e-001  0.000000e+000
    outer loop
      vertex  1.882233e+002  4.379232e+001  0.000000e+000
      vertex  1.882233e+002  4.379232e+001  1.000000e+001
      vertex  1.899910e+002  4.452456e+001  0.000000e+000
    endloop
  endfacet
  facet normal -3.826836e-001  9.238794e-001  0.000000e+000
    outer loop
      vertex  1.899910e+002  4.452456e+001  0.000000e+000
      vertex  1.882233e+002  4.379232e+001  1.000000e+001
      vertex  1.899910e+002  4.452456e+001  1.000000e+001
    endloop
  endfacet
  facet normal  3.826836e-001  9.238794e-001  0.000000e+000
    outer loop
      vertex  1.899910e+002  4.452456e+001  0.000000e+000
      vertex  1.899910e+002  4.452456e+001  1.000000e+001
      vertex  1.917588e+002  4.379232e+001  0.000000e+000
    endloop
  endfacet
  facet normal  3.826836e-001  9.238794e-001  -0.000000e+000
    outer loop
      vertex  1.917588e+002  4.379232e+001  0.000000e+000
      vertex  1.899910e+002  4.452456e+001  1.000000e+001
      vertex  1.917588e+002  4.379232e+001  1.000000e+001
    endloop
  endfacet
  facet normal  9.238786e-001  3.826856e-001  0.000000e+000
    outer loop
      vertex  1.917588e+002  4.379232e+001  0.000000e+000
      vertex  1.917588e+002  4.379232e+001  1.000000e+001
      vertex  1.924910e+002  4.202456e+001  0.000000e+000
    endloop
  endfacet
  facet normal  9.238786e-001  3.826856e-001  -0.000000e+000
    outer loop
      vertex  1.924910e+002  4.202456e+001  0.000000e+000
      vertex  1.917588e+002  4.379232e+001  1.000000e+001
      vertex  1.924910e+002  4.202456e+001  1.000000e+001
    endloop
  endfacet
  facet normal  9.238786e-001 -3.826856e-001  0.000000e+000
    outer loop
      vertex  1.524910e+002  4.202456e+001  0.000000e+000
      vertex  1.524910e+002  4.202456e+001  1.000000e+001
      vertex  1.517588e+002  4.025679e+001  0.000000e+000
    endloop
  endfacet
  facet normal  9.238786e-001 -3.826856e-001  0.000000e+000
    outer loop
      vertex  1.517588e+002  4.025679e+001  0.000000e+000
      vertex  1.524910e+002  4.202456e+001  1.000000e+001
      vertex  1.517588e+002  4.025679e+001  1.000000e+001
    endloop
  endfacet
  facet normal  3.826836e-001 -9.238794e-001  0.000000e+000
    outer loop
      vertex  1.517588e+002  4.025679e+001  0.000000e+000
      vertex  1.517588e+002  4.025679e+001  1.000000e+001
      vertex  1.499910e+002  3.952456e+001  0.000000e+000
    endloop
  endfacet
  facet normal  3.826836e-001 -9.238794e-001  0.000000e+000
    outer loop
      vertex  1.499910e+002  3.952456e+001  0.000000e+000
      vertex  1.517588e+002  4.025679e+001  1.000000e+001
      vertex  1.499910e+002  3.952456e+001  1.000000e+001
    endloop
  endfacet
  facet normal -3.826836e-001 -9.238794e-001  -0.000000e+000
    outer loop
      vertex  1.499910e+002  3.952456e+001  0.000000e+000
      vertex  1.499910e+002  3.952456e+001  1.000000e+001
      vertex  1.482233e+002  4.025679e+001  0.000000e+000
    endloop
  endfacet
  facet normal -3.826836e-001 -9.238794e-001  0.000000e+000
    outer loop
      vertex  1.482233e+002  4.025679e+001  0.000000e+000
      vertex  1.499910e+002  3.952456e+001  1.000000e+001
      vertex  1.482233e+002  4.025679e+001  1.000000e+001
    endloop
  endfacet
  facet normal -9.238786e-001 -3.826856e-001  -0.000000e+000
    outer loop
      vertex  1.482233e+002  4.025679e+001  0.000000e+000
      vertex  1.482233e+002  4.025679e+001  1.000000e+001
      vertex  1.474910e+002  4.202456e+001  0.000000e+000
    endloop
  endfacet
  facet normal -9.238786e-001 -3.826856e-001  0.000000e+000
    outer loop
      vertex  1.474910e+002  4.202456e+001  0.000000e+000
      vertex  1.482233e+002  4.025679e+001  1.000000e+001
      vertex  1.474910e+002  4.202456e+001  1.000000e+001
    endloop
  endfacet
  facet normal -9.238786e-001  3.826856e-001  0.000000e+000
    outer loop
      vertex  1.474910e+002  4.202456e+001  0.000000e+000
      vertex  1.474910e+002  4.202456e+001  1.000000e+001
      vertex  1.482233e+002  4.379232e+001  0.000000e+000
    endloop
  endfacet
  facet normal -9.238786e-001  3.826856e-001  0.000000e+000
    outer loop
      vertex  1.482233e+002  4.379232e+001  0.000000e+000
      vertex  1.474910e+002  4.202456e+001  1.000000e+001
      vertex  1.482233e+002  4.379232e+001  1.000000e+001
    endloop
  endfacet
  facet normal -3.826836e-001  9.238794e-001  0.000000e+000
    outer loop
      vertex  1.482233e+002  4.379232e+001  0.000000e+000
      vertex  1.482233e+002  4.379232e+001  1.000000e+001
      vertex  1.499910e+002  4.452456e+001  0.000000e+000
    endloop
  endfacet
  facet normal -3.826836e-001  9.238794e-001  0.000000e+000
    outer loop
      vertex  1.499910e+002  4.452456e+001  0.000000e+000
      vertex  1.482233e+002  4.379232e+001  1.000000e+001
      vertex  1.499910e+002  4.452456e+001  1.000000e+001
    endloop
  endfacet
  facet normal  3.826836e-001  9.238794e-001  0.000000e+000
    outer loop
      vertex  1.499910e+002  4.452456e+001  0.000000e+000
      vertex  1.499910e+002  4.452456e+001  1.000000e+001
      vertex  1.517588e+002  4.379232e+001  0.000000e+000
    endloop
  endfacet
  facet normal  3.826836e-001  9.238794e-001  -0.000000e+000
    outer loop
      vertex  1.517588e+002  4.379232e+001  0.000000e+000
      vertex  1.499910e+002  4.452456e+001  1.000000e+001
      vertex  1.517588e+002  4.379232e+001  1.000000e+001
    endloop
  endfacet
  facet normal  9.238786e-001  3.826856e-001  0.000000e+000
    outer loop
      vertex  1.517588e+002  4.379232e+001  0.000000e+000
      vertex  1.517588e+002  4.379232e+001  1.000000e+001
      vertex  1.524910e+002  4.202456e+001  0.000000e+000
    endloop
  endfacet
  facet normal  9.238786e-001  3.826856e-001  -0.000000e+000
    outer loop
      vertex  1.524910e+002  4.202456e+001  0.000000e+000
      vertex  1.517588e+002  4.379232e+001  1.000000e+001
      vertex  1.524910e+002  4.202456e+001  1.000000e+001
    endloop
  endfacet
  facet normal  0.000000e+000  0.000000e+000 -1.000000e+000
    outer loop
      vertex  1.899910e+002  2.452456e+001  0.000000e+000
      vertex  1.917588e+002  2.379232e+001  0.000000e+000
      vertex  1.882233e+002  2.379232e+001  0.000000e+000
    endloop
  endfacet
  facet normal  0.000000e+000  0.000000e+000 -1.000000e+000
    outer loop
      vertex  1.899910e+002  1.952456e+001  0.000000e+000
      vertex  1.882233e+002  2.025679e+001  0.000000e+000
      vertex  1.917588e+002  2.025679e+001  0.000000e+000
    endloop
  endfacet
  facet normal  0.000000e+000  0.000000e+000 -1.000000e+000
    outer loop
      vertex  1.917588e+002  2.025679e+001  0.000000e+000
      vertex  1.882233e+002  2.025679e+001  0.000000e+000
      vertex  1.874910e+002  2.202456e+001  0.000000e+000
    endloop
  endfacet
  facet normal  0.000000e+000  0.000000e+000 -1.000000e+000
    outer loop
      vertex  1.917588e+002  2.025679e+001  0.000000e+000
      vertex  1.874910e+002  2.202456e+001  0.000000e+000
      vertex  1.924910e+002  2.202456e+001  0.000000e+000
    endloop
  endfacet
  facet normal  0.000000e+000  0.000000e+000 -1.000000e+000
    outer loop
      vertex  1.924910e+002  2.202456e+001  0.000000e+000
      vertex  1.874910e+002  2.202456e+001  0.000000e+000
      vertex  1.882233e+002  2.379232e+001  0.000000e+000
    endloop
  endfacet
  facet normal  0.000000e+000  0.000000e+000 -1.000000e+000
    outer loop
      vertex  1.924910e+002  2.202456e+001  0.000000e+000
      vertex  1.882233e+002  2.379232e+001  0.000000e+000
      vertex  1.917588e+002  2.379232e+001  0.000000e+000
    endloop
  endfacet
  facet normal  0.000000e+000  0.000000e+000 -1.000000e+000
    outer loop
      vertex  1.499910e+002  2.452456e+001  0.000000e+000
      vertex  1.517588e+002  2.379232e+001  0.000000e+000
      vertex  1.482233e+002  2.379232e+001  0.000000e+000
    endloop
  endfacet
  facet normal  0.000000e+000  0.000000e+000 -1.000000e+000
    outer loop
      vertex  1.499910e+002  1.952456e+001  0.000000e+000
      vertex  1.482233e+002  2.025679e+001  0.000000e+000
      vertex  1.517588e+002  2.025679e+001  0.000000e+000
    endloop
  endfacet
  facet normal  0.000000e+000  0.000000e+000 -1.000000e+000
    outer loop
      vertex  1.517588e+002  2.025679e+001  0.000000e+000
      vertex  1.482233e+002  2.025679e+001  0.000000e+000
      vertex  1.474910e+002  2.202456e+001  0.000000e+000
    endloop
  endfacet
  facet normal  0.000000e+000  0.000000e+000 -1.000000e+000
    outer loop
      vertex  1.517588e+002  2.025679e+001  0.000000e+000
      vertex  1.474910e+002  2.202456e+001  0.000000e+000
      vertex  1.524910e+002  2.202456e+001  0.000000e+000
    endloop
  endfacet
  facet normal  0.000000e+000  0.000000e+000 -1.000000e+000
    outer loop
      vertex  1.524910e+002  2.202456e+001  0.000000e+000
      vertex  1.474910e+002  2.202456e+001  0.000000e+000
      vertex  1.482233e+002  2.379232e+001  0.000000e+000
    endloop
  endfacet
  facet normal  0.000000e+000  0.000000e+000 -1.000000e+000
    outer loop
      vertex  1.524910e+002  2.202456e+001  0.000000e+000
      vertex  1.482233e+002  2.379232e+001  0.000000e+000
      vertex  1.517588e+002  2.379232e+001  0.000000e+000
    endloop
  endfacet
  facet normal  0.000000e+000  0.000000e+000 -1.000000e+000
    outer loop
      vertex  1.899910e+002  4.452456e+001  0.000000e+000
      vertex  1.917588e+002  4.379232e+001  0.000000e+000
      vertex  1.882233e+002  4.379232e+001  0.000000e+000
    endloop
  endfacet
  facet normal  0.000000e+000  0.000000e+000 -1.000000e+000
    outer loop
      vertex  1.899910e+002  3.952456e+001  0.000000e+000
      vertex  1.882233e+002  4.025679e+001  0.000000e+000
      vertex  1.917588e+002  4.025679e+001  0.000000e+000
    endloop
  endfacet
  facet normal  0.000000e+000  0.000000e+000 -1.000000e+000
    outer loop
      vertex  1.917588e+002  4.025679e+001  0.000000e+000
      vertex  1.882233e+002  4.025679e+001  0.000000e+000
      vertex  1.874910e+002  4.202456e+001  0.000000e+000
    endloop
  endfacet
  facet normal  0.000000e+000  0.000000e+000 -1.000000e+000
    outer loop
      vertex  1.917588e+002  4.025679e+001  0.000000e+000
      vertex  1.874910e+002  4.202456e+001  0.000000e+000
      vertex  1.924910e+002  4.202456e+001  0.000000e+000
    endloop
  endfacet
  facet normal  0.000000e+000  0.000000e+000 -1.000000e+000
    outer loop
      vertex  1.924910e+002  4.202456e+001  0.000000e+000
      vertex  1.874910e+002  4.202456e+001  0.000000e+000
      vertex  1.882233e+002  4.379232e+001  0.000000e+000
    endloop
  endfacet
  facet normal  0.000000e+000  0.000000e+000 -1.000000e+000
    outer loop
      vertex  1.924910e+002  4.202456e+001  0.000000e+000
      vertex  1.882233e+002  4.379232e+001  0.000000e+000
      vertex  1.917588e+002  4.379232e+001  0.000000e+000
    endloop
  endfacet
  facet normal  0.000000e+000  0.000000e+000 -1.000000e+000
    outer loop
      vertex  1.499910e+002  4.452456e+001  0.000000e+000
      vertex  1.517588e+002  4.379232e+001  0.000000e+000
      vertex  1.482233e+002  4.379232e+001  0.000000e+000
    endloop
  endfacet
  facet normal  0.000000e+000  0.000000e+000 -1.000000e+000
    outer loop
      vertex  1.499910e+002  3.952456e+001  0.000000e+000
      vertex  1.482233e+002  4.025679e+001  0.000000e+000
      vertex  1.517588e+002  4.025679e+001  0.000000e+000
    endloop
  endfacet
  facet normal  0.000000e+000  0.000000e+000 -1.000000e+000
    outer loop
      vertex  1.517588e+002  4.025679e+001  0.000000e+000
      vertex  1.482233e+002  4.025679e+001  0.000000e+000
      vertex  1.474910e+002  4.202456e+001  0.000000e+000
    endloop
  endfacet
  facet normal  0.000000e+000  0.000000e+000 -1.000000e+000
    outer loop
      vertex  1.517588e+002  4.025679e+001  0.000000e+000
      vertex  1.474910e+002  4.202456e+001  0.000000e+000
      vertex  1.524910e+002  4.202456e+001  0.000000e+000
    endloop
  endfacet
  facet normal  0.000000e+000  0.000000e+000 -1.000000e+000
    outer loop
      vertex  1.524910e+002  4.202456e+001  0.000000e+000
      vertex  1.474910e+002  4.202456e+001  0.000000e+000
      vertex  1.482233e+002  4.379232e+001  0.000000e+000
    endloop
  endfacet
  facet normal  0.000000e+000  0.000000e+000 -1.000000e+000
    outer loop
      vertex  1.524910e+002  4.202456e+001  0.000000e+000
      vertex  1.482233e+002  4.379232e+001  0.000000e+000
      vertex  1.517588e+002  4.379232e+001  0.000000e+000
    endloop
  endfacet
endsolid CATIA STL
