solid CATIA STL
  facet normal  0.000000e+000  0.000000e+000 -1.000000e+000
    outer loop
      vertex  3.455190e+001  0.000000e+000  3.000000e+001
      vertex  3.455190e+001 -1.000000e+001  3.000000e+001
      vertex  1.455190e+001 -1.000000e+001  3.000000e+001
    endloop
  endfacet
  facet normal  0.000000e+000  0.000000e+000 -1.000000e+000
    outer loop
      vertex  3.455190e+001  0.000000e+000  3.000000e+001
      vertex  1.455190e+001 -1.000000e+001  3.000000e+001
      vertex  1.455190e+001 -9.000000e+000  3.000000e+001
    endloop
  endfacet
  facet normal  0.000000e+000  0.000000e+000 -1.000000e+000
    outer loop
      vertex  3.455190e+001  0.000000e+000  3.000000e+001
      vertex  1.455190e+001 -9.000000e+000  3.000000e+001
      vertex  1.455190e+001 -1.000000e+000  3.000000e+001
    endloop
  endfacet
  facet normal  0.000000e+000  0.000000e+000 -1.000000e+000
    outer loop
      vertex  3.455190e+001  0.000000e+000  3.000000e+001
      vertex  1.455190e+001 -1.000000e+000  3.000000e+001
      vertex  1.455190e+001  0.000000e+000  3.000000e+001
    endloop
  endfacet
  facet normal  -0.000000e+000  0.000000e+000 -1.000000e+000
    outer loop
      vertex -1.544810e+001 -1.000000e+000  3.000000e+001
      vertex  1.455190e+001 -1.000000e+000  3.000000e+001
      vertex -1.544810e+001 -9.000000e+000  3.000000e+001
    endloop
  endfacet
  facet normal  0.000000e+000  0.000000e+000 -1.000000e+000
    outer loop
      vertex -1.544810e+001 -9.000000e+000  3.000000e+001
      vertex  1.455190e+001 -1.000000e+000  3.000000e+001
      vertex  1.455190e+001 -9.000000e+000  3.000000e+001
    endloop
  endfacet
  facet normal  0.000000e+000 -1.000000e+000  -0.000000e+000
    outer loop
      vertex  1.455190e+001 -1.000000e+000  0.000000e+000
      vertex  1.455190e+001 -1.000000e+000  3.000000e+001
      vertex -1.544810e+001 -1.000000e+000  0.000000e+000
    endloop
  endfacet
  facet normal  0.000000e+000 -1.000000e+000  0.000000e+000
    outer loop
      vertex -1.544810e+001 -1.000000e+000  0.000000e+000
      vertex  1.455190e+001 -1.000000e+000  3.000000e+001
      vertex -1.544810e+001 -1.000000e+000  3.000000e+001
    endloop
  endfacet
  facet normal  0.000000e+000  1.000000e+000  -0.000000e+000
    outer loop
      vertex  1.455190e+001 -9.000000e+000  3.000000e+001
      vertex  1.455190e+001 -9.000000e+000  0.000000e+000
      vertex -1.544810e+001 -9.000000e+000  3.000000e+001
    endloop
  endfacet
  facet normal  0.000000e+000  1.000000e+000  0.000000e+000
    outer loop
      vertex -1.544810e+001 -9.000000e+000  3.000000e+001
      vertex  1.455190e+001 -9.000000e+000  0.000000e+000
      vertex -1.544810e+001 -9.000000e+000  0.000000e+000
    endloop
  endfacet
  facet normal  0.000000e+000  -0.000000e+000 -9.999999e-001
    outer loop
      vertex -1.004481e+002 -1.000000e+001  0.000000e+000
      vertex  1.455190e+001 -9.000000e+000  0.000000e+000
      vertex  1.455190e+001 -1.000000e+001  0.000000e+000
    endloop
  endfacet
  facet normal  0.000000e+000  0.000000e+000 -1.000000e+000
    outer loop
      vertex  1.455190e+001 -9.000000e+000  0.000000e+000
      vertex -1.004481e+002 -1.000000e+001  0.000000e+000
      vertex -1.544810e+001 -9.000000e+000  0.000000e+000
    endloop
  endfacet
  facet normal  -0.000000e+000  0.000000e+000 -9.999999e-001
    outer loop
      vertex -1.544810e+001 -9.000000e+000  0.000000e+000
      vertex -1.004481e+002 -1.000000e+001  0.000000e+000
      vertex -1.004481e+002  0.000000e+000  0.000000e+000
    endloop
  endfacet
  facet normal  0.000000e+000  0.000000e+000 -1.000000e+000
    outer loop
      vertex -1.544810e+001 -9.000000e+000  0.000000e+000
      vertex -1.004481e+002  0.000000e+000  0.000000e+000
      vertex -1.544810e+001 -1.000000e+000  0.000000e+000
    endloop
  endfacet
  facet normal  0.000000e+000  0.000000e+000 -9.999999e-001
    outer loop
      vertex -1.544810e+001 -1.000000e+000  0.000000e+000
      vertex -1.004481e+002  0.000000e+000  0.000000e+000
      vertex  1.455190e+001  0.000000e+000  0.000000e+000
    endloop
  endfacet
  facet normal  0.000000e+000  -0.000000e+000 -1.000000e+000
    outer loop
      vertex -1.544810e+001 -1.000000e+000  0.000000e+000
      vertex  1.455190e+001  0.000000e+000  0.000000e+000
      vertex  1.455190e+001 -1.000000e+000  0.000000e+000
    endloop
  endfacet
  facet normal  1.000000e+000  0.000000e+000  0.000000e+000
    outer loop
      vertex  1.455190e+001 -1.000000e+001  0.000000e+000
      vertex  1.455190e+001 -9.000000e+000  0.000000e+000
      vertex  1.455190e+001 -1.000000e+001  3.000000e+001
    endloop
  endfacet
  facet normal  1.000000e+000  -0.000000e+000  0.000000e+000
    outer loop
      vertex  1.455190e+001 -1.000000e+001  3.000000e+001
      vertex  1.455190e+001 -9.000000e+000  0.000000e+000
      vertex  1.455190e+001 -9.000000e+000  3.000000e+001
    endloop
  endfacet
  facet normal  1.000000e+000  0.000000e+000  0.000000e+000
    outer loop
      vertex  1.455190e+001 -1.000000e+000  0.000000e+000
      vertex  1.455190e+001  0.000000e+000  0.000000e+000
      vertex  1.455190e+001 -1.000000e+000  3.000000e+001
    endloop
  endfacet
  facet normal  1.000000e+000  -0.000000e+000  0.000000e+000
    outer loop
      vertex  1.455190e+001 -1.000000e+000  3.000000e+001
      vertex  1.455190e+001  0.000000e+000  0.000000e+000
      vertex  1.455190e+001  0.000000e+000  3.000000e+001
    endloop
  endfacet
  facet normal  1.000000e+000  0.000000e+000  0.000000e+000
    outer loop
      vertex -1.544810e+001 -9.000000e+000  0.000000e+000
      vertex -1.544810e+001 -1.000000e+000  0.000000e+000
      vertex -1.544810e+001 -9.000000e+000  3.000000e+001
    endloop
  endfacet
  facet normal  1.000000e+000  -0.000000e+000  0.000000e+000
    outer loop
      vertex -1.544810e+001 -9.000000e+000  3.000000e+001
      vertex -1.544810e+001 -1.000000e+000  0.000000e+000
      vertex -1.544810e+001 -1.000000e+000  3.000000e+001
    endloop
  endfacet
  facet normal  0.000000e+000  1.000000e+000 -1.657933e-015
    outer loop
      vertex  3.455190e+001  0.000000e+000  3.000000e+001
      vertex  1.493228e+002  0.000000e+000  3.000000e+001
      vertex  3.455190e+001 -4.973799e-014  0.000000e+000
    endloop
  endfacet
  facet normal  0.000000e+000  1.000000e+000 -1.657933e-015
    outer loop
      vertex  3.455190e+001 -4.973799e-014  0.000000e+000
      vertex  1.493228e+002  0.000000e+000  3.000000e+001
      vertex  1.495519e+002  0.000000e+000  3.000000e+001
    endloop
  endfacet
  facet normal -4.325043e-016  9.999999e-001  0.000000e+000
    outer loop
      vertex  3.455190e+001 -4.973799e-014  0.000000e+000
      vertex  1.495519e+002  0.000000e+000  3.000000e+001
      vertex  1.495519e+002  0.000000e+000  0.000000e+000
    endloop
  endfacet
  facet normal  0.000000e+000  1.000000e+000  0.000000e+000
    outer loop
      vertex  1.493228e+002  0.000000e+000  3.000000e+001
      vertex  3.455190e+001  0.000000e+000  3.000000e+001
      vertex  1.493228e+002  0.000000e+000  5.000000e+001
    endloop
  endfacet
  facet normal  0.000000e+000  1.000000e+000  0.000000e+000
    outer loop
      vertex  1.493228e+002  0.000000e+000  5.000000e+001
      vertex  3.455190e+001  0.000000e+000  3.000000e+001
      vertex  1.455190e+001  0.000000e+000  3.000000e+001
    endloop
  endfacet
  facet normal  4.987308e-017  1.000000e+000 -3.360721e-016
    outer loop
      vertex  1.493228e+002  0.000000e+000  5.000000e+001
      vertex  1.455190e+001  0.000000e+000  3.000000e+001
      vertex -1.000000e+002  1.243450e-014  5.000000e+001
    endloop
  endfacet
  facet normal  1.085490e-016  9.999999e-001  0.000000e+000
    outer loop
      vertex -1.000000e+002  1.243450e-014  5.000000e+001
      vertex  1.455190e+001  0.000000e+000  3.000000e+001
      vertex  1.455190e+001  0.000000e+000  0.000000e+000
    endloop
  endfacet
  facet normal -1.628236e-016  1.000000e+000 -6.217249e-016
    outer loop
      vertex -1.000000e+002  1.243450e-014  5.000000e+001
      vertex  1.455190e+001  0.000000e+000  0.000000e+000
      vertex -1.000000e+002  0.000000e+000  3.000000e+001
    endloop
  endfacet
  facet normal  0.000000e+000  9.999999e-001  0.000000e+000
    outer loop
      vertex -1.000000e+002  0.000000e+000  3.000000e+001
      vertex  1.455190e+001  0.000000e+000  0.000000e+000
      vertex -1.004481e+002  0.000000e+000  0.000000e+000
    endloop
  endfacet
  facet normal  0.000000e+000  1.000000e+000  0.000000e+000
    outer loop
      vertex -1.000000e+002  0.000000e+000  3.000000e+001
      vertex -1.004481e+002  0.000000e+000  0.000000e+000
      vertex -1.004481e+002  0.000000e+000  3.000000e+001
    endloop
  endfacet
  facet normal  0.000000e+000 -9.999999e-001  0.000000e+000
    outer loop
      vertex  1.455190e+001 -1.000000e+001  3.000000e+001
      vertex -1.000000e+002 -1.000000e+001  3.000000e+001
      vertex  1.455190e+001 -1.000000e+001  0.000000e+000
    endloop
  endfacet
  facet normal  0.000000e+000 -1.000000e+000  0.000000e+000
    outer loop
      vertex  1.455190e+001 -1.000000e+001  0.000000e+000
      vertex -1.000000e+002 -1.000000e+001  3.000000e+001
      vertex -1.004481e+002 -1.000000e+001  3.000000e+001
    endloop
  endfacet
  facet normal  0.000000e+000 -9.999999e-001  0.000000e+000
    outer loop
      vertex  1.455190e+001 -1.000000e+001  0.000000e+000
      vertex -1.004481e+002 -1.000000e+001  3.000000e+001
      vertex -1.004481e+002 -1.000000e+001  0.000000e+000
    endloop
  endfacet
  facet normal  0.000000e+000 -1.000000e+000  0.000000e+000
    outer loop
      vertex -1.000000e+002 -1.000000e+001  3.000000e+001
      vertex  1.455190e+001 -1.000000e+001  3.000000e+001
      vertex -1.000000e+002 -1.000000e+001  5.000000e+001
    endloop
  endfacet
  facet normal  0.000000e+000 -1.000000e+000  0.000000e+000
    outer loop
      vertex -1.000000e+002 -1.000000e+001  5.000000e+001
      vertex  1.455190e+001 -1.000000e+001  3.000000e+001
      vertex  3.455190e+001 -1.000000e+001  3.000000e+001
    endloop
  endfacet
  facet normal  0.000000e+000 -1.000000e+000  0.000000e+000
    outer loop
      vertex -1.000000e+002 -1.000000e+001  5.000000e+001
      vertex  3.455190e+001 -1.000000e+001  3.000000e+001
      vertex  1.493228e+002 -1.000000e+001  5.000000e+001
    endloop
  endfacet
  facet normal  0.000000e+000 -1.000000e+000  0.000000e+000
    outer loop
      vertex  1.493228e+002 -1.000000e+001  5.000000e+001
      vertex  3.455190e+001 -1.000000e+001  3.000000e+001
      vertex  3.455190e+001 -1.000000e+001  0.000000e+000
    endloop
  endfacet
  facet normal  0.000000e+000 -1.000000e+000  0.000000e+000
    outer loop
      vertex  1.493228e+002 -1.000000e+001  5.000000e+001
      vertex  3.455190e+001 -1.000000e+001  0.000000e+000
      vertex  1.493228e+002 -1.000000e+001  3.000000e+001
    endloop
  endfacet
  facet normal  0.000000e+000 -9.999999e-001  -0.000000e+000
    outer loop
      vertex  1.493228e+002 -1.000000e+001  3.000000e+001
      vertex  3.455190e+001 -1.000000e+001  0.000000e+000
      vertex  1.495519e+002 -1.000000e+001  0.000000e+000
    endloop
  endfacet
  facet normal  0.000000e+000 -1.000000e+000  0.000000e+000
    outer loop
      vertex  1.493228e+002 -1.000000e+001  3.000000e+001
      vertex  1.495519e+002 -1.000000e+001  0.000000e+000
      vertex  1.495519e+002 -1.000000e+001  3.000000e+001
    endloop
  endfacet
  facet normal  1.000000e+000  0.000000e+000  0.000000e+000
    outer loop
      vertex  1.493228e+002 -1.000000e+001  3.000000e+001
      vertex  1.493228e+002  0.000000e+000  3.000000e+001
      vertex  1.493228e+002 -1.000000e+001  5.000000e+001
    endloop
  endfacet
  facet normal  1.000000e+000  -0.000000e+000  0.000000e+000
    outer loop
      vertex  1.493228e+002 -1.000000e+001  5.000000e+001
      vertex  1.493228e+002  0.000000e+000  3.000000e+001
      vertex  1.493228e+002  0.000000e+000  5.000000e+001
    endloop
  endfacet
  facet normal -1.000000e+000  0.000000e+000  0.000000e+000
    outer loop
      vertex -1.000000e+002  0.000000e+000  3.000000e+001
      vertex -1.000000e+002 -1.000000e+001  3.000000e+001
      vertex -1.000000e+002  1.243450e-014  5.000000e+001
    endloop
  endfacet
  facet normal -1.000000e+000  -0.000000e+000  0.000000e+000
    outer loop
      vertex -1.000000e+002  1.243450e-014  5.000000e+001
      vertex -1.000000e+002 -1.000000e+001  3.000000e+001
      vertex -1.000000e+002 -1.000000e+001  5.000000e+001
    endloop
  endfacet
  facet normal  0.000000e+000  0.000000e+000  1.000000e+000
    outer loop
      vertex  1.493228e+002 -1.000000e+001  3.000000e+001
      vertex  1.495519e+002 -1.000000e+001  3.000000e+001
      vertex  1.493228e+002  0.000000e+000  3.000000e+001
    endloop
  endfacet
  facet normal  -0.000000e+000  0.000000e+000  1.000000e+000
    outer loop
      vertex  1.493228e+002  0.000000e+000  3.000000e+001
      vertex  1.495519e+002 -1.000000e+001  3.000000e+001
      vertex  1.495519e+002  0.000000e+000  3.000000e+001
    endloop
  endfacet
  facet normal  0.000000e+000  0.000000e+000  1.000000e+000
    outer loop
      vertex -1.004481e+002 -1.000000e+001  3.000000e+001
      vertex -1.000000e+002 -1.000000e+001  3.000000e+001
      vertex -1.004481e+002  0.000000e+000  3.000000e+001
    endloop
  endfacet
  facet normal  -0.000000e+000  0.000000e+000  1.000000e+000
    outer loop
      vertex -1.004481e+002  0.000000e+000  3.000000e+001
      vertex -1.000000e+002 -1.000000e+001  3.000000e+001
      vertex -1.000000e+002  0.000000e+000  3.000000e+001
    endloop
  endfacet
  facet normal -1.000000e+000  0.000000e+000  0.000000e+000
    outer loop
      vertex  3.455190e+001 -4.973799e-014  0.000000e+000
      vertex  3.455190e+001 -1.000000e+001  0.000000e+000
      vertex  3.455190e+001  0.000000e+000  3.000000e+001
    endloop
  endfacet
  facet normal -1.000000e+000  -0.000000e+000  0.000000e+000
    outer loop
      vertex  3.455190e+001  0.000000e+000  3.000000e+001
      vertex  3.455190e+001 -1.000000e+001  0.000000e+000
      vertex  3.455190e+001 -1.000000e+001  3.000000e+001
    endloop
  endfacet
  facet normal  0.000000e+000  0.000000e+000  1.000000e+000
    outer loop
      vertex -1.000000e+002 -1.000000e+001  5.000000e+001
      vertex  1.493228e+002 -1.000000e+001  5.000000e+001
      vertex -1.000000e+002  1.243450e-014  5.000000e+001
    endloop
  endfacet
  facet normal  0.000000e+000  0.000000e+000  1.000000e+000
    outer loop
      vertex -1.000000e+002  1.243450e-014  5.000000e+001
      vertex  1.493228e+002 -1.000000e+001  5.000000e+001
      vertex  1.493228e+002  0.000000e+000  5.000000e+001
    endloop
  endfacet
  facet normal  0.000000e+000  0.000000e+000 -1.000000e+000
    outer loop
      vertex  3.455190e+001 -1.000000e+001  0.000000e+000
      vertex  3.455190e+001 -4.973799e-014  0.000000e+000
      vertex  1.495519e+002 -1.000000e+001  0.000000e+000
    endloop
  endfacet
  facet normal  0.000000e+000  0.000000e+000 -1.000000e+000
    outer loop
      vertex  1.495519e+002 -1.000000e+001  0.000000e+000
      vertex  3.455190e+001 -4.973799e-014  0.000000e+000
      vertex  1.495519e+002  0.000000e+000  0.000000e+000
    endloop
  endfacet
  facet normal  1.000000e+000  0.000000e+000  0.000000e+000
    outer loop
      vertex  1.495519e+002 -1.000000e+001  0.000000e+000
      vertex  1.495519e+002  0.000000e+000  0.000000e+000
      vertex  1.495519e+002 -1.000000e+001  3.000000e+001
    endloop
  endfacet
  facet normal  1.000000e+000  -0.000000e+000  0.000000e+000
    outer loop
      vertex  1.495519e+002 -1.000000e+001  3.000000e+001
      vertex  1.495519e+002  0.000000e+000  0.000000e+000
      vertex  1.495519e+002  0.000000e+000  3.000000e+001
    endloop
  endfacet
  facet normal -1.000000e+000  0.000000e+000  0.000000e+000
    outer loop
      vertex -1.004481e+002  0.000000e+000  0.000000e+000
      vertex -1.004481e+002 -1.000000e+001  0.000000e+000
      vertex -1.004481e+002  0.000000e+000  3.000000e+001
    endloop
  endfacet
  facet normal -1.000000e+000  -0.000000e+000  0.000000e+000
    outer loop
      vertex -1.004481e+002  0.000000e+000  3.000000e+001
      vertex -1.004481e+002 -1.000000e+001  0.000000e+000
      vertex -1.004481e+002 -1.000000e+001  3.000000e+001
    endloop
  endfacet
endsolid CATIA STL
