solid CATIA STL
  facet normal  0.000000e+000  0.000000e+000  1.000000e+000
    outer loop
      vertex  7.559311e+000  4.943037e+001  5.200000e+002
      vertex  2.467559e+001  6.287237e+001  5.200000e+002
      vertex  1.502934e+001  6.584784e+001  5.200000e+002
    endloop
  endfacet
  facet normal  -0.000000e+000  0.000000e+000  1.000000e+000
    outer loop
      vertex -2.597358e+001  4.269811e+001  5.200000e+002
      vertex -5.580519e+001  3.804734e+001  5.200000e+002
      vertex -3.299301e+001  3.753199e+001  5.200000e+002
    endloop
  endfacet
  facet normal  0.000000e+000  -0.000000e+000  1.000000e+000
    outer loop
      vertex  1.221054e+000 -4.998727e+001  5.200000e+002
      vertex  5.047363e+000 -6.735239e+001  5.200000e+002
      vertex  1.502934e+001 -6.584784e+001  5.200000e+002
    endloop
  endfacet
  facet normal  0.000000e+000  -0.000000e+000  1.000000e+000
    outer loop
      vertex  1.221054e+000 -4.998727e+001  5.200000e+002
      vertex  1.502934e+001 -6.584784e+001  5.200000e+002
      vertex  2.467559e+001 -6.287237e+001  5.200000e+002
    endloop
  endfacet
  facet normal  0.000000e+000  -0.000000e+000  9.999999e-001
    outer loop
      vertex  1.221054e+000 -4.998727e+001  5.200000e+002
      vertex  2.467559e+001 -6.287237e+001  5.200000e+002
      vertex  3.377062e+001 -5.849243e+001  5.200000e+002
    endloop
  endfacet
  facet normal  0.000000e+000  -0.000000e+000  1.000000e+000
    outer loop
      vertex  1.221054e+000 -4.998727e+001  5.200000e+002
      vertex  3.377062e+001 -5.849243e+001  5.200000e+002
      vertex  4.211127e+001 -5.280587e+001  5.200000e+002
    endloop
  endfacet
  facet normal  0.000000e+000  0.000000e+000  1.000000e+000
    outer loop
      vertex  1.221054e+000 -4.998727e+001  5.200000e+002
      vertex  4.211127e+001 -5.280587e+001  5.200000e+002
      vertex  9.883121e+000 -4.902299e+001  5.200000e+002
    endloop
  endfacet
  facet normal  0.000000e+000  -0.000000e+000  1.000000e+000
    outer loop
      vertex -1.138604e+000  4.998489e+001  5.200000e+002
      vertex  7.559311e+000  4.943037e+001  5.200000e+002
      vertex  1.502934e+001  6.584784e+001  5.200000e+002
    endloop
  endfacet
  facet normal  0.000000e+000  0.000000e+000  1.000000e+000
    outer loop
      vertex -1.138604e+000  4.998489e+001  5.200000e+002
      vertex  1.502934e+001  6.584784e+001  5.200000e+002
      vertex  5.047363e+000  6.735239e+001  5.200000e+002
    endloop
  endfacet
  facet normal  0.000000e+000  0.000000e+000  1.000000e+000
    outer loop
      vertex -1.138604e+000  4.998489e+001  5.200000e+002
      vertex  5.047363e+000  6.735239e+001  5.200000e+002
      vertex -5.047363e+000  6.735239e+001  5.200000e+002
    endloop
  endfacet
  facet normal  0.000000e+000  0.000000e+000  1.000000e+000
    outer loop
      vertex -1.138604e+000  4.998489e+001  5.200000e+002
      vertex -5.047363e+000  6.735239e+001  5.200000e+002
      vertex -1.502934e+001  6.584784e+001  5.200000e+002
    endloop
  endfacet
  facet normal  0.000000e+000  0.000000e+000  1.000000e+000
    outer loop
      vertex -1.138604e+000  4.998489e+001  5.200000e+002
      vertex -1.502934e+001  6.584784e+001  5.200000e+002
      vertex -2.467559e+001  6.287237e+001  5.200000e+002
    endloop
  endfacet
  facet normal  0.000000e+000  0.000000e+000  1.000000e+000
    outer loop
      vertex -1.138604e+000  4.998489e+001  5.200000e+002
      vertex -2.467559e+001  6.287237e+001  5.200000e+002
      vertex -3.377062e+001  5.849243e+001  5.200000e+002
    endloop
  endfacet
  facet normal  0.000000e+000  0.000000e+000  1.000000e+000
    outer loop
      vertex -1.138604e+000  4.998489e+001  5.200000e+002
      vertex -3.377062e+001  5.849243e+001  5.200000e+002
      vertex -4.211127e+001  5.280587e+001  5.200000e+002
    endloop
  endfacet
  facet normal  0.000000e+000  0.000000e+000  9.999999e-001
    outer loop
      vertex -4.951123e+001  4.593971e+001  5.200000e+002
      vertex -5.580519e+001  3.804734e+001  5.200000e+002
      vertex -2.597358e+001  4.269811e+001  5.200000e+002
    endloop
  endfacet
  facet normal  0.000000e+000  -0.000000e+000  1.000000e+000
    outer loop
      vertex -4.951123e+001  4.593971e+001  5.200000e+002
      vertex -2.597358e+001  4.269811e+001  5.200000e+002
      vertex -1.816370e+001  4.656684e+001  5.200000e+002
    endloop
  endfacet
  facet normal  0.000000e+000  -0.000000e+000  1.000000e+000
    outer loop
      vertex -4.951123e+001  4.593971e+001  5.200000e+002
      vertex -1.816370e+001  4.656684e+001  5.200000e+002
      vertex -9.800672e+000  4.902061e+001  5.200000e+002
    endloop
  endfacet
  facet normal  0.000000e+000  -0.000000e+000  1.000000e+000
    outer loop
      vertex -4.951123e+001  4.593971e+001  5.200000e+002
      vertex -9.800672e+000  4.902061e+001  5.200000e+002
      vertex -1.138604e+000  4.998489e+001  5.200000e+002
    endloop
  endfacet
  facet normal  0.000000e+000  0.000000e+000  1.000000e+000
    outer loop
      vertex -4.951123e+001  4.593971e+001  5.200000e+002
      vertex -1.138604e+000  4.998489e+001  5.200000e+002
      vertex -4.211127e+001  5.280587e+001  5.200000e+002
    endloop
  endfacet
  facet normal  0.000000e+000  0.000000e+000  1.000000e+000
    outer loop
      vertex  5.047363e+000 -6.735239e+001  5.200000e+002
      vertex  1.221054e+000 -4.998727e+001  5.200000e+002
      vertex -5.047363e+000 -6.735239e+001  5.200000e+002
    endloop
  endfacet
  facet normal  0.000000e+000  -0.000000e+000  1.000000e+000
    outer loop
      vertex -5.047363e+000 -6.735239e+001  5.200000e+002
      vertex  1.221054e+000 -4.998727e+001  5.200000e+002
      vertex -7.476861e+000 -4.943274e+001  5.200000e+002
    endloop
  endfacet
  facet normal  0.000000e+000  0.000000e+000  9.999999e-001
    outer loop
      vertex -5.047363e+000 -6.735239e+001  5.200000e+002
      vertex -7.476861e+000 -4.943274e+001  5.200000e+002
      vertex -1.502934e+001 -6.584784e+001  5.200000e+002
    endloop
  endfacet
  facet normal  0.000000e+000  -0.000000e+000  1.000000e+000
    outer loop
      vertex -1.502934e+001 -6.584784e+001  5.200000e+002
      vertex -7.476861e+000 -4.943274e+001  5.200000e+002
      vertex -4.211127e+001 -5.280587e+001  5.200000e+002
    endloop
  endfacet
  facet normal  0.000000e+000  0.000000e+000  1.000000e+000
    outer loop
      vertex -1.502934e+001 -6.584784e+001  5.200000e+002
      vertex -4.211127e+001 -5.280587e+001  5.200000e+002
      vertex -2.467559e+001 -6.287237e+001  5.200000e+002
    endloop
  endfacet
  facet normal  0.000000e+000  0.000000e+000  1.000000e+000
    outer loop
      vertex -2.467559e+001 -6.287237e+001  5.200000e+002
      vertex -4.211127e+001 -5.280587e+001  5.200000e+002
      vertex -3.377062e+001 -5.849243e+001  5.200000e+002
    endloop
  endfacet
  facet normal  0.000000e+000  0.000000e+000  1.000000e+000
    outer loop
      vertex  3.377062e+001  5.849243e+001  5.200000e+002
      vertex  2.467559e+001  6.287237e+001  5.200000e+002
      vertex  4.211127e+001  5.280587e+001  5.200000e+002
    endloop
  endfacet
  facet normal  0.000000e+000  0.000000e+000  1.000000e+000
    outer loop
      vertex  4.211127e+001  5.280587e+001  5.200000e+002
      vertex  2.467559e+001  6.287237e+001  5.200000e+002
      vertex  7.559311e+000  4.943037e+001  5.200000e+002
    endloop
  endfacet
  facet normal  -0.000000e+000  0.000000e+000  1.000000e+000
    outer loop
      vertex  4.211127e+001  5.280587e+001  5.200000e+002
      vertex  7.559311e+000  4.943037e+001  5.200000e+002
      vertex  4.951123e+001  4.593971e+001  5.200000e+002
    endloop
  endfacet
  facet normal  0.000000e+000  0.000000e+000  1.000000e+000
    outer loop
      vertex  4.951123e+001  4.593971e+001  5.200000e+002
      vertex  7.559311e+000  4.943037e+001  5.200000e+002
      vertex  1.602879e+001  4.737389e+001  5.200000e+002
    endloop
  endfacet
  facet normal  0.000000e+000  0.000000e+000  1.000000e+000
    outer loop
      vertex  4.951123e+001  4.593971e+001  5.200000e+002
      vertex  1.602879e+001  4.737389e+001  5.200000e+002
      vertex  5.580519e+001  3.804734e+001  5.200000e+002
    endloop
  endfacet
  facet normal  0.000000e+000  0.000000e+000  1.000000e+000
    outer loop
      vertex  5.580519e+001  3.804734e+001  5.200000e+002
      vertex  1.602879e+001  4.737389e+001  5.200000e+002
      vertex  2.401250e+001  4.387794e+001  5.200000e+002
    endloop
  endfacet
  facet normal  0.000000e+000  0.000000e+000  1.000000e+000
    outer loop
      vertex  5.580519e+001  3.804734e+001  5.200000e+002
      vertex  2.401250e+001  4.387794e+001  5.200000e+002
      vertex  3.126785e+001  3.904875e+001  5.200000e+002
    endloop
  endfacet
  facet normal  0.000000e+000  0.000000e+000  1.000000e+000
    outer loop
      vertex -3.299301e+001  3.753199e+001  5.200000e+002
      vertex -5.580519e+001  3.804734e+001  5.200000e+002
      vertex -3.900871e+001  3.122544e+001  5.200000e+002
    endloop
  endfacet
  facet normal  0.000000e+000  0.000000e+000  1.000000e+000
    outer loop
      vertex -3.900871e+001  3.122544e+001  5.200000e+002
      vertex -5.580519e+001  3.804734e+001  5.200000e+002
      vertex -6.085256e+001  2.930505e+001  5.200000e+002
    endloop
  endfacet
  facet normal  -0.000000e+000  0.000000e+000  1.000000e+000
    outer loop
      vertex -3.900871e+001  3.122544e+001  5.200000e+002
      vertex -6.085256e+001  2.930505e+001  5.200000e+002
      vertex -4.383790e+001  2.397009e+001  5.200000e+002
    endloop
  endfacet
  facet normal  0.000000e+000  0.000000e+000  1.000000e+000
    outer loop
      vertex -4.383790e+001  2.397009e+001  5.200000e+002
      vertex -6.085256e+001  2.930505e+001  5.200000e+002
      vertex -6.454057e+001  1.990813e+001  5.200000e+002
    endloop
  endfacet
  facet normal  -0.000000e+000  0.000000e+000  1.000000e+000
    outer loop
      vertex -4.383790e+001  2.397009e+001  5.200000e+002
      vertex -6.454057e+001  1.990813e+001  5.200000e+002
      vertex -4.733385e+001  1.598638e+001  5.200000e+002
    endloop
  endfacet
  facet normal  0.000000e+000  0.000000e+000  9.999999e-001
    outer loop
      vertex -4.733385e+001  1.598638e+001  5.200000e+002
      vertex -6.454057e+001  1.990813e+001  5.200000e+002
      vertex -4.939033e+001  7.516900e+000  5.200000e+002
    endloop
  endfacet
  facet normal  0.000000e+000  0.000000e+000  1.000000e+000
    outer loop
      vertex -4.939033e+001  7.516900e+000  5.200000e+002
      vertex -6.454057e+001  1.990813e+001  5.200000e+002
      vertex -6.678687e+001  1.006650e+001  5.200000e+002
    endloop
  endfacet
  facet normal  0.000000e+000  0.000000e+000  1.000000e+000
    outer loop
      vertex -4.939033e+001  7.516900e+000  5.200000e+002
      vertex -6.678687e+001  1.006650e+001  5.200000e+002
      vertex -4.994485e+001 -1.181016e+000  5.200000e+002
    endloop
  endfacet
  facet normal  0.000000e+000  0.000000e+000  1.000000e+000
    outer loop
      vertex -4.994485e+001 -1.181016e+000  5.200000e+002
      vertex -6.678687e+001  1.006650e+001  5.200000e+002
      vertex -6.754124e+001  8.271144e-015  5.200000e+002
    endloop
  endfacet
  facet normal  0.000000e+000  0.000000e+000  1.000000e+000
    outer loop
      vertex -4.994485e+001 -1.181016e+000  5.200000e+002
      vertex -6.754124e+001  8.271144e-015  5.200000e+002
      vertex -4.898058e+001 -9.843083e+000  5.200000e+002
    endloop
  endfacet
  facet normal  0.000000e+000  0.000000e+000  1.000000e+000
    outer loop
      vertex -4.898058e+001 -9.843083e+000  5.200000e+002
      vertex -6.754124e+001  8.271144e-015  5.200000e+002
      vertex -6.678687e+001 -1.006650e+001  5.200000e+002
    endloop
  endfacet
  facet normal  -0.000000e+000  0.000000e+000  1.000000e+000
    outer loop
      vertex -4.898058e+001 -9.843083e+000  5.200000e+002
      vertex -6.678687e+001 -1.006650e+001  5.200000e+002
      vertex -4.652680e+001 -1.820611e+001  5.200000e+002
    endloop
  endfacet
  facet normal  0.000000e+000  0.000000e+000  1.000000e+000
    outer loop
      vertex -4.652680e+001 -1.820611e+001  5.200000e+002
      vertex -6.678687e+001 -1.006650e+001  5.200000e+002
      vertex -6.454057e+001 -1.990813e+001  5.200000e+002
    endloop
  endfacet
  facet normal  -0.000000e+000  0.000000e+000  1.000000e+000
    outer loop
      vertex -4.652680e+001 -1.820611e+001  5.200000e+002
      vertex -6.454057e+001 -1.990813e+001  5.200000e+002
      vertex -4.265807e+001 -2.601599e+001  5.200000e+002
    endloop
  endfacet
  facet normal  0.000000e+000  0.000000e+000  1.000000e+000
    outer loop
      vertex -4.265807e+001 -2.601599e+001  5.200000e+002
      vertex -6.454057e+001 -1.990813e+001  5.200000e+002
      vertex -6.085256e+001 -2.930505e+001  5.200000e+002
    endloop
  endfacet
  facet normal  -0.000000e+000  0.000000e+000  1.000000e+000
    outer loop
      vertex -4.265807e+001 -2.601599e+001  5.200000e+002
      vertex -6.085256e+001 -2.930505e+001  5.200000e+002
      vertex -3.749195e+001 -3.303542e+001  5.200000e+002
    endloop
  endfacet
  facet normal  0.000000e+000  0.000000e+000  1.000000e+000
    outer loop
      vertex -3.749195e+001 -3.303542e+001  5.200000e+002
      vertex -6.085256e+001 -2.930505e+001  5.200000e+002
      vertex -5.580519e+001 -3.804734e+001  5.200000e+002
    endloop
  endfacet
  facet normal  -0.000000e+000  0.000000e+000  1.000000e+000
    outer loop
      vertex -3.749195e+001 -3.303542e+001  5.200000e+002
      vertex -5.580519e+001 -3.804734e+001  5.200000e+002
      vertex -3.118541e+001 -3.905112e+001  5.200000e+002
    endloop
  endfacet
  facet normal  0.000000e+000  0.000000e+000  1.000000e+000
    outer loop
      vertex -3.118541e+001 -3.905112e+001  5.200000e+002
      vertex -5.580519e+001 -3.804734e+001  5.200000e+002
      vertex -2.393005e+001 -4.388031e+001  5.200000e+002
    endloop
  endfacet
  facet normal  0.000000e+000  0.000000e+000  1.000000e+000
    outer loop
      vertex -2.393005e+001 -4.388031e+001  5.200000e+002
      vertex -5.580519e+001 -3.804734e+001  5.200000e+002
      vertex -4.951123e+001 -4.593971e+001  5.200000e+002
    endloop
  endfacet
  facet normal  -0.000000e+000  0.000000e+000  1.000000e+000
    outer loop
      vertex -2.393005e+001 -4.388031e+001  5.200000e+002
      vertex -4.951123e+001 -4.593971e+001  5.200000e+002
      vertex -1.594634e+001 -4.737626e+001  5.200000e+002
    endloop
  endfacet
  facet normal  0.000000e+000  0.000000e+000  1.000000e+000
    outer loop
      vertex -4.211127e+001 -5.280587e+001  5.200000e+002
      vertex -7.476861e+000 -4.943274e+001  5.200000e+002
      vertex -4.951123e+001 -4.593971e+001  5.200000e+002
    endloop
  endfacet
  facet normal  0.000000e+000  0.000000e+000  9.999999e-001
    outer loop
      vertex -4.951123e+001 -4.593971e+001  5.200000e+002
      vertex -7.476861e+000 -4.943274e+001  5.200000e+002
      vertex -1.594634e+001 -4.737626e+001  5.200000e+002
    endloop
  endfacet
  facet normal  0.000000e+000  0.000000e+000  9.999999e-001
    outer loop
      vertex  5.580519e+001  3.804734e+001  5.200000e+002
      vertex  3.126785e+001  3.904875e+001  5.200000e+002
      vertex  6.085256e+001  2.930505e+001  5.200000e+002
    endloop
  endfacet
  facet normal  0.000000e+000  0.000000e+000  9.999999e-001
    outer loop
      vertex  6.085256e+001  2.930505e+001  5.200000e+002
      vertex  3.126785e+001  3.904875e+001  5.200000e+002
      vertex  3.757440e+001  3.303305e+001  5.200000e+002
    endloop
  endfacet
  facet normal  0.000000e+000  0.000000e+000  1.000000e+000
    outer loop
      vertex  6.085256e+001  2.930505e+001  5.200000e+002
      vertex  3.757440e+001  3.303305e+001  5.200000e+002
      vertex  4.274052e+001  2.601361e+001  5.200000e+002
    endloop
  endfacet
  facet normal  -0.000000e+000  0.000000e+000  1.000000e+000
    outer loop
      vertex  6.085256e+001  2.930505e+001  5.200000e+002
      vertex  4.274052e+001  2.601361e+001  5.200000e+002
      vertex  6.454057e+001  1.990813e+001  5.200000e+002
    endloop
  endfacet
  facet normal  0.000000e+000  0.000000e+000  1.000000e+000
    outer loop
      vertex  6.454057e+001  1.990813e+001  5.200000e+002
      vertex  4.274052e+001  2.601361e+001  5.200000e+002
      vertex  4.660925e+001  1.820374e+001  5.200000e+002
    endloop
  endfacet
  facet normal  -0.000000e+000  0.000000e+000  9.999999e-001
    outer loop
      vertex  6.454057e+001  1.990813e+001  5.200000e+002
      vertex  4.660925e+001  1.820374e+001  5.200000e+002
      vertex  6.678687e+001  1.006650e+001  5.200000e+002
    endloop
  endfacet
  facet normal  0.000000e+000  0.000000e+000  1.000000e+000
    outer loop
      vertex  6.678687e+001  1.006650e+001  5.200000e+002
      vertex  4.660925e+001  1.820374e+001  5.200000e+002
      vertex  4.906303e+001  9.840710e+000  5.200000e+002
    endloop
  endfacet
  facet normal  -0.000000e+000  0.000000e+000  1.000000e+000
    outer loop
      vertex  6.678687e+001  1.006650e+001  5.200000e+002
      vertex  4.906303e+001  9.840710e+000  5.200000e+002
      vertex  6.754124e+001  0.000000e+000  5.200000e+002
    endloop
  endfacet
  facet normal  0.000000e+000  0.000000e+000  1.000000e+000
    outer loop
      vertex  6.754124e+001  0.000000e+000  5.200000e+002
      vertex  4.906303e+001  9.840710e+000  5.200000e+002
      vertex  5.002730e+001  1.178643e+000  5.200000e+002
    endloop
  endfacet
  facet normal  0.000000e+000  0.000000e+000  1.000000e+000
    outer loop
      vertex  6.754124e+001  0.000000e+000  5.200000e+002
      vertex  5.002730e+001  1.178643e+000  5.200000e+002
      vertex  6.678687e+001 -1.006650e+001  5.200000e+002
    endloop
  endfacet
  facet normal  0.000000e+000  0.000000e+000  1.000000e+000
    outer loop
      vertex  6.678687e+001 -1.006650e+001  5.200000e+002
      vertex  5.002730e+001  1.178643e+000  5.200000e+002
      vertex  4.947278e+001 -7.519273e+000  5.200000e+002
    endloop
  endfacet
  facet normal  0.000000e+000  0.000000e+000  1.000000e+000
    outer loop
      vertex  6.678687e+001 -1.006650e+001  5.200000e+002
      vertex  4.947278e+001 -7.519273e+000  5.200000e+002
      vertex  6.454057e+001 -1.990813e+001  5.200000e+002
    endloop
  endfacet
  facet normal  0.000000e+000  0.000000e+000  1.000000e+000
    outer loop
      vertex  6.454057e+001 -1.990813e+001  5.200000e+002
      vertex  4.947278e+001 -7.519273e+000  5.200000e+002
      vertex  4.741630e+001 -1.598876e+001  5.200000e+002
    endloop
  endfacet
  facet normal  0.000000e+000  0.000000e+000  1.000000e+000
    outer loop
      vertex  6.454057e+001 -1.990813e+001  5.200000e+002
      vertex  4.741630e+001 -1.598876e+001  5.200000e+002
      vertex  6.085256e+001 -2.930505e+001  5.200000e+002
    endloop
  endfacet
  facet normal  0.000000e+000  0.000000e+000  1.000000e+000
    outer loop
      vertex  6.085256e+001 -2.930505e+001  5.200000e+002
      vertex  4.741630e+001 -1.598876e+001  5.200000e+002
      vertex  4.392035e+001 -2.397246e+001  5.200000e+002
    endloop
  endfacet
  facet normal  0.000000e+000  0.000000e+000  1.000000e+000
    outer loop
      vertex  6.085256e+001 -2.930505e+001  5.200000e+002
      vertex  4.392035e+001 -2.397246e+001  5.200000e+002
      vertex  3.909116e+001 -3.122782e+001  5.200000e+002
    endloop
  endfacet
  facet normal  -0.000000e+000  0.000000e+000  1.000000e+000
    outer loop
      vertex  6.085256e+001 -2.930505e+001  5.200000e+002
      vertex  3.909116e+001 -3.122782e+001  5.200000e+002
      vertex  5.580519e+001 -3.804734e+001  5.200000e+002
    endloop
  endfacet
  facet normal  0.000000e+000  0.000000e+000  1.000000e+000
    outer loop
      vertex  5.580519e+001 -3.804734e+001  5.200000e+002
      vertex  3.909116e+001 -3.122782e+001  5.200000e+002
      vertex  3.307546e+001 -3.753436e+001  5.200000e+002
    endloop
  endfacet
  facet normal  0.000000e+000  0.000000e+000  1.000000e+000
    outer loop
      vertex  5.580519e+001 -3.804734e+001  5.200000e+002
      vertex  3.307546e+001 -3.753436e+001  5.200000e+002
      vertex  4.951123e+001 -4.593971e+001  5.200000e+002
    endloop
  endfacet
  facet normal  0.000000e+000  0.000000e+000  1.000000e+000
    outer loop
      vertex  4.951123e+001 -4.593971e+001  5.200000e+002
      vertex  3.307546e+001 -3.753436e+001  5.200000e+002
      vertex  2.605603e+001 -4.270049e+001  5.200000e+002
    endloop
  endfacet
  facet normal  0.000000e+000  0.000000e+000  1.000000e+000
    outer loop
      vertex  4.951123e+001 -4.593971e+001  5.200000e+002
      vertex  2.605603e+001 -4.270049e+001  5.200000e+002
      vertex  1.824615e+001 -4.656921e+001  5.200000e+002
    endloop
  endfacet
  facet normal  0.000000e+000  0.000000e+000  1.000000e+000
    outer loop
      vertex  1.824615e+001 -4.656921e+001  5.200000e+002
      vertex  9.883121e+000 -4.902299e+001  5.200000e+002
      vertex  4.951123e+001 -4.593971e+001  5.200000e+002
    endloop
  endfacet
  facet normal  0.000000e+000  0.000000e+000  9.999999e-001
    outer loop
      vertex  4.951123e+001 -4.593971e+001  5.200000e+002
      vertex  9.883121e+000 -4.902299e+001  5.200000e+002
      vertex  4.211127e+001 -5.280587e+001  5.200000e+002
    endloop
  endfacet
  facet normal  5.540874e-001  8.324586e-001  -0.000000e+000
    outer loop
      vertex -2.393005e+001 -4.388031e+001  5.200000e+002
      vertex -3.118541e+001 -3.905112e+001  4.200000e+002
      vertex -3.118541e+001 -3.905112e+001  5.200000e+002
    endloop
  endfacet
  facet normal  6.902248e-001  7.235950e-001  0.000000e+000
    outer loop
      vertex -3.118541e+001 -3.905112e+001  5.200000e+002
      vertex -3.118541e+001 -3.905112e+001  4.200000e+002
      vertex -3.749195e+001 -3.303542e+001  4.200000e+002
    endloop
  endfacet
  facet normal  6.902248e-001  7.235950e-001  -0.000000e+000
    outer loop
      vertex -3.118541e+001 -3.905112e+001  5.200000e+002
      vertex -3.749195e+001 -3.303542e+001  4.200000e+002
      vertex -3.749195e+001 -3.303542e+001  5.200000e+002
    endloop
  endfacet
  facet normal  8.053895e-001  5.927460e-001  0.000000e+000
    outer loop
      vertex -3.749195e+001 -3.303542e+001  5.200000e+002
      vertex -3.749195e+001 -3.303542e+001  4.200000e+002
      vertex -4.265807e+001 -2.601599e+001  4.200000e+002
    endloop
  endfacet
  facet normal  8.053895e-001  5.927460e-001  -0.000000e+000
    outer loop
      vertex -3.749195e+001 -3.303542e+001  5.200000e+002
      vertex -4.265807e+001 -2.601599e+001  4.200000e+002
      vertex -4.265807e+001 -2.601599e+001  5.200000e+002
    endloop
  endfacet
  facet normal  8.960831e-001  4.438865e-001  0.000000e+000
    outer loop
      vertex -4.265807e+001 -2.601599e+001  5.200000e+002
      vertex -4.265807e+001 -2.601599e+001  4.200000e+002
      vertex -4.652680e+001 -1.820611e+001  4.200000e+002
    endloop
  endfacet
  facet normal  8.960831e-001  4.438865e-001  -0.000000e+000
    outer loop
      vertex -4.265807e+001 -2.601599e+001  5.200000e+002
      vertex -4.652680e+001 -1.820611e+001  4.200000e+002
      vertex -4.652680e+001 -1.820611e+001  5.200000e+002
    endloop
  endfacet
  facet normal  9.595497e-001  2.815394e-001  0.000000e+000
    outer loop
      vertex -4.652680e+001 -1.820611e+001  5.200000e+002
      vertex -4.652680e+001 -1.820611e+001  4.200000e+002
      vertex -4.898058e+001 -9.843083e+000  4.200000e+002
    endloop
  endfacet
  facet normal  9.595497e-001  2.815394e-001  -0.000000e+000
    outer loop
      vertex -4.652680e+001 -1.820611e+001  5.200000e+002
      vertex -4.898058e+001 -9.843083e+000  4.200000e+002
      vertex -4.898058e+001 -9.843083e+000  5.200000e+002
    endloop
  endfacet
  facet normal  9.938607e-001  1.106386e-001  0.000000e+000
    outer loop
      vertex -4.898058e+001 -9.843083e+000  5.200000e+002
      vertex -4.898058e+001 -9.843083e+000  4.200000e+002
      vertex -4.994485e+001 -1.181016e+000  4.200000e+002
    endloop
  endfacet
  facet normal  9.938607e-001  1.106386e-001  -0.000000e+000
    outer loop
      vertex -4.898058e+001 -9.843083e+000  5.200000e+002
      vertex -4.994485e+001 -1.181016e+000  4.200000e+002
      vertex -4.994485e+001 -1.181016e+000  5.200000e+002
    endloop
  endfacet
  facet normal  9.979739e-001 -6.362487e-002  0.000000e+000
    outer loop
      vertex -4.994485e+001 -1.181016e+000  5.200000e+002
      vertex -4.994485e+001 -1.181016e+000  4.200000e+002
      vertex -4.939033e+001  7.516900e+000  4.200000e+002
    endloop
  endfacet
  facet normal  9.979739e-001 -6.362487e-002  0.000000e+000
    outer loop
      vertex -4.994485e+001 -1.181016e+000  5.200000e+002
      vertex -4.939033e+001  7.516900e+000  4.200000e+002
      vertex -4.939033e+001  7.516900e+000  5.200000e+002
    endloop
  endfacet
  facet normal  9.717641e-001 -2.359542e-001  0.000000e+000
    outer loop
      vertex -4.939033e+001  7.516900e+000  5.200000e+002
      vertex -4.939033e+001  7.516900e+000  4.200000e+002
      vertex -4.733385e+001  1.598638e+001  4.200000e+002
    endloop
  endfacet
  facet normal  9.717641e-001 -2.359542e-001  0.000000e+000
    outer loop
      vertex -4.939033e+001  7.516900e+000  5.200000e+002
      vertex -4.733385e+001  1.598638e+001  4.200000e+002
      vertex -4.733385e+001  1.598638e+001  5.200000e+002
    endloop
  endfacet
  facet normal  9.160277e-001 -4.011151e-001  0.000000e+000
    outer loop
      vertex -4.733385e+001  1.598638e+001  5.200000e+002
      vertex -4.733385e+001  1.598638e+001  4.200000e+002
      vertex -4.383790e+001  2.397009e+001  4.200000e+002
    endloop
  endfacet
  facet normal  9.160277e-001 -4.011151e-001  0.000000e+000
    outer loop
      vertex -4.733385e+001  1.598638e+001  5.200000e+002
      vertex -4.383790e+001  2.397009e+001  4.200000e+002
      vertex -4.383790e+001  2.397009e+001  5.200000e+002
    endloop
  endfacet
  facet normal  5.540874e-001  8.324586e-001  0.000000e+000
    outer loop
      vertex -3.118541e+001 -3.905112e+001  4.200000e+002
      vertex -2.393005e+001 -4.388031e+001  5.200000e+002
      vertex -2.393005e+001 -4.388031e+001  4.200000e+002
    endloop
  endfacet
  facet normal  4.011147e-001  9.160278e-001  -0.000000e+000
    outer loop
      vertex -2.393005e+001 -4.388031e+001  4.200000e+002
      vertex -2.393005e+001 -4.388031e+001  5.200000e+002
      vertex -1.594634e+001 -4.737626e+001  5.200000e+002
    endloop
  endfacet
  facet normal  4.011147e-001  9.160278e-001  0.000000e+000
    outer loop
      vertex -2.393005e+001 -4.388031e+001  4.200000e+002
      vertex -1.594634e+001 -4.737626e+001  5.200000e+002
      vertex -1.594634e+001 -4.737626e+001  4.200000e+002
    endloop
  endfacet
  facet normal  2.359547e-001  9.717641e-001  -0.000000e+000
    outer loop
      vertex -1.594634e+001 -4.737626e+001  4.200000e+002
      vertex -1.594634e+001 -4.737626e+001  5.200000e+002
      vertex -7.476861e+000 -4.943274e+001  5.200000e+002
    endloop
  endfacet
  facet normal  2.359547e-001  9.717641e-001  0.000000e+000
    outer loop
      vertex -1.594634e+001 -4.737626e+001  4.200000e+002
      vertex -7.476861e+000 -4.943274e+001  5.200000e+002
      vertex -7.476861e+000 -4.943274e+001  4.200000e+002
    endloop
  endfacet
  facet normal  6.362487e-002  9.979739e-001  -0.000000e+000
    outer loop
      vertex -7.476861e+000 -4.943274e+001  4.200000e+002
      vertex -7.476861e+000 -4.943274e+001  5.200000e+002
      vertex  1.221054e+000 -4.998727e+001  5.200000e+002
    endloop
  endfacet
  facet normal  6.362487e-002  9.979739e-001  0.000000e+000
    outer loop
      vertex -7.476861e+000 -4.943274e+001  4.200000e+002
      vertex  1.221054e+000 -4.998727e+001  5.200000e+002
      vertex  1.221054e+000 -4.998727e+001  4.200000e+002
    endloop
  endfacet
  facet normal -1.106386e-001  9.938607e-001  0.000000e+000
    outer loop
      vertex  1.221054e+000 -4.998727e+001  4.200000e+002
      vertex  1.221054e+000 -4.998727e+001  5.200000e+002
      vertex  9.883121e+000 -4.902299e+001  5.200000e+002
    endloop
  endfacet
  facet normal -1.106386e-001  9.938607e-001  0.000000e+000
    outer loop
      vertex  1.221054e+000 -4.998727e+001  4.200000e+002
      vertex  9.883121e+000 -4.902299e+001  5.200000e+002
      vertex  9.883121e+000 -4.902299e+001  4.200000e+002
    endloop
  endfacet
  facet normal -2.815394e-001  9.595497e-001  0.000000e+000
    outer loop
      vertex  9.883121e+000 -4.902299e+001  4.200000e+002
      vertex  9.883121e+000 -4.902299e+001  5.200000e+002
      vertex  1.824615e+001 -4.656921e+001  5.200000e+002
    endloop
  endfacet
  facet normal -2.815394e-001  9.595497e-001  0.000000e+000
    outer loop
      vertex  9.883121e+000 -4.902299e+001  4.200000e+002
      vertex  1.824615e+001 -4.656921e+001  5.200000e+002
      vertex  1.824615e+001 -4.656921e+001  4.200000e+002
    endloop
  endfacet
  facet normal -4.438864e-001  8.960831e-001  0.000000e+000
    outer loop
      vertex  1.824615e+001 -4.656921e+001  4.200000e+002
      vertex  1.824615e+001 -4.656921e+001  5.200000e+002
      vertex  2.605603e+001 -4.270049e+001  5.200000e+002
    endloop
  endfacet
  facet normal -4.438864e-001  8.960831e-001  0.000000e+000
    outer loop
      vertex  1.824615e+001 -4.656921e+001  4.200000e+002
      vertex  2.605603e+001 -4.270049e+001  5.200000e+002
      vertex  2.605603e+001 -4.270049e+001  4.200000e+002
    endloop
  endfacet
  facet normal -5.927460e-001  8.053895e-001  0.000000e+000
    outer loop
      vertex  2.605603e+001 -4.270049e+001  4.200000e+002
      vertex  2.605603e+001 -4.270049e+001  5.200000e+002
      vertex  3.307546e+001 -3.753436e+001  5.200000e+002
    endloop
  endfacet
  facet normal -5.927460e-001  8.053895e-001  0.000000e+000
    outer loop
      vertex  2.605603e+001 -4.270049e+001  4.200000e+002
      vertex  3.307546e+001 -3.753436e+001  5.200000e+002
      vertex  3.307546e+001 -3.753436e+001  4.200000e+002
    endloop
  endfacet
  facet normal -7.235950e-001  6.902248e-001  0.000000e+000
    outer loop
      vertex  3.307546e+001 -3.753436e+001  4.200000e+002
      vertex  3.307546e+001 -3.753436e+001  5.200000e+002
      vertex  3.909116e+001 -3.122782e+001  5.200000e+002
    endloop
  endfacet
  facet normal -7.235950e-001  6.902248e-001  0.000000e+000
    outer loop
      vertex  3.307546e+001 -3.753436e+001  4.200000e+002
      vertex  3.909116e+001 -3.122782e+001  5.200000e+002
      vertex  3.909116e+001 -3.122782e+001  4.200000e+002
    endloop
  endfacet
  facet normal -8.324586e-001  5.540874e-001  0.000000e+000
    outer loop
      vertex  3.909116e+001 -3.122782e+001  4.200000e+002
      vertex  3.909116e+001 -3.122782e+001  5.200000e+002
      vertex  4.392035e+001 -2.397246e+001  5.200000e+002
    endloop
  endfacet
  facet normal -8.324586e-001  5.540874e-001  0.000000e+000
    outer loop
      vertex  3.909116e+001 -3.122782e+001  4.200000e+002
      vertex  4.392035e+001 -2.397246e+001  5.200000e+002
      vertex  4.392035e+001 -2.397246e+001  4.200000e+002
    endloop
  endfacet
  facet normal -5.540875e-001 -8.324585e-001  0.000000e+000
    outer loop
      vertex  2.401250e+001  4.387794e+001  5.200000e+002
      vertex  3.126785e+001  3.904875e+001  4.200000e+002
      vertex  3.126785e+001  3.904875e+001  5.200000e+002
    endloop
  endfacet
  facet normal -6.902247e-001 -7.235951e-001  -0.000000e+000
    outer loop
      vertex  3.126785e+001  3.904875e+001  5.200000e+002
      vertex  3.126785e+001  3.904875e+001  4.200000e+002
      vertex  3.757440e+001  3.303305e+001  4.200000e+002
    endloop
  endfacet
  facet normal -6.902247e-001 -7.235951e-001  0.000000e+000
    outer loop
      vertex  3.126785e+001  3.904875e+001  5.200000e+002
      vertex  3.757440e+001  3.303305e+001  4.200000e+002
      vertex  3.757440e+001  3.303305e+001  5.200000e+002
    endloop
  endfacet
  facet normal -8.053895e-001 -5.927460e-001  -0.000000e+000
    outer loop
      vertex  3.757440e+001  3.303305e+001  5.200000e+002
      vertex  3.757440e+001  3.303305e+001  4.200000e+002
      vertex  4.274052e+001  2.601361e+001  4.200000e+002
    endloop
  endfacet
  facet normal -8.053895e-001 -5.927460e-001  0.000000e+000
    outer loop
      vertex  3.757440e+001  3.303305e+001  5.200000e+002
      vertex  4.274052e+001  2.601361e+001  4.200000e+002
      vertex  4.274052e+001  2.601361e+001  5.200000e+002
    endloop
  endfacet
  facet normal -8.960831e-001 -4.438864e-001  -0.000000e+000
    outer loop
      vertex  4.274052e+001  2.601361e+001  5.200000e+002
      vertex  4.274052e+001  2.601361e+001  4.200000e+002
      vertex  4.660925e+001  1.820374e+001  4.200000e+002
    endloop
  endfacet
  facet normal -8.960831e-001 -4.438864e-001  0.000000e+000
    outer loop
      vertex  4.274052e+001  2.601361e+001  5.200000e+002
      vertex  4.660925e+001  1.820374e+001  4.200000e+002
      vertex  4.660925e+001  1.820374e+001  5.200000e+002
    endloop
  endfacet
  facet normal -9.595497e-001 -2.815394e-001  -0.000000e+000
    outer loop
      vertex  4.660925e+001  1.820374e+001  5.200000e+002
      vertex  4.660925e+001  1.820374e+001  4.200000e+002
      vertex  4.906303e+001  9.840710e+000  4.200000e+002
    endloop
  endfacet
  facet normal -9.595497e-001 -2.815394e-001  0.000000e+000
    outer loop
      vertex  4.660925e+001  1.820374e+001  5.200000e+002
      vertex  4.906303e+001  9.840710e+000  4.200000e+002
      vertex  4.906303e+001  9.840710e+000  5.200000e+002
    endloop
  endfacet
  facet normal -9.938608e-001 -1.106382e-001  -0.000000e+000
    outer loop
      vertex  4.906303e+001  9.840710e+000  5.200000e+002
      vertex  4.906303e+001  9.840710e+000  4.200000e+002
      vertex  5.002730e+001  1.178643e+000  4.200000e+002
    endloop
  endfacet
  facet normal -9.938608e-001 -1.106382e-001  0.000000e+000
    outer loop
      vertex  4.906303e+001  9.840710e+000  5.200000e+002
      vertex  5.002730e+001  1.178643e+000  4.200000e+002
      vertex  5.002730e+001  1.178643e+000  5.200000e+002
    endloop
  endfacet
  facet normal -9.979739e-001  6.362443e-002  0.000000e+000
    outer loop
      vertex  5.002730e+001  1.178643e+000  5.200000e+002
      vertex  5.002730e+001  1.178643e+000  4.200000e+002
      vertex  4.947278e+001 -7.519273e+000  4.200000e+002
    endloop
  endfacet
  facet normal -9.979739e-001  6.362443e-002  0.000000e+000
    outer loop
      vertex  5.002730e+001  1.178643e+000  5.200000e+002
      vertex  4.947278e+001 -7.519273e+000  4.200000e+002
      vertex  4.947278e+001 -7.519273e+000  5.200000e+002
    endloop
  endfacet
  facet normal -9.717641e-001  2.359547e-001  0.000000e+000
    outer loop
      vertex  4.947278e+001 -7.519273e+000  5.200000e+002
      vertex  4.947278e+001 -7.519273e+000  4.200000e+002
      vertex  4.741630e+001 -1.598876e+001  4.200000e+002
    endloop
  endfacet
  facet normal -9.717641e-001  2.359547e-001  0.000000e+000
    outer loop
      vertex  4.947278e+001 -7.519273e+000  5.200000e+002
      vertex  4.741630e+001 -1.598876e+001  4.200000e+002
      vertex  4.741630e+001 -1.598876e+001  5.200000e+002
    endloop
  endfacet
  facet normal -9.160278e-001  4.011147e-001  0.000000e+000
    outer loop
      vertex  4.741630e+001 -1.598876e+001  5.200000e+002
      vertex  4.741630e+001 -1.598876e+001  4.200000e+002
      vertex  4.392035e+001 -2.397246e+001  4.200000e+002
    endloop
  endfacet
  facet normal -9.160278e-001  4.011147e-001  0.000000e+000
    outer loop
      vertex  4.741630e+001 -1.598876e+001  5.200000e+002
      vertex  4.392035e+001 -2.397246e+001  4.200000e+002
      vertex  4.392035e+001 -2.397246e+001  5.200000e+002
    endloop
  endfacet
  facet normal -5.540875e-001 -8.324585e-001  -0.000000e+000
    outer loop
      vertex  3.126785e+001  3.904875e+001  4.200000e+002
      vertex  2.401250e+001  4.387794e+001  5.200000e+002
      vertex  2.401250e+001  4.387794e+001  4.200000e+002
    endloop
  endfacet
  facet normal -4.011147e-001 -9.160278e-001  0.000000e+000
    outer loop
      vertex  2.401250e+001  4.387794e+001  4.200000e+002
      vertex  2.401250e+001  4.387794e+001  5.200000e+002
      vertex  1.602879e+001  4.737389e+001  5.200000e+002
    endloop
  endfacet
  facet normal -4.011147e-001 -9.160278e-001  -0.000000e+000
    outer loop
      vertex  2.401250e+001  4.387794e+001  4.200000e+002
      vertex  1.602879e+001  4.737389e+001  5.200000e+002
      vertex  1.602879e+001  4.737389e+001  4.200000e+002
    endloop
  endfacet
  facet normal -2.359547e-001 -9.717641e-001  0.000000e+000
    outer loop
      vertex  1.602879e+001  4.737389e+001  4.200000e+002
      vertex  1.602879e+001  4.737389e+001  5.200000e+002
      vertex  7.559311e+000  4.943037e+001  5.200000e+002
    endloop
  endfacet
  facet normal -2.359547e-001 -9.717641e-001  -0.000000e+000
    outer loop
      vertex  1.602879e+001  4.737389e+001  4.200000e+002
      vertex  7.559311e+000  4.943037e+001  5.200000e+002
      vertex  7.559311e+000  4.943037e+001  4.200000e+002
    endloop
  endfacet
  facet normal -6.362443e-002 -9.979739e-001  0.000000e+000
    outer loop
      vertex  7.559311e+000  4.943037e+001  4.200000e+002
      vertex  7.559311e+000  4.943037e+001  5.200000e+002
      vertex -1.138604e+000  4.998489e+001  5.200000e+002
    endloop
  endfacet
  facet normal -6.362443e-002 -9.979739e-001  -0.000000e+000
    outer loop
      vertex  7.559311e+000  4.943037e+001  4.200000e+002
      vertex -1.138604e+000  4.998489e+001  5.200000e+002
      vertex -1.138604e+000  4.998489e+001  4.200000e+002
    endloop
  endfacet
  facet normal  1.106382e-001 -9.938608e-001  0.000000e+000
    outer loop
      vertex -1.138604e+000  4.998489e+001  4.200000e+002
      vertex -1.138604e+000  4.998489e+001  5.200000e+002
      vertex -9.800672e+000  4.902061e+001  5.200000e+002
    endloop
  endfacet
  facet normal  1.106382e-001 -9.938608e-001  0.000000e+000
    outer loop
      vertex -1.138604e+000  4.998489e+001  4.200000e+002
      vertex -9.800672e+000  4.902061e+001  5.200000e+002
      vertex -9.800672e+000  4.902061e+001  4.200000e+002
    endloop
  endfacet
  facet normal  2.815394e-001 -9.595497e-001  0.000000e+000
    outer loop
      vertex -9.800672e+000  4.902061e+001  4.200000e+002
      vertex -9.800672e+000  4.902061e+001  5.200000e+002
      vertex -1.816370e+001  4.656684e+001  5.200000e+002
    endloop
  endfacet
  facet normal  2.815394e-001 -9.595497e-001  0.000000e+000
    outer loop
      vertex -9.800672e+000  4.902061e+001  4.200000e+002
      vertex -1.816370e+001  4.656684e+001  5.200000e+002
      vertex -1.816370e+001  4.656684e+001  4.200000e+002
    endloop
  endfacet
  facet normal  4.438865e-001 -8.960831e-001  0.000000e+000
    outer loop
      vertex -1.816370e+001  4.656684e+001  4.200000e+002
      vertex -1.816370e+001  4.656684e+001  5.200000e+002
      vertex -2.597358e+001  4.269811e+001  5.200000e+002
    endloop
  endfacet
  facet normal  4.438865e-001 -8.960831e-001  0.000000e+000
    outer loop
      vertex -1.816370e+001  4.656684e+001  4.200000e+002
      vertex -2.597358e+001  4.269811e+001  5.200000e+002
      vertex -2.597358e+001  4.269811e+001  4.200000e+002
    endloop
  endfacet
  facet normal  5.927460e-001 -8.053895e-001  0.000000e+000
    outer loop
      vertex -2.597358e+001  4.269811e+001  4.200000e+002
      vertex -2.597358e+001  4.269811e+001  5.200000e+002
      vertex -3.299301e+001  3.753199e+001  5.200000e+002
    endloop
  endfacet
  facet normal  5.927460e-001 -8.053895e-001  0.000000e+000
    outer loop
      vertex -2.597358e+001  4.269811e+001  4.200000e+002
      vertex -3.299301e+001  3.753199e+001  5.200000e+002
      vertex -3.299301e+001  3.753199e+001  4.200000e+002
    endloop
  endfacet
  facet normal  7.235951e-001 -6.902247e-001  0.000000e+000
    outer loop
      vertex -3.299301e+001  3.753199e+001  4.200000e+002
      vertex -3.299301e+001  3.753199e+001  5.200000e+002
      vertex -3.900871e+001  3.122544e+001  5.200000e+002
    endloop
  endfacet
  facet normal  7.235951e-001 -6.902247e-001  0.000000e+000
    outer loop
      vertex -3.299301e+001  3.753199e+001  4.200000e+002
      vertex -3.900871e+001  3.122544e+001  5.200000e+002
      vertex -3.900871e+001  3.122544e+001  4.200000e+002
    endloop
  endfacet
  facet normal  8.324585e-001 -5.540875e-001  0.000000e+000
    outer loop
      vertex -3.900871e+001  3.122544e+001  4.200000e+002
      vertex -3.900871e+001  3.122544e+001  5.200000e+002
      vertex -4.383790e+001  2.397009e+001  5.200000e+002
    endloop
  endfacet
  facet normal  8.324585e-001 -5.540875e-001  0.000000e+000
    outer loop
      vertex -3.900871e+001  3.122544e+001  4.200000e+002
      vertex -4.383790e+001  2.397009e+001  5.200000e+002
      vertex -4.383790e+001  2.397009e+001  4.200000e+002
    endloop
  endfacet
  facet normal  0.000000e+000  0.000000e+000  9.999999e-001
    outer loop
      vertex  1.221054e+000 -4.998727e+001  4.200000e+002
      vertex  9.883121e+000 -4.902299e+001  4.200000e+002
      vertex -7.476861e+000 -4.943274e+001  4.200000e+002
    endloop
  endfacet
  facet normal  0.000000e+000  0.000000e+000  1.000000e+000
    outer loop
      vertex -1.138604e+000  4.998489e+001  4.200000e+002
      vertex -9.800672e+000  4.902061e+001  4.200000e+002
      vertex  7.559311e+000  4.943037e+001  4.200000e+002
    endloop
  endfacet
  facet normal  0.000000e+000  0.000000e+000  1.000000e+000
    outer loop
      vertex  7.559311e+000  4.943037e+001  4.200000e+002
      vertex -9.800672e+000  4.902061e+001  4.200000e+002
      vertex -1.816370e+001  4.656684e+001  4.200000e+002
    endloop
  endfacet
  facet normal  0.000000e+000  0.000000e+000  1.000000e+000
    outer loop
      vertex  7.559311e+000  4.943037e+001  4.200000e+002
      vertex -1.816370e+001  4.656684e+001  4.200000e+002
      vertex  1.602879e+001  4.737389e+001  4.200000e+002
    endloop
  endfacet
  facet normal  0.000000e+000  0.000000e+000  1.000000e+000
    outer loop
      vertex  1.602879e+001  4.737389e+001  4.200000e+002
      vertex -1.816370e+001  4.656684e+001  4.200000e+002
      vertex -2.597358e+001  4.269811e+001  4.200000e+002
    endloop
  endfacet
  facet normal  0.000000e+000  0.000000e+000  1.000000e+000
    outer loop
      vertex  1.602879e+001  4.737389e+001  4.200000e+002
      vertex -2.597358e+001  4.269811e+001  4.200000e+002
      vertex  2.401250e+001  4.387794e+001  4.200000e+002
    endloop
  endfacet
  facet normal  0.000000e+000  0.000000e+000  1.000000e+000
    outer loop
      vertex  2.401250e+001  4.387794e+001  4.200000e+002
      vertex -2.597358e+001  4.269811e+001  4.200000e+002
      vertex -3.299301e+001  3.753199e+001  4.200000e+002
    endloop
  endfacet
  facet normal  0.000000e+000  0.000000e+000  1.000000e+000
    outer loop
      vertex  2.401250e+001  4.387794e+001  4.200000e+002
      vertex -3.299301e+001  3.753199e+001  4.200000e+002
      vertex  3.126785e+001  3.904875e+001  4.200000e+002
    endloop
  endfacet
  facet normal  0.000000e+000  0.000000e+000  1.000000e+000
    outer loop
      vertex  3.126785e+001  3.904875e+001  4.200000e+002
      vertex -3.299301e+001  3.753199e+001  4.200000e+002
      vertex -3.900871e+001  3.122544e+001  4.200000e+002
    endloop
  endfacet
  facet normal  0.000000e+000  0.000000e+000  1.000000e+000
    outer loop
      vertex  3.126785e+001  3.904875e+001  4.200000e+002
      vertex -3.900871e+001  3.122544e+001  4.200000e+002
      vertex  3.757440e+001  3.303305e+001  4.200000e+002
    endloop
  endfacet
  facet normal  0.000000e+000  0.000000e+000  1.000000e+000
    outer loop
      vertex  3.757440e+001  3.303305e+001  4.200000e+002
      vertex -3.900871e+001  3.122544e+001  4.200000e+002
      vertex -4.383790e+001  2.397009e+001  4.200000e+002
    endloop
  endfacet
  facet normal  0.000000e+000  0.000000e+000  1.000000e+000
    outer loop
      vertex  3.757440e+001  3.303305e+001  4.200000e+002
      vertex -4.383790e+001  2.397009e+001  4.200000e+002
      vertex  4.274052e+001  2.601361e+001  4.200000e+002
    endloop
  endfacet
  facet normal  0.000000e+000  0.000000e+000  1.000000e+000
    outer loop
      vertex  4.274052e+001  2.601361e+001  4.200000e+002
      vertex -4.383790e+001  2.397009e+001  4.200000e+002
      vertex -4.733385e+001  1.598638e+001  4.200000e+002
    endloop
  endfacet
  facet normal  0.000000e+000  0.000000e+000  1.000000e+000
    outer loop
      vertex  4.274052e+001  2.601361e+001  4.200000e+002
      vertex -4.733385e+001  1.598638e+001  4.200000e+002
      vertex  4.660925e+001  1.820374e+001  4.200000e+002
    endloop
  endfacet
  facet normal  0.000000e+000  0.000000e+000  1.000000e+000
    outer loop
      vertex  4.660925e+001  1.820374e+001  4.200000e+002
      vertex -4.733385e+001  1.598638e+001  4.200000e+002
      vertex -4.939033e+001  7.516900e+000  4.200000e+002
    endloop
  endfacet
  facet normal  0.000000e+000  0.000000e+000  1.000000e+000
    outer loop
      vertex  4.660925e+001  1.820374e+001  4.200000e+002
      vertex -4.939033e+001  7.516900e+000  4.200000e+002
      vertex  4.906303e+001  9.840710e+000  4.200000e+002
    endloop
  endfacet
  facet normal  0.000000e+000  0.000000e+000  9.999999e-001
    outer loop
      vertex  4.906303e+001  9.840710e+000  4.200000e+002
      vertex -4.939033e+001  7.516900e+000  4.200000e+002
      vertex -4.994485e+001 -1.181016e+000  4.200000e+002
    endloop
  endfacet
  facet normal  0.000000e+000  0.000000e+000  1.000000e+000
    outer loop
      vertex  4.906303e+001  9.840710e+000  4.200000e+002
      vertex -4.994485e+001 -1.181016e+000  4.200000e+002
      vertex  5.002730e+001  1.178643e+000  4.200000e+002
    endloop
  endfacet
  facet normal  0.000000e+000  0.000000e+000  1.000000e+000
    outer loop
      vertex  5.002730e+001  1.178643e+000  4.200000e+002
      vertex -4.994485e+001 -1.181016e+000  4.200000e+002
      vertex -4.898058e+001 -9.843083e+000  4.200000e+002
    endloop
  endfacet
  facet normal  0.000000e+000  0.000000e+000  1.000000e+000
    outer loop
      vertex  5.002730e+001  1.178643e+000  4.200000e+002
      vertex -4.898058e+001 -9.843083e+000  4.200000e+002
      vertex  4.947278e+001 -7.519273e+000  4.200000e+002
    endloop
  endfacet
  facet normal  0.000000e+000  0.000000e+000  9.999999e-001
    outer loop
      vertex  4.947278e+001 -7.519273e+000  4.200000e+002
      vertex -4.898058e+001 -9.843083e+000  4.200000e+002
      vertex -4.652680e+001 -1.820611e+001  4.200000e+002
    endloop
  endfacet
  facet normal  0.000000e+000  0.000000e+000  1.000000e+000
    outer loop
      vertex  4.947278e+001 -7.519273e+000  4.200000e+002
      vertex -4.652680e+001 -1.820611e+001  4.200000e+002
      vertex  4.741630e+001 -1.598876e+001  4.200000e+002
    endloop
  endfacet
  facet normal  0.000000e+000  0.000000e+000  1.000000e+000
    outer loop
      vertex  4.741630e+001 -1.598876e+001  4.200000e+002
      vertex -4.652680e+001 -1.820611e+001  4.200000e+002
      vertex -4.265807e+001 -2.601599e+001  4.200000e+002
    endloop
  endfacet
  facet normal  0.000000e+000  0.000000e+000  1.000000e+000
    outer loop
      vertex  4.741630e+001 -1.598876e+001  4.200000e+002
      vertex -4.265807e+001 -2.601599e+001  4.200000e+002
      vertex  4.392035e+001 -2.397246e+001  4.200000e+002
    endloop
  endfacet
  facet normal  0.000000e+000  0.000000e+000  1.000000e+000
    outer loop
      vertex  4.392035e+001 -2.397246e+001  4.200000e+002
      vertex -4.265807e+001 -2.601599e+001  4.200000e+002
      vertex -3.749195e+001 -3.303542e+001  4.200000e+002
    endloop
  endfacet
  facet normal  0.000000e+000  0.000000e+000  1.000000e+000
    outer loop
      vertex  4.392035e+001 -2.397246e+001  4.200000e+002
      vertex -3.749195e+001 -3.303542e+001  4.200000e+002
      vertex  3.909116e+001 -3.122782e+001  4.200000e+002
    endloop
  endfacet
  facet normal  0.000000e+000  0.000000e+000  1.000000e+000
    outer loop
      vertex  3.909116e+001 -3.122782e+001  4.200000e+002
      vertex -3.749195e+001 -3.303542e+001  4.200000e+002
      vertex -3.118541e+001 -3.905112e+001  4.200000e+002
    endloop
  endfacet
  facet normal  0.000000e+000  0.000000e+000  1.000000e+000
    outer loop
      vertex  3.909116e+001 -3.122782e+001  4.200000e+002
      vertex -3.118541e+001 -3.905112e+001  4.200000e+002
      vertex  3.307546e+001 -3.753436e+001  4.200000e+002
    endloop
  endfacet
  facet normal  0.000000e+000  0.000000e+000  1.000000e+000
    outer loop
      vertex  3.307546e+001 -3.753436e+001  4.200000e+002
      vertex -3.118541e+001 -3.905112e+001  4.200000e+002
      vertex -2.393005e+001 -4.388031e+001  4.200000e+002
    endloop
  endfacet
  facet normal  0.000000e+000  0.000000e+000  1.000000e+000
    outer loop
      vertex  3.307546e+001 -3.753436e+001  4.200000e+002
      vertex -2.393005e+001 -4.388031e+001  4.200000e+002
      vertex  2.605603e+001 -4.270049e+001  4.200000e+002
    endloop
  endfacet
  facet normal  0.000000e+000  0.000000e+000  1.000000e+000
    outer loop
      vertex  2.605603e+001 -4.270049e+001  4.200000e+002
      vertex -2.393005e+001 -4.388031e+001  4.200000e+002
      vertex -1.594634e+001 -4.737626e+001  4.200000e+002
    endloop
  endfacet
  facet normal  0.000000e+000  0.000000e+000  1.000000e+000
    outer loop
      vertex  2.605603e+001 -4.270049e+001  4.200000e+002
      vertex -1.594634e+001 -4.737626e+001  4.200000e+002
      vertex  1.824615e+001 -4.656921e+001  4.200000e+002
    endloop
  endfacet
  facet normal  0.000000e+000  0.000000e+000  1.000000e+000
    outer loop
      vertex  1.824615e+001 -4.656921e+001  4.200000e+002
      vertex -1.594634e+001 -4.737626e+001  4.200000e+002
      vertex -7.476861e+000 -4.943274e+001  4.200000e+002
    endloop
  endfacet
  facet normal  0.000000e+000  0.000000e+000  1.000000e+000
    outer loop
      vertex  1.824615e+001 -4.656921e+001  4.200000e+002
      vertex -7.476861e+000 -4.943274e+001  4.200000e+002
      vertex  9.883121e+000 -4.902299e+001  4.200000e+002
    endloop
  endfacet
  facet normal  0.000000e+000  0.000000e+000  1.000000e+000
    outer loop
      vertex -1.000000e+002  1.500000e+002  2.000000e+001
      vertex -1.000000e+002 -1.500000e+002  2.000000e+001
      vertex -6.678687e+001  1.006650e+001  2.000000e+001
    endloop
  endfacet
  facet normal  0.000000e+000  -0.000000e+000  1.000000e+000
    outer loop
      vertex -1.000000e+002  1.500000e+002  2.000000e+001
      vertex -6.678687e+001  1.006650e+001  2.000000e+001
      vertex -6.454057e+001  1.990813e+001  2.000000e+001
    endloop
  endfacet
  facet normal  0.000000e+000  -0.000000e+000  1.000000e+000
    outer loop
      vertex -1.000000e+002  1.500000e+002  2.000000e+001
      vertex -6.454057e+001  1.990813e+001  2.000000e+001
      vertex -6.085256e+001  2.930505e+001  2.000000e+001
    endloop
  endfacet
  facet normal  0.000000e+000  -0.000000e+000  9.999999e-001
    outer loop
      vertex -1.000000e+002  1.500000e+002  2.000000e+001
      vertex -6.085256e+001  2.930505e+001  2.000000e+001
      vertex -5.580519e+001  3.804734e+001  2.000000e+001
    endloop
  endfacet
  facet normal  0.000000e+000  -0.000000e+000  1.000000e+000
    outer loop
      vertex -1.000000e+002  1.500000e+002  2.000000e+001
      vertex -5.580519e+001  3.804734e+001  2.000000e+001
      vertex -4.951123e+001  4.593971e+001  2.000000e+001
    endloop
  endfacet
  facet normal  0.000000e+000  -0.000000e+000  1.000000e+000
    outer loop
      vertex -1.000000e+002  1.500000e+002  2.000000e+001
      vertex -4.951123e+001  4.593971e+001  2.000000e+001
      vertex -4.211127e+001  5.280587e+001  2.000000e+001
    endloop
  endfacet
  facet normal  0.000000e+000  -0.000000e+000  1.000000e+000
    outer loop
      vertex -1.000000e+002  1.500000e+002  2.000000e+001
      vertex -4.211127e+001  5.280587e+001  2.000000e+001
      vertex -3.377062e+001  5.849243e+001  2.000000e+001
    endloop
  endfacet
  facet normal  0.000000e+000  -0.000000e+000  1.000000e+000
    outer loop
      vertex -1.000000e+002  1.500000e+002  2.000000e+001
      vertex -3.377062e+001  5.849243e+001  2.000000e+001
      vertex -2.467559e+001  6.287237e+001  2.000000e+001
    endloop
  endfacet
  facet normal  0.000000e+000  -0.000000e+000  1.000000e+000
    outer loop
      vertex -1.000000e+002  1.500000e+002  2.000000e+001
      vertex -2.467559e+001  6.287237e+001  2.000000e+001
      vertex -1.502934e+001  6.584784e+001  2.000000e+001
    endloop
  endfacet
  facet normal  0.000000e+000  -0.000000e+000  1.000000e+000
    outer loop
      vertex -1.000000e+002  1.500000e+002  2.000000e+001
      vertex -1.502934e+001  6.584784e+001  2.000000e+001
      vertex -5.047363e+000  6.735239e+001  2.000000e+001
    endloop
  endfacet
  facet normal  0.000000e+000  -0.000000e+000  1.000000e+000
    outer loop
      vertex -1.000000e+002  1.500000e+002  2.000000e+001
      vertex -5.047363e+000  6.735239e+001  2.000000e+001
      vertex  5.047363e+000  6.735239e+001  2.000000e+001
    endloop
  endfacet
  facet normal  0.000000e+000  -0.000000e+000  1.000000e+000
    outer loop
      vertex -1.000000e+002  1.500000e+002  2.000000e+001
      vertex  5.047363e+000  6.735239e+001  2.000000e+001
      vertex  1.000000e+002  1.500000e+002  2.000000e+001
    endloop
  endfacet
  facet normal  0.000000e+000  0.000000e+000  1.000000e+000
    outer loop
      vertex -1.000000e+002 -1.500000e+002  2.000000e+001
      vertex  1.000000e+002 -1.500000e+002  2.000000e+001
      vertex  5.047363e+000 -6.735239e+001  2.000000e+001
    endloop
  endfacet
  facet normal  0.000000e+000  0.000000e+000  1.000000e+000
    outer loop
      vertex -1.000000e+002 -1.500000e+002  2.000000e+001
      vertex  5.047363e+000 -6.735239e+001  2.000000e+001
      vertex -5.047363e+000 -6.735239e+001  2.000000e+001
    endloop
  endfacet
  facet normal  0.000000e+000  0.000000e+000  1.000000e+000
    outer loop
      vertex -1.000000e+002 -1.500000e+002  2.000000e+001
      vertex -5.047363e+000 -6.735239e+001  2.000000e+001
      vertex -1.502934e+001 -6.584784e+001  2.000000e+001
    endloop
  endfacet
  facet normal  0.000000e+000  0.000000e+000  1.000000e+000
    outer loop
      vertex -1.000000e+002 -1.500000e+002  2.000000e+001
      vertex -1.502934e+001 -6.584784e+001  2.000000e+001
      vertex -2.467559e+001 -6.287237e+001  2.000000e+001
    endloop
  endfacet
  facet normal  0.000000e+000  0.000000e+000  1.000000e+000
    outer loop
      vertex -1.000000e+002 -1.500000e+002  2.000000e+001
      vertex -2.467559e+001 -6.287237e+001  2.000000e+001
      vertex -3.377062e+001 -5.849243e+001  2.000000e+001
    endloop
  endfacet
  facet normal  0.000000e+000  0.000000e+000  1.000000e+000
    outer loop
      vertex -1.000000e+002 -1.500000e+002  2.000000e+001
      vertex -3.377062e+001 -5.849243e+001  2.000000e+001
      vertex -4.211127e+001 -5.280587e+001  2.000000e+001
    endloop
  endfacet
  facet normal  0.000000e+000  0.000000e+000  1.000000e+000
    outer loop
      vertex -1.000000e+002 -1.500000e+002  2.000000e+001
      vertex -4.211127e+001 -5.280587e+001  2.000000e+001
      vertex -4.951123e+001 -4.593971e+001  2.000000e+001
    endloop
  endfacet
  facet normal  0.000000e+000  0.000000e+000  1.000000e+000
    outer loop
      vertex -1.000000e+002 -1.500000e+002  2.000000e+001
      vertex -4.951123e+001 -4.593971e+001  2.000000e+001
      vertex -5.580519e+001 -3.804734e+001  2.000000e+001
    endloop
  endfacet
  facet normal  0.000000e+000  0.000000e+000  1.000000e+000
    outer loop
      vertex -1.000000e+002 -1.500000e+002  2.000000e+001
      vertex -5.580519e+001 -3.804734e+001  2.000000e+001
      vertex -6.085256e+001 -2.930505e+001  2.000000e+001
    endloop
  endfacet
  facet normal  0.000000e+000  0.000000e+000  1.000000e+000
    outer loop
      vertex -1.000000e+002 -1.500000e+002  2.000000e+001
      vertex -6.085256e+001 -2.930505e+001  2.000000e+001
      vertex -6.454057e+001 -1.990813e+001  2.000000e+001
    endloop
  endfacet
  facet normal  0.000000e+000  0.000000e+000  1.000000e+000
    outer loop
      vertex -1.000000e+002 -1.500000e+002  2.000000e+001
      vertex -6.454057e+001 -1.990813e+001  2.000000e+001
      vertex -6.678687e+001 -1.006650e+001  2.000000e+001
    endloop
  endfacet
  facet normal  0.000000e+000  0.000000e+000  1.000000e+000
    outer loop
      vertex -1.000000e+002 -1.500000e+002  2.000000e+001
      vertex -6.678687e+001 -1.006650e+001  2.000000e+001
      vertex -6.754124e+001  8.271144e-015  2.000000e+001
    endloop
  endfacet
  facet normal  0.000000e+000  -0.000000e+000  1.000000e+000
    outer loop
      vertex -1.000000e+002 -1.500000e+002  2.000000e+001
      vertex -6.754124e+001  8.271144e-015  2.000000e+001
      vertex -6.678687e+001  1.006650e+001  2.000000e+001
    endloop
  endfacet
  facet normal  0.000000e+000  0.000000e+000  1.000000e+000
    outer loop
      vertex  1.000000e+002 -1.500000e+002  2.000000e+001
      vertex  6.678687e+001  1.006650e+001  2.000000e+001
      vertex  6.754124e+001  0.000000e+000  2.000000e+001
    endloop
  endfacet
  facet normal  0.000000e+000  0.000000e+000  1.000000e+000
    outer loop
      vertex  1.000000e+002 -1.500000e+002  2.000000e+001
      vertex  6.754124e+001  0.000000e+000  2.000000e+001
      vertex  6.678687e+001 -1.006650e+001  2.000000e+001
    endloop
  endfacet
  facet normal  0.000000e+000  0.000000e+000  1.000000e+000
    outer loop
      vertex  1.000000e+002 -1.500000e+002  2.000000e+001
      vertex  6.678687e+001 -1.006650e+001  2.000000e+001
      vertex  6.454057e+001 -1.990813e+001  2.000000e+001
    endloop
  endfacet
  facet normal  0.000000e+000  0.000000e+000  1.000000e+000
    outer loop
      vertex  1.000000e+002 -1.500000e+002  2.000000e+001
      vertex  6.454057e+001 -1.990813e+001  2.000000e+001
      vertex  6.085256e+001 -2.930505e+001  2.000000e+001
    endloop
  endfacet
  facet normal  0.000000e+000  0.000000e+000  9.999999e-001
    outer loop
      vertex  1.000000e+002 -1.500000e+002  2.000000e+001
      vertex  6.085256e+001 -2.930505e+001  2.000000e+001
      vertex  5.580519e+001 -3.804734e+001  2.000000e+001
    endloop
  endfacet
  facet normal  0.000000e+000  0.000000e+000  1.000000e+000
    outer loop
      vertex  1.000000e+002 -1.500000e+002  2.000000e+001
      vertex  5.580519e+001 -3.804734e+001  2.000000e+001
      vertex  4.951123e+001 -4.593971e+001  2.000000e+001
    endloop
  endfacet
  facet normal  0.000000e+000  0.000000e+000  1.000000e+000
    outer loop
      vertex  1.000000e+002 -1.500000e+002  2.000000e+001
      vertex  4.951123e+001 -4.593971e+001  2.000000e+001
      vertex  4.211127e+001 -5.280587e+001  2.000000e+001
    endloop
  endfacet
  facet normal  0.000000e+000  0.000000e+000  1.000000e+000
    outer loop
      vertex  1.000000e+002 -1.500000e+002  2.000000e+001
      vertex  4.211127e+001 -5.280587e+001  2.000000e+001
      vertex  3.377062e+001 -5.849243e+001  2.000000e+001
    endloop
  endfacet
  facet normal  0.000000e+000  0.000000e+000  1.000000e+000
    outer loop
      vertex  1.000000e+002 -1.500000e+002  2.000000e+001
      vertex  3.377062e+001 -5.849243e+001  2.000000e+001
      vertex  2.467559e+001 -6.287237e+001  2.000000e+001
    endloop
  endfacet
  facet normal  0.000000e+000  0.000000e+000  1.000000e+000
    outer loop
      vertex  1.000000e+002 -1.500000e+002  2.000000e+001
      vertex  2.467559e+001 -6.287237e+001  2.000000e+001
      vertex  1.502934e+001 -6.584784e+001  2.000000e+001
    endloop
  endfacet
  facet normal  0.000000e+000  0.000000e+000  1.000000e+000
    outer loop
      vertex  1.000000e+002 -1.500000e+002  2.000000e+001
      vertex  1.502934e+001 -6.584784e+001  2.000000e+001
      vertex  5.047363e+000 -6.735239e+001  2.000000e+001
    endloop
  endfacet
  facet normal  -0.000000e+000  0.000000e+000  1.000000e+000
    outer loop
      vertex  1.000000e+002  1.500000e+002  2.000000e+001
      vertex  5.047363e+000  6.735239e+001  2.000000e+001
      vertex  1.502934e+001  6.584784e+001  2.000000e+001
    endloop
  endfacet
  facet normal  -0.000000e+000  0.000000e+000  1.000000e+000
    outer loop
      vertex  1.000000e+002  1.500000e+002  2.000000e+001
      vertex  1.502934e+001  6.584784e+001  2.000000e+001
      vertex  2.467559e+001  6.287237e+001  2.000000e+001
    endloop
  endfacet
  facet normal  -0.000000e+000  0.000000e+000  1.000000e+000
    outer loop
      vertex  1.000000e+002  1.500000e+002  2.000000e+001
      vertex  2.467559e+001  6.287237e+001  2.000000e+001
      vertex  3.377062e+001  5.849243e+001  2.000000e+001
    endloop
  endfacet
  facet normal  -0.000000e+000  0.000000e+000  1.000000e+000
    outer loop
      vertex  1.000000e+002  1.500000e+002  2.000000e+001
      vertex  3.377062e+001  5.849243e+001  2.000000e+001
      vertex  4.211127e+001  5.280587e+001  2.000000e+001
    endloop
  endfacet
  facet normal  -0.000000e+000  0.000000e+000  1.000000e+000
    outer loop
      vertex  1.000000e+002  1.500000e+002  2.000000e+001
      vertex  4.211127e+001  5.280587e+001  2.000000e+001
      vertex  4.951123e+001  4.593971e+001  2.000000e+001
    endloop
  endfacet
  facet normal  -0.000000e+000  0.000000e+000  1.000000e+000
    outer loop
      vertex  1.000000e+002  1.500000e+002  2.000000e+001
      vertex  4.951123e+001  4.593971e+001  2.000000e+001
      vertex  5.580519e+001  3.804734e+001  2.000000e+001
    endloop
  endfacet
  facet normal  -0.000000e+000  0.000000e+000  1.000000e+000
    outer loop
      vertex  1.000000e+002  1.500000e+002  2.000000e+001
      vertex  5.580519e+001  3.804734e+001  2.000000e+001
      vertex  6.085256e+001  2.930505e+001  2.000000e+001
    endloop
  endfacet
  facet normal  -0.000000e+000  0.000000e+000  1.000000e+000
    outer loop
      vertex  1.000000e+002  1.500000e+002  2.000000e+001
      vertex  6.085256e+001  2.930505e+001  2.000000e+001
      vertex  6.454057e+001  1.990813e+001  2.000000e+001
    endloop
  endfacet
  facet normal  -0.000000e+000  0.000000e+000  1.000000e+000
    outer loop
      vertex  1.000000e+002  1.500000e+002  2.000000e+001
      vertex  6.454057e+001  1.990813e+001  2.000000e+001
      vertex  6.678687e+001  1.006650e+001  2.000000e+001
    endloop
  endfacet
  facet normal  -0.000000e+000  0.000000e+000  1.000000e+000
    outer loop
      vertex  1.000000e+002  1.500000e+002  2.000000e+001
      vertex  6.678687e+001  1.006650e+001  2.000000e+001
      vertex  1.000000e+002 -1.500000e+002  2.000000e+001
    endloop
  endfacet
  facet normal  9.972038e-001 -7.473004e-002  0.000000e+000
    outer loop
      vertex  6.754124e+001  0.000000e+000  2.000000e+001
      vertex  6.754124e+001  0.000000e+000  5.200000e+002
      vertex  6.678687e+001 -1.006650e+001  2.000000e+001
    endloop
  endfacet
  facet normal  9.972038e-001 -7.473004e-002  0.000000e+000
    outer loop
      vertex  6.678687e+001 -1.006650e+001  2.000000e+001
      vertex  6.754124e+001  0.000000e+000  5.200000e+002
      vertex  6.678687e+001 -1.006650e+001  5.200000e+002
    endloop
  endfacet
  facet normal  9.749278e-001 -2.225213e-001  0.000000e+000
    outer loop
      vertex  6.678687e+001 -1.006650e+001  2.000000e+001
      vertex  6.678687e+001 -1.006650e+001  5.200000e+002
      vertex  6.454057e+001 -1.990813e+001  2.000000e+001
    endloop
  endfacet
  facet normal  9.749278e-001 -2.225213e-001  0.000000e+000
    outer loop
      vertex  6.454057e+001 -1.990813e+001  2.000000e+001
      vertex  6.678687e+001 -1.006650e+001  5.200000e+002
      vertex  6.454057e+001 -1.990813e+001  5.200000e+002
    endloop
  endfacet
  facet normal  9.308738e-001 -3.653408e-001  0.000000e+000
    outer loop
      vertex  6.454057e+001 -1.990813e+001  2.000000e+001
      vertex  6.454057e+001 -1.990813e+001  5.200000e+002
      vertex  6.085256e+001 -2.930505e+001  2.000000e+001
    endloop
  endfacet
  facet normal  9.308738e-001 -3.653408e-001  0.000000e+000
    outer loop
      vertex  6.085256e+001 -2.930505e+001  2.000000e+001
      vertex  6.454057e+001 -1.990813e+001  5.200000e+002
      vertex  6.085256e+001 -2.930505e+001  5.200000e+002
    endloop
  endfacet
  facet normal  8.660254e-001 -5.000000e-001  0.000000e+000
    outer loop
      vertex  6.085256e+001 -2.930505e+001  2.000000e+001
      vertex  6.085256e+001 -2.930505e+001  5.200000e+002
      vertex  5.580519e+001 -3.804734e+001  2.000000e+001
    endloop
  endfacet
  facet normal  8.660254e-001 -5.000000e-001  0.000000e+000
    outer loop
      vertex  5.580519e+001 -3.804734e+001  2.000000e+001
      vertex  6.085256e+001 -2.930505e+001  5.200000e+002
      vertex  5.580519e+001 -3.804734e+001  5.200000e+002
    endloop
  endfacet
  facet normal  7.818314e-001 -6.234898e-001  0.000000e+000
    outer loop
      vertex  5.580519e+001 -3.804734e+001  2.000000e+001
      vertex  5.580519e+001 -3.804734e+001  5.200000e+002
      vertex  4.951123e+001 -4.593971e+001  2.000000e+001
    endloop
  endfacet
  facet normal  7.818314e-001 -6.234898e-001  0.000000e+000
    outer loop
      vertex  4.951123e+001 -4.593971e+001  2.000000e+001
      vertex  5.580519e+001 -3.804734e+001  5.200000e+002
      vertex  4.951123e+001 -4.593971e+001  5.200000e+002
    endloop
  endfacet
  facet normal  6.801727e-001 -7.330520e-001  0.000000e+000
    outer loop
      vertex  4.951123e+001 -4.593971e+001  2.000000e+001
      vertex  4.951123e+001 -4.593971e+001  5.200000e+002
      vertex  4.211127e+001 -5.280587e+001  2.000000e+001
    endloop
  endfacet
  facet normal  6.801727e-001 -7.330520e-001  0.000000e+000
    outer loop
      vertex  4.211127e+001 -5.280587e+001  2.000000e+001
      vertex  4.951123e+001 -4.593971e+001  5.200000e+002
      vertex  4.211127e+001 -5.280587e+001  5.200000e+002
    endloop
  endfacet
  facet normal  5.633201e-001 -8.262387e-001  0.000000e+000
    outer loop
      vertex  4.211127e+001 -5.280587e+001  2.000000e+001
      vertex  4.211127e+001 -5.280587e+001  5.200000e+002
      vertex  3.377062e+001 -5.849243e+001  2.000000e+001
    endloop
  endfacet
  facet normal  5.633201e-001 -8.262387e-001  0.000000e+000
    outer loop
      vertex  3.377062e+001 -5.849243e+001  2.000000e+001
      vertex  4.211127e+001 -5.280587e+001  5.200000e+002
      vertex  3.377062e+001 -5.849243e+001  5.200000e+002
    endloop
  endfacet
  facet normal  4.338836e-001 -9.009690e-001  0.000000e+000
    outer loop
      vertex  3.377062e+001 -5.849243e+001  2.000000e+001
      vertex  3.377062e+001 -5.849243e+001  5.200000e+002
      vertex  2.467559e+001 -6.287237e+001  2.000000e+001
    endloop
  endfacet
  facet normal  4.338836e-001 -9.009690e-001  0.000000e+000
    outer loop
      vertex  2.467559e+001 -6.287237e+001  2.000000e+001
      vertex  3.377062e+001 -5.849243e+001  5.200000e+002
      vertex  2.467559e+001 -6.287237e+001  5.200000e+002
    endloop
  endfacet
  facet normal  2.947550e-001 -9.555728e-001  0.000000e+000
    outer loop
      vertex  2.467559e+001 -6.287237e+001  2.000000e+001
      vertex  2.467559e+001 -6.287237e+001  5.200000e+002
      vertex  1.502934e+001 -6.584784e+001  2.000000e+001
    endloop
  endfacet
  facet normal  2.947550e-001 -9.555728e-001  0.000000e+000
    outer loop
      vertex  1.502934e+001 -6.584784e+001  2.000000e+001
      vertex  2.467559e+001 -6.287237e+001  5.200000e+002
      vertex  1.502934e+001 -6.584784e+001  5.200000e+002
    endloop
  endfacet
  facet normal  1.490428e-001 -9.888307e-001  0.000000e+000
    outer loop
      vertex  1.502934e+001 -6.584784e+001  2.000000e+001
      vertex  1.502934e+001 -6.584784e+001  5.200000e+002
      vertex  5.047363e+000 -6.735239e+001  2.000000e+001
    endloop
  endfacet
  facet normal  1.490428e-001 -9.888307e-001  0.000000e+000
    outer loop
      vertex  5.047363e+000 -6.735239e+001  2.000000e+001
      vertex  1.502934e+001 -6.584784e+001  5.200000e+002
      vertex  5.047363e+000 -6.735239e+001  5.200000e+002
    endloop
  endfacet
  facet normal  0.000000e+000 -1.000000e+000  -0.000000e+000
    outer loop
      vertex  5.047363e+000 -6.735239e+001  2.000000e+001
      vertex  5.047363e+000 -6.735239e+001  5.200000e+002
      vertex -5.047363e+000 -6.735239e+001  2.000000e+001
    endloop
  endfacet
  facet normal  0.000000e+000 -1.000000e+000  0.000000e+000
    outer loop
      vertex -5.047363e+000 -6.735239e+001  2.000000e+001
      vertex  5.047363e+000 -6.735239e+001  5.200000e+002
      vertex -5.047363e+000 -6.735239e+001  5.200000e+002
    endloop
  endfacet
  facet normal -1.490428e-001 -9.888307e-001  -0.000000e+000
    outer loop
      vertex -5.047363e+000 -6.735239e+001  2.000000e+001
      vertex -5.047363e+000 -6.735239e+001  5.200000e+002
      vertex -1.502934e+001 -6.584784e+001  2.000000e+001
    endloop
  endfacet
  facet normal -1.490428e-001 -9.888307e-001  0.000000e+000
    outer loop
      vertex -1.502934e+001 -6.584784e+001  2.000000e+001
      vertex -5.047363e+000 -6.735239e+001  5.200000e+002
      vertex -1.502934e+001 -6.584784e+001  5.200000e+002
    endloop
  endfacet
  facet normal -2.947550e-001 -9.555728e-001  -0.000000e+000
    outer loop
      vertex -1.502934e+001 -6.584784e+001  2.000000e+001
      vertex -1.502934e+001 -6.584784e+001  5.200000e+002
      vertex -2.467559e+001 -6.287237e+001  2.000000e+001
    endloop
  endfacet
  facet normal -2.947550e-001 -9.555728e-001  0.000000e+000
    outer loop
      vertex -2.467559e+001 -6.287237e+001  2.000000e+001
      vertex -1.502934e+001 -6.584784e+001  5.200000e+002
      vertex -2.467559e+001 -6.287237e+001  5.200000e+002
    endloop
  endfacet
  facet normal -4.338836e-001 -9.009690e-001  -0.000000e+000
    outer loop
      vertex -2.467559e+001 -6.287237e+001  2.000000e+001
      vertex -2.467559e+001 -6.287237e+001  5.200000e+002
      vertex -3.377062e+001 -5.849243e+001  2.000000e+001
    endloop
  endfacet
  facet normal -4.338836e-001 -9.009690e-001  0.000000e+000
    outer loop
      vertex -3.377062e+001 -5.849243e+001  2.000000e+001
      vertex -2.467559e+001 -6.287237e+001  5.200000e+002
      vertex -3.377062e+001 -5.849243e+001  5.200000e+002
    endloop
  endfacet
  facet normal -5.633201e-001 -8.262387e-001  -0.000000e+000
    outer loop
      vertex -3.377062e+001 -5.849243e+001  2.000000e+001
      vertex -3.377062e+001 -5.849243e+001  5.200000e+002
      vertex -4.211127e+001 -5.280587e+001  2.000000e+001
    endloop
  endfacet
  facet normal -5.633201e-001 -8.262387e-001  0.000000e+000
    outer loop
      vertex -4.211127e+001 -5.280587e+001  2.000000e+001
      vertex -3.377062e+001 -5.849243e+001  5.200000e+002
      vertex -4.211127e+001 -5.280587e+001  5.200000e+002
    endloop
  endfacet
  facet normal -6.801727e-001 -7.330520e-001  -0.000000e+000
    outer loop
      vertex -4.211127e+001 -5.280587e+001  2.000000e+001
      vertex -4.211127e+001 -5.280587e+001  5.200000e+002
      vertex -4.951123e+001 -4.593971e+001  2.000000e+001
    endloop
  endfacet
  facet normal -6.801727e-001 -7.330520e-001  0.000000e+000
    outer loop
      vertex -4.951123e+001 -4.593971e+001  2.000000e+001
      vertex -4.211127e+001 -5.280587e+001  5.200000e+002
      vertex -4.951123e+001 -4.593971e+001  5.200000e+002
    endloop
  endfacet
  facet normal -7.818314e-001 -6.234898e-001  -0.000000e+000
    outer loop
      vertex -4.951123e+001 -4.593971e+001  2.000000e+001
      vertex -4.951123e+001 -4.593971e+001  5.200000e+002
      vertex -5.580519e+001 -3.804734e+001  2.000000e+001
    endloop
  endfacet
  facet normal -7.818314e-001 -6.234898e-001  0.000000e+000
    outer loop
      vertex -5.580519e+001 -3.804734e+001  2.000000e+001
      vertex -4.951123e+001 -4.593971e+001  5.200000e+002
      vertex -5.580519e+001 -3.804734e+001  5.200000e+002
    endloop
  endfacet
  facet normal -8.660254e-001 -5.000000e-001  -0.000000e+000
    outer loop
      vertex -5.580519e+001 -3.804734e+001  2.000000e+001
      vertex -5.580519e+001 -3.804734e+001  5.200000e+002
      vertex -6.085256e+001 -2.930505e+001  2.000000e+001
    endloop
  endfacet
  facet normal -8.660254e-001 -5.000000e-001  0.000000e+000
    outer loop
      vertex -6.085256e+001 -2.930505e+001  2.000000e+001
      vertex -5.580519e+001 -3.804734e+001  5.200000e+002
      vertex -6.085256e+001 -2.930505e+001  5.200000e+002
    endloop
  endfacet
  facet normal -9.308738e-001 -3.653408e-001  -0.000000e+000
    outer loop
      vertex -6.085256e+001 -2.930505e+001  2.000000e+001
      vertex -6.085256e+001 -2.930505e+001  5.200000e+002
      vertex -6.454057e+001 -1.990813e+001  2.000000e+001
    endloop
  endfacet
  facet normal -9.308738e-001 -3.653408e-001  0.000000e+000
    outer loop
      vertex -6.454057e+001 -1.990813e+001  2.000000e+001
      vertex -6.085256e+001 -2.930505e+001  5.200000e+002
      vertex -6.454057e+001 -1.990813e+001  5.200000e+002
    endloop
  endfacet
  facet normal -9.749278e-001 -2.225213e-001  -0.000000e+000
    outer loop
      vertex -6.454057e+001 -1.990813e+001  2.000000e+001
      vertex -6.454057e+001 -1.990813e+001  5.200000e+002
      vertex -6.678687e+001 -1.006650e+001  2.000000e+001
    endloop
  endfacet
  facet normal -9.749278e-001 -2.225213e-001  0.000000e+000
    outer loop
      vertex -6.678687e+001 -1.006650e+001  2.000000e+001
      vertex -6.454057e+001 -1.990813e+001  5.200000e+002
      vertex -6.678687e+001 -1.006650e+001  5.200000e+002
    endloop
  endfacet
  facet normal -9.972038e-001 -7.473004e-002  -0.000000e+000
    outer loop
      vertex -6.678687e+001 -1.006650e+001  2.000000e+001
      vertex -6.678687e+001 -1.006650e+001  5.200000e+002
      vertex -6.754124e+001  8.271144e-015  2.000000e+001
    endloop
  endfacet
  facet normal -9.972038e-001 -7.473004e-002  0.000000e+000
    outer loop
      vertex -6.754124e+001  8.271144e-015  2.000000e+001
      vertex -6.678687e+001 -1.006650e+001  5.200000e+002
      vertex -6.754124e+001  8.271144e-015  5.200000e+002
    endloop
  endfacet
  facet normal -9.972038e-001  7.473004e-002  0.000000e+000
    outer loop
      vertex -6.754124e+001  8.271144e-015  2.000000e+001
      vertex -6.754124e+001  8.271144e-015  5.200000e+002
      vertex -6.678687e+001  1.006650e+001  2.000000e+001
    endloop
  endfacet
  facet normal -9.972038e-001  7.473004e-002  0.000000e+000
    outer loop
      vertex -6.678687e+001  1.006650e+001  2.000000e+001
      vertex -6.754124e+001  8.271144e-015  5.200000e+002
      vertex -6.678687e+001  1.006650e+001  5.200000e+002
    endloop
  endfacet
  facet normal -9.749278e-001  2.225213e-001  0.000000e+000
    outer loop
      vertex -6.678687e+001  1.006650e+001  2.000000e+001
      vertex -6.678687e+001  1.006650e+001  5.200000e+002
      vertex -6.454057e+001  1.990813e+001  2.000000e+001
    endloop
  endfacet
  facet normal -9.749278e-001  2.225213e-001  0.000000e+000
    outer loop
      vertex -6.454057e+001  1.990813e+001  2.000000e+001
      vertex -6.678687e+001  1.006650e+001  5.200000e+002
      vertex -6.454057e+001  1.990813e+001  5.200000e+002
    endloop
  endfacet
  facet normal -9.308738e-001  3.653408e-001  0.000000e+000
    outer loop
      vertex -6.454057e+001  1.990813e+001  2.000000e+001
      vertex -6.454057e+001  1.990813e+001  5.200000e+002
      vertex -6.085256e+001  2.930505e+001  2.000000e+001
    endloop
  endfacet
  facet normal -9.308738e-001  3.653408e-001  0.000000e+000
    outer loop
      vertex -6.085256e+001  2.930505e+001  2.000000e+001
      vertex -6.454057e+001  1.990813e+001  5.200000e+002
      vertex -6.085256e+001  2.930505e+001  5.200000e+002
    endloop
  endfacet
  facet normal -8.660254e-001  5.000000e-001  0.000000e+000
    outer loop
      vertex -6.085256e+001  2.930505e+001  2.000000e+001
      vertex -6.085256e+001  2.930505e+001  5.200000e+002
      vertex -5.580519e+001  3.804734e+001  2.000000e+001
    endloop
  endfacet
  facet normal -8.660254e-001  5.000000e-001  0.000000e+000
    outer loop
      vertex -5.580519e+001  3.804734e+001  2.000000e+001
      vertex -6.085256e+001  2.930505e+001  5.200000e+002
      vertex -5.580519e+001  3.804734e+001  5.200000e+002
    endloop
  endfacet
  facet normal -7.818314e-001  6.234898e-001  0.000000e+000
    outer loop
      vertex -5.580519e+001  3.804734e+001  2.000000e+001
      vertex -5.580519e+001  3.804734e+001  5.200000e+002
      vertex -4.951123e+001  4.593971e+001  2.000000e+001
    endloop
  endfacet
  facet normal -7.818314e-001  6.234898e-001  0.000000e+000
    outer loop
      vertex -4.951123e+001  4.593971e+001  2.000000e+001
      vertex -5.580519e+001  3.804734e+001  5.200000e+002
      vertex -4.951123e+001  4.593971e+001  5.200000e+002
    endloop
  endfacet
  facet normal -6.801727e-001  7.330520e-001  0.000000e+000
    outer loop
      vertex -4.951123e+001  4.593971e+001  2.000000e+001
      vertex -4.951123e+001  4.593971e+001  5.200000e+002
      vertex -4.211127e+001  5.280587e+001  2.000000e+001
    endloop
  endfacet
  facet normal -6.801727e-001  7.330520e-001  0.000000e+000
    outer loop
      vertex -4.211127e+001  5.280587e+001  2.000000e+001
      vertex -4.951123e+001  4.593971e+001  5.200000e+002
      vertex -4.211127e+001  5.280587e+001  5.200000e+002
    endloop
  endfacet
  facet normal -5.633201e-001  8.262387e-001  0.000000e+000
    outer loop
      vertex -4.211127e+001  5.280587e+001  2.000000e+001
      vertex -4.211127e+001  5.280587e+001  5.200000e+002
      vertex -3.377062e+001  5.849243e+001  2.000000e+001
    endloop
  endfacet
  facet normal -5.633201e-001  8.262387e-001  0.000000e+000
    outer loop
      vertex -3.377062e+001  5.849243e+001  2.000000e+001
      vertex -4.211127e+001  5.280587e+001  5.200000e+002
      vertex -3.377062e+001  5.849243e+001  5.200000e+002
    endloop
  endfacet
  facet normal -4.338836e-001  9.009690e-001  0.000000e+000
    outer loop
      vertex -3.377062e+001  5.849243e+001  2.000000e+001
      vertex -3.377062e+001  5.849243e+001  5.200000e+002
      vertex -2.467559e+001  6.287237e+001  2.000000e+001
    endloop
  endfacet
  facet normal -4.338836e-001  9.009690e-001  0.000000e+000
    outer loop
      vertex -2.467559e+001  6.287237e+001  2.000000e+001
      vertex -3.377062e+001  5.849243e+001  5.200000e+002
      vertex -2.467559e+001  6.287237e+001  5.200000e+002
    endloop
  endfacet
  facet normal -2.947550e-001  9.555728e-001  0.000000e+000
    outer loop
      vertex -2.467559e+001  6.287237e+001  2.000000e+001
      vertex -2.467559e+001  6.287237e+001  5.200000e+002
      vertex -1.502934e+001  6.584784e+001  2.000000e+001
    endloop
  endfacet
  facet normal -2.947550e-001  9.555728e-001  0.000000e+000
    outer loop
      vertex -1.502934e+001  6.584784e+001  2.000000e+001
      vertex -2.467559e+001  6.287237e+001  5.200000e+002
      vertex -1.502934e+001  6.584784e+001  5.200000e+002
    endloop
  endfacet
  facet normal -1.490428e-001  9.888307e-001  0.000000e+000
    outer loop
      vertex -1.502934e+001  6.584784e+001  2.000000e+001
      vertex -1.502934e+001  6.584784e+001  5.200000e+002
      vertex -5.047363e+000  6.735239e+001  2.000000e+001
    endloop
  endfacet
  facet normal -1.490428e-001  9.888307e-001  0.000000e+000
    outer loop
      vertex -5.047363e+000  6.735239e+001  2.000000e+001
      vertex -1.502934e+001  6.584784e+001  5.200000e+002
      vertex -5.047363e+000  6.735239e+001  5.200000e+002
    endloop
  endfacet
  facet normal  0.000000e+000  1.000000e+000  0.000000e+000
    outer loop
      vertex -5.047363e+000  6.735239e+001  2.000000e+001
      vertex -5.047363e+000  6.735239e+001  5.200000e+002
      vertex  5.047363e+000  6.735239e+001  2.000000e+001
    endloop
  endfacet
  facet normal  0.000000e+000  1.000000e+000  -0.000000e+000
    outer loop
      vertex  5.047363e+000  6.735239e+001  2.000000e+001
      vertex -5.047363e+000  6.735239e+001  5.200000e+002
      vertex  5.047363e+000  6.735239e+001  5.200000e+002
    endloop
  endfacet
  facet normal  1.490428e-001  9.888307e-001  0.000000e+000
    outer loop
      vertex  5.047363e+000  6.735239e+001  2.000000e+001
      vertex  5.047363e+000  6.735239e+001  5.200000e+002
      vertex  1.502934e+001  6.584784e+001  2.000000e+001
    endloop
  endfacet
  facet normal  1.490428e-001  9.888307e-001  -0.000000e+000
    outer loop
      vertex  1.502934e+001  6.584784e+001  2.000000e+001
      vertex  5.047363e+000  6.735239e+001  5.200000e+002
      vertex  1.502934e+001  6.584784e+001  5.200000e+002
    endloop
  endfacet
  facet normal  2.947550e-001  9.555728e-001  0.000000e+000
    outer loop
      vertex  1.502934e+001  6.584784e+001  2.000000e+001
      vertex  1.502934e+001  6.584784e+001  5.200000e+002
      vertex  2.467559e+001  6.287237e+001  2.000000e+001
    endloop
  endfacet
  facet normal  2.947550e-001  9.555728e-001  -0.000000e+000
    outer loop
      vertex  2.467559e+001  6.287237e+001  2.000000e+001
      vertex  1.502934e+001  6.584784e+001  5.200000e+002
      vertex  2.467559e+001  6.287237e+001  5.200000e+002
    endloop
  endfacet
  facet normal  4.338836e-001  9.009690e-001  0.000000e+000
    outer loop
      vertex  2.467559e+001  6.287237e+001  2.000000e+001
      vertex  2.467559e+001  6.287237e+001  5.200000e+002
      vertex  3.377062e+001  5.849243e+001  2.000000e+001
    endloop
  endfacet
  facet normal  4.338836e-001  9.009690e-001  -0.000000e+000
    outer loop
      vertex  3.377062e+001  5.849243e+001  2.000000e+001
      vertex  2.467559e+001  6.287237e+001  5.200000e+002
      vertex  3.377062e+001  5.849243e+001  5.200000e+002
    endloop
  endfacet
  facet normal  5.633201e-001  8.262387e-001  0.000000e+000
    outer loop
      vertex  3.377062e+001  5.849243e+001  2.000000e+001
      vertex  3.377062e+001  5.849243e+001  5.200000e+002
      vertex  4.211127e+001  5.280587e+001  2.000000e+001
    endloop
  endfacet
  facet normal  5.633201e-001  8.262387e-001  -0.000000e+000
    outer loop
      vertex  4.211127e+001  5.280587e+001  2.000000e+001
      vertex  3.377062e+001  5.849243e+001  5.200000e+002
      vertex  4.211127e+001  5.280587e+001  5.200000e+002
    endloop
  endfacet
  facet normal  6.801727e-001  7.330520e-001  0.000000e+000
    outer loop
      vertex  4.211127e+001  5.280587e+001  2.000000e+001
      vertex  4.211127e+001  5.280587e+001  5.200000e+002
      vertex  4.951123e+001  4.593971e+001  2.000000e+001
    endloop
  endfacet
  facet normal  6.801727e-001  7.330520e-001  -0.000000e+000
    outer loop
      vertex  4.951123e+001  4.593971e+001  2.000000e+001
      vertex  4.211127e+001  5.280587e+001  5.200000e+002
      vertex  4.951123e+001  4.593971e+001  5.200000e+002
    endloop
  endfacet
  facet normal  7.818314e-001  6.234898e-001  0.000000e+000
    outer loop
      vertex  4.951123e+001  4.593971e+001  2.000000e+001
      vertex  4.951123e+001  4.593971e+001  5.200000e+002
      vertex  5.580519e+001  3.804734e+001  2.000000e+001
    endloop
  endfacet
  facet normal  7.818314e-001  6.234898e-001  -0.000000e+000
    outer loop
      vertex  5.580519e+001  3.804734e+001  2.000000e+001
      vertex  4.951123e+001  4.593971e+001  5.200000e+002
      vertex  5.580519e+001  3.804734e+001  5.200000e+002
    endloop
  endfacet
  facet normal  8.660254e-001  5.000000e-001  0.000000e+000
    outer loop
      vertex  5.580519e+001  3.804734e+001  2.000000e+001
      vertex  5.580519e+001  3.804734e+001  5.200000e+002
      vertex  6.085256e+001  2.930505e+001  2.000000e+001
    endloop
  endfacet
  facet normal  8.660254e-001  5.000000e-001  -0.000000e+000
    outer loop
      vertex  6.085256e+001  2.930505e+001  2.000000e+001
      vertex  5.580519e+001  3.804734e+001  5.200000e+002
      vertex  6.085256e+001  2.930505e+001  5.200000e+002
    endloop
  endfacet
  facet normal  9.308738e-001  3.653408e-001  0.000000e+000
    outer loop
      vertex  6.085256e+001  2.930505e+001  2.000000e+001
      vertex  6.085256e+001  2.930505e+001  5.200000e+002
      vertex  6.454057e+001  1.990813e+001  2.000000e+001
    endloop
  endfacet
  facet normal  9.308738e-001  3.653408e-001  -0.000000e+000
    outer loop
      vertex  6.454057e+001  1.990813e+001  2.000000e+001
      vertex  6.085256e+001  2.930505e+001  5.200000e+002
      vertex  6.454057e+001  1.990813e+001  5.200000e+002
    endloop
  endfacet
  facet normal  9.749278e-001  2.225213e-001  0.000000e+000
    outer loop
      vertex  6.454057e+001  1.990813e+001  2.000000e+001
      vertex  6.454057e+001  1.990813e+001  5.200000e+002
      vertex  6.678687e+001  1.006650e+001  2.000000e+001
    endloop
  endfacet
  facet normal  9.749278e-001  2.225213e-001  -0.000000e+000
    outer loop
      vertex  6.678687e+001  1.006650e+001  2.000000e+001
      vertex  6.454057e+001  1.990813e+001  5.200000e+002
      vertex  6.678687e+001  1.006650e+001  5.200000e+002
    endloop
  endfacet
  facet normal  9.972038e-001  7.473004e-002  0.000000e+000
    outer loop
      vertex  6.678687e+001  1.006650e+001  2.000000e+001
      vertex  6.678687e+001  1.006650e+001  5.200000e+002
      vertex  6.754124e+001  0.000000e+000  2.000000e+001
    endloop
  endfacet
  facet normal  9.972038e-001  7.473004e-002  -0.000000e+000
    outer loop
      vertex  6.754124e+001  0.000000e+000  2.000000e+001
      vertex  6.678687e+001  1.006650e+001  5.200000e+002
      vertex  6.754124e+001  0.000000e+000  5.200000e+002
    endloop
  endfacet
  facet normal  0.000000e+000  0.000000e+000 -1.000000e+000
    outer loop
      vertex -1.000000e+002 -1.500000e+002  0.000000e+000
      vertex -1.000000e+002  1.500000e+002  0.000000e+000
      vertex  1.000000e+002 -1.500000e+002  0.000000e+000
    endloop
  endfacet
  facet normal  0.000000e+000  0.000000e+000 -1.000000e+000
    outer loop
      vertex  1.000000e+002 -1.500000e+002  0.000000e+000
      vertex -1.000000e+002  1.500000e+002  0.000000e+000
      vertex  1.000000e+002  1.500000e+002  0.000000e+000
    endloop
  endfacet
  facet normal  0.000000e+000  1.000000e+000  0.000000e+000
    outer loop
      vertex -1.000000e+002  1.500000e+002  2.000000e+001
      vertex  1.000000e+002  1.500000e+002  2.000000e+001
      vertex -1.000000e+002  1.500000e+002  0.000000e+000
    endloop
  endfacet
  facet normal  0.000000e+000  1.000000e+000  0.000000e+000
    outer loop
      vertex -1.000000e+002  1.500000e+002  0.000000e+000
      vertex  1.000000e+002  1.500000e+002  2.000000e+001
      vertex  1.000000e+002  1.500000e+002  0.000000e+000
    endloop
  endfacet
  facet normal  1.000000e+000  0.000000e+000  0.000000e+000
    outer loop
      vertex  1.000000e+002 -1.500000e+002  2.000000e+001
      vertex  1.000000e+002 -1.500000e+002  0.000000e+000
      vertex  1.000000e+002  1.500000e+002  2.000000e+001
    endloop
  endfacet
  facet normal  1.000000e+000  0.000000e+000  0.000000e+000
    outer loop
      vertex  1.000000e+002  1.500000e+002  2.000000e+001
      vertex  1.000000e+002 -1.500000e+002  0.000000e+000
      vertex  1.000000e+002  1.500000e+002  0.000000e+000
    endloop
  endfacet
  facet normal  0.000000e+000 -1.000000e+000  0.000000e+000
    outer loop
      vertex  1.000000e+002 -1.500000e+002  2.000000e+001
      vertex -1.000000e+002 -1.500000e+002  2.000000e+001
      vertex  1.000000e+002 -1.500000e+002  0.000000e+000
    endloop
  endfacet
  facet normal  0.000000e+000 -1.000000e+000  0.000000e+000
    outer loop
      vertex  1.000000e+002 -1.500000e+002  0.000000e+000
      vertex -1.000000e+002 -1.500000e+002  2.000000e+001
      vertex -1.000000e+002 -1.500000e+002  0.000000e+000
    endloop
  endfacet
  facet normal -1.000000e+000  0.000000e+000  0.000000e+000
    outer loop
      vertex -1.000000e+002  1.500000e+002  2.000000e+001
      vertex -1.000000e+002  1.500000e+002  0.000000e+000
      vertex -1.000000e+002 -1.500000e+002  2.000000e+001
    endloop
  endfacet
  facet normal -1.000000e+000  0.000000e+000  0.000000e+000
    outer loop
      vertex -1.000000e+002 -1.500000e+002  2.000000e+001
      vertex -1.000000e+002  1.500000e+002  0.000000e+000
      vertex -1.000000e+002 -1.500000e+002  0.000000e+000
    endloop
  endfacet
endsolid CATIA STL
