solid CATIA STL
  facet normal  1.000000e+000  0.000000e+000  0.000000e+000
    outer loop
      vertex  4.000000e+001  1.540204e+002  1.563870e+002
      vertex  4.000000e+001 -1.859796e+002 -7.361300e+001
      vertex  4.000000e+001 -1.459796e+002 -7.361300e+001
    endloop
  endfacet
  facet normal  1.000000e+000  0.000000e+000  0.000000e+000
    outer loop
      vertex  4.000000e+001  1.540204e+002  1.563870e+002
      vertex  4.000000e+001 -1.459796e+002 -7.361300e+001
      vertex  4.000000e+001  1.540204e+002 -7.361300e+001
    endloop
  endfacet
  facet normal  1.000000e+000  0.000000e+000  0.000000e+000
    outer loop
      vertex  4.000000e+001  1.540204e+002  1.563870e+002
      vertex  4.000000e+001  1.540204e+002 -7.361300e+001
      vertex  4.000000e+001  1.940204e+002 -7.361300e+001
    endloop
  endfacet
  facet normal  1.000000e+000  0.000000e+000  -0.000000e+000
    outer loop
      vertex  4.000000e+001  1.540204e+002  1.563870e+002
      vertex  4.000000e+001  1.940204e+002 -7.361300e+001
      vertex  4.000000e+001  1.940204e+002  2.063870e+002
    endloop
  endfacet
  facet normal  1.000000e+000  0.000000e+000  0.000000e+000
    outer loop
      vertex  4.000000e+001  1.540204e+002  1.563870e+002
      vertex  4.000000e+001  1.940204e+002  2.063870e+002
      vertex  4.000000e+001  1.540204e+002  2.063870e+002
    endloop
  endfacet
  facet normal  1.000000e+000  0.000000e+000  0.000000e+000
    outer loop
      vertex  4.000000e+001 -1.859796e+002 -7.361300e+001
      vertex  4.000000e+001  1.540204e+002  1.563870e+002
      vertex  4.000000e+001 -1.459796e+002  1.563870e+002
    endloop
  endfacet
  facet normal  1.000000e+000  0.000000e+000  -0.000000e+000
    outer loop
      vertex  4.000000e+001 -1.859796e+002 -7.361300e+001
      vertex  4.000000e+001 -1.459796e+002  1.563870e+002
      vertex  4.000000e+001 -1.459796e+002  2.063870e+002
    endloop
  endfacet
  facet normal  1.000000e+000  0.000000e+000  0.000000e+000
    outer loop
      vertex  4.000000e+001 -1.859796e+002 -7.361300e+001
      vertex  4.000000e+001 -1.459796e+002  2.063870e+002
      vertex  4.000000e+001 -1.859796e+002  2.063870e+002
    endloop
  endfacet
  facet normal -1.000000e+000  0.000000e+000  0.000000e+000
    outer loop
      vertex  0.000000e+000  1.540204e+002  1.563870e+002
      vertex  0.000000e+000  1.540204e+002  2.063870e+002
      vertex  0.000000e+000  1.940204e+002  2.063870e+002
    endloop
  endfacet
  facet normal -1.000000e+000  0.000000e+000  -0.000000e+000
    outer loop
      vertex  0.000000e+000  1.540204e+002  1.563870e+002
      vertex  0.000000e+000  1.940204e+002  2.063870e+002
      vertex  0.000000e+000  1.940204e+002 -7.361300e+001
    endloop
  endfacet
  facet normal -1.000000e+000  0.000000e+000  0.000000e+000
    outer loop
      vertex  0.000000e+000  1.540204e+002  1.563870e+002
      vertex  0.000000e+000  1.940204e+002 -7.361300e+001
      vertex  0.000000e+000  1.540204e+002 -7.361300e+001
    endloop
  endfacet
  facet normal -1.000000e+000  0.000000e+000  0.000000e+000
    outer loop
      vertex  0.000000e+000  1.540204e+002  1.563870e+002
      vertex  0.000000e+000  1.540204e+002 -7.361300e+001
      vertex  0.000000e+000 -1.459796e+002 -7.361300e+001
    endloop
  endfacet
  facet normal -1.000000e+000  0.000000e+000  0.000000e+000
    outer loop
      vertex  0.000000e+000  1.540204e+002  1.563870e+002
      vertex  0.000000e+000 -1.459796e+002 -7.361300e+001
      vertex  0.000000e+000 -1.859796e+002 -7.361300e+001
    endloop
  endfacet
  facet normal -1.000000e+000  0.000000e+000  0.000000e+000
    outer loop
      vertex  0.000000e+000 -1.859796e+002 -7.361300e+001
      vertex  0.000000e+000 -1.859796e+002  2.063870e+002
      vertex  0.000000e+000 -1.459796e+002  2.063870e+002
    endloop
  endfacet
  facet normal -1.000000e+000  0.000000e+000  -0.000000e+000
    outer loop
      vertex  0.000000e+000 -1.859796e+002 -7.361300e+001
      vertex  0.000000e+000 -1.459796e+002  2.063870e+002
      vertex  0.000000e+000 -1.459796e+002  1.563870e+002
    endloop
  endfacet
  facet normal -1.000000e+000  0.000000e+000  -0.000000e+000
    outer loop
      vertex  0.000000e+000 -1.859796e+002 -7.361300e+001
      vertex  0.000000e+000 -1.459796e+002  1.563870e+002
      vertex  0.000000e+000  1.540204e+002  1.563870e+002
    endloop
  endfacet
  facet normal  0.000000e+000  0.000000e+000  1.000000e+000
    outer loop
      vertex  4.000000e+001 -1.459796e+002  1.563870e+002
      vertex  4.000000e+001  1.540204e+002  1.563870e+002
      vertex  0.000000e+000 -1.459796e+002  1.563870e+002
    endloop
  endfacet
  facet normal  0.000000e+000  0.000000e+000  1.000000e+000
    outer loop
      vertex  0.000000e+000 -1.459796e+002  1.563870e+002
      vertex  4.000000e+001  1.540204e+002  1.563870e+002
      vertex  0.000000e+000  1.540204e+002  1.563870e+002
    endloop
  endfacet
  facet normal  0.000000e+000 -1.000000e+000  0.000000e+000
    outer loop
      vertex  4.000000e+001  1.540204e+002  2.063870e+002
      vertex  0.000000e+000  1.540204e+002  2.063870e+002
      vertex  4.000000e+001  1.540204e+002  1.563870e+002
    endloop
  endfacet
  facet normal  0.000000e+000 -1.000000e+000  0.000000e+000
    outer loop
      vertex  4.000000e+001  1.540204e+002  1.563870e+002
      vertex  0.000000e+000  1.540204e+002  2.063870e+002
      vertex  0.000000e+000  1.540204e+002  1.563870e+002
    endloop
  endfacet
  facet normal  0.000000e+000  0.000000e+000  1.000000e+000
    outer loop
      vertex  4.000000e+001  1.540204e+002  2.063870e+002
      vertex  4.000000e+001  1.940204e+002  2.063870e+002
      vertex  0.000000e+000  1.540204e+002  2.063870e+002
    endloop
  endfacet
  facet normal  0.000000e+000  0.000000e+000  1.000000e+000
    outer loop
      vertex  0.000000e+000  1.540204e+002  2.063870e+002
      vertex  4.000000e+001  1.940204e+002  2.063870e+002
      vertex  0.000000e+000  1.940204e+002  2.063870e+002
    endloop
  endfacet
  facet normal  0.000000e+000  1.000000e+000  0.000000e+000
    outer loop
      vertex  4.000000e+001  1.940204e+002 -7.361300e+001
      vertex  0.000000e+000  1.940204e+002 -7.361300e+001
      vertex  4.000000e+001  1.940204e+002  2.063870e+002
    endloop
  endfacet
  facet normal  0.000000e+000  1.000000e+000  0.000000e+000
    outer loop
      vertex  4.000000e+001  1.940204e+002  2.063870e+002
      vertex  0.000000e+000  1.940204e+002 -7.361300e+001
      vertex  0.000000e+000  1.940204e+002  2.063870e+002
    endloop
  endfacet
  facet normal  0.000000e+000  0.000000e+000 -1.000000e+000
    outer loop
      vertex  4.000000e+001  1.940204e+002 -7.361300e+001
      vertex  4.000000e+001  1.540204e+002 -7.361300e+001
      vertex  0.000000e+000  1.940204e+002 -7.361300e+001
    endloop
  endfacet
  facet normal  0.000000e+000  0.000000e+000 -1.000000e+000
    outer loop
      vertex  0.000000e+000  1.940204e+002 -7.361300e+001
      vertex  4.000000e+001  1.540204e+002 -7.361300e+001
      vertex  0.000000e+000  1.540204e+002 -7.361300e+001
    endloop
  endfacet
  facet normal  0.000000e+000  0.000000e+000 -1.000000e+000
    outer loop
      vertex  4.000000e+001  1.540204e+002 -7.361300e+001
      vertex  4.000000e+001 -1.459796e+002 -7.361300e+001
      vertex  0.000000e+000  1.540204e+002 -7.361300e+001
    endloop
  endfacet
  facet normal  0.000000e+000  0.000000e+000 -1.000000e+000
    outer loop
      vertex  0.000000e+000  1.540204e+002 -7.361300e+001
      vertex  4.000000e+001 -1.459796e+002 -7.361300e+001
      vertex  0.000000e+000 -1.459796e+002 -7.361300e+001
    endloop
  endfacet
  facet normal  0.000000e+000  0.000000e+000 -1.000000e+000
    outer loop
      vertex  4.000000e+001 -1.459796e+002 -7.361300e+001
      vertex  4.000000e+001 -1.859796e+002 -7.361300e+001
      vertex  0.000000e+000 -1.459796e+002 -7.361300e+001
    endloop
  endfacet
  facet normal  0.000000e+000  0.000000e+000 -1.000000e+000
    outer loop
      vertex  0.000000e+000 -1.459796e+002 -7.361300e+001
      vertex  4.000000e+001 -1.859796e+002 -7.361300e+001
      vertex  0.000000e+000 -1.859796e+002 -7.361300e+001
    endloop
  endfacet
  facet normal  0.000000e+000 -1.000000e+000  -0.000000e+000
    outer loop
      vertex  4.000000e+001 -1.859796e+002 -7.361300e+001
      vertex  4.000000e+001 -1.859796e+002  2.063870e+002
      vertex  0.000000e+000 -1.859796e+002 -7.361300e+001
    endloop
  endfacet
  facet normal  0.000000e+000 -1.000000e+000  0.000000e+000
    outer loop
      vertex  0.000000e+000 -1.859796e+002 -7.361300e+001
      vertex  4.000000e+001 -1.859796e+002  2.063870e+002
      vertex  0.000000e+000 -1.859796e+002  2.063870e+002
    endloop
  endfacet
  facet normal  0.000000e+000  0.000000e+000  1.000000e+000
    outer loop
      vertex  4.000000e+001 -1.859796e+002  2.063870e+002
      vertex  4.000000e+001 -1.459796e+002  2.063870e+002
      vertex  0.000000e+000 -1.859796e+002  2.063870e+002
    endloop
  endfacet
  facet normal  0.000000e+000  0.000000e+000  1.000000e+000
    outer loop
      vertex  0.000000e+000 -1.859796e+002  2.063870e+002
      vertex  4.000000e+001 -1.459796e+002  2.063870e+002
      vertex  0.000000e+000 -1.459796e+002  2.063870e+002
    endloop
  endfacet
  facet normal  0.000000e+000  1.000000e+000  -0.000000e+000
    outer loop
      vertex  4.000000e+001 -1.459796e+002  2.063870e+002
      vertex  4.000000e+001 -1.459796e+002  1.563870e+002
      vertex  0.000000e+000 -1.459796e+002  2.063870e+002
    endloop
  endfacet
  facet normal  0.000000e+000  1.000000e+000  0.000000e+000
    outer loop
      vertex  0.000000e+000 -1.459796e+002  2.063870e+002
      vertex  4.000000e+001 -1.459796e+002  1.563870e+002
      vertex  0.000000e+000 -1.459796e+002  1.563870e+002
    endloop
  endfacet
endsolid CATIA STL
